<svg width="511" height="386" viewBox="0 0 511 386" fill="none" xmlns="http://www.w3.org/2000/svg">
<g clip-path="url(#clip0)">
<path d="M235.65 82.3462H109.592C108.973 82.3455 108.38 82.0992 107.942 81.6614C107.505 81.2235 107.259 80.6299 107.258 80.0107V48.7261C107.259 48.1069 107.505 47.5133 107.942 47.0755C108.38 46.6376 108.973 46.3914 109.592 46.3906H235.65C236.268 46.3914 236.862 46.6376 237.299 47.0755C237.737 47.5133 237.983 48.1069 237.984 48.7261V80.0107C237.983 80.6299 237.737 81.2235 237.299 81.6614C236.862 82.0992 236.268 82.3455 235.65 82.3462ZM109.592 47.3248C109.221 47.3252 108.865 47.473 108.602 47.7357C108.34 47.9984 108.192 48.3546 108.192 48.7261V80.0107C108.192 80.3822 108.34 80.7384 108.602 81.0011C108.865 81.2638 109.221 81.4116 109.592 81.412H235.65C236.021 81.4116 236.377 81.2638 236.639 81.0011C236.902 80.7384 237.05 80.3822 237.05 80.0107V48.7261C237.05 48.3546 236.902 47.9984 236.639 47.7357C236.377 47.473 236.021 47.3252 235.65 47.3248L109.592 47.3248Z" fill="#3F3D56"/>
<path d="M129.179 72.6817C134.43 72.6817 138.688 68.4222 138.688 63.168C138.688 57.9137 134.43 53.6543 129.179 53.6543C123.927 53.6543 119.669 57.9137 119.669 63.168C119.669 68.4222 123.927 72.6817 129.179 72.6817Z" fill="#3DDC84"/>
<path d="M151.14 56.8254C150.72 56.8254 150.317 56.9925 150.019 57.2899C149.722 57.5872 149.555 57.9905 149.555 58.4111C149.555 58.8316 149.722 59.2349 150.019 59.5323C150.317 59.8296 150.72 59.9967 151.14 59.9967H225.854C226.274 59.9967 226.678 59.8296 226.975 59.5323C227.272 59.2349 227.439 58.8316 227.439 58.4111C227.439 57.9905 227.272 57.5872 226.975 57.2899C226.678 56.9925 226.274 56.8254 225.854 56.8254H151.14Z" fill="#E6E6E6"/>
<path d="M151.14 66.3391C150.72 66.3391 150.317 66.5062 150.019 66.8035C149.722 67.1009 149.555 67.5042 149.555 67.9247C149.555 68.3453 149.722 68.7486 150.019 69.0459C150.317 69.3433 150.72 69.5103 151.14 69.5103H183.29C183.498 69.5107 183.705 69.47 183.897 69.3905C184.09 69.311 184.265 69.1942 184.412 69.0469C184.56 68.8997 184.677 68.7248 184.757 68.5322C184.836 68.3396 184.877 68.1332 184.877 67.9247C184.877 67.7163 184.836 67.5098 184.757 67.3173C184.677 67.1247 184.56 66.9498 184.412 66.8025C184.265 66.6552 184.09 66.5385 183.897 66.459C183.705 66.3795 183.498 66.3387 183.29 66.3391H151.14Z" fill="#E6E6E6"/>
<path d="M180.923 193.861H124.897C124.278 193.861 123.685 193.614 123.248 193.177C122.81 192.739 122.564 192.145 122.563 191.526V133.149C122.564 132.53 122.81 131.936 123.248 131.499C123.685 131.061 124.278 130.814 124.897 130.814H180.923C181.542 130.814 182.135 131.061 182.573 131.499C183.01 131.936 183.257 132.53 183.257 133.149V191.526C183.257 192.145 183.01 192.739 182.573 193.177C182.135 193.614 181.542 193.861 180.923 193.861ZM124.897 131.748C124.526 131.748 124.17 131.896 123.907 132.159C123.645 132.422 123.497 132.778 123.497 133.149V191.526C123.497 191.897 123.645 192.254 123.907 192.516C124.17 192.779 124.526 192.927 124.897 192.927H180.923C181.294 192.927 181.65 192.779 181.913 192.516C182.176 192.254 182.323 191.897 182.324 191.526V133.149C182.323 132.778 182.176 132.422 181.913 132.159C181.65 131.896 181.294 131.748 180.923 131.748H124.897Z" fill="#3F3D56"/>
<path d="M136.835 142.852C136.415 142.852 136.012 143.019 135.715 143.316C135.417 143.614 135.25 144.017 135.25 144.438C135.25 144.858 135.417 145.261 135.715 145.559C136.012 145.856 136.415 146.023 136.835 146.023H168.985C169.405 146.023 169.809 145.856 170.106 145.559C170.403 145.261 170.57 144.858 170.57 144.438C170.57 144.017 170.403 143.614 170.106 143.316C169.809 143.019 169.405 142.852 168.985 142.852H136.835Z" fill="#E6E6E6"/>
<path d="M136.835 152.194C136.627 152.194 136.421 152.234 136.228 152.314C136.035 152.393 135.86 152.51 135.713 152.657C135.565 152.805 135.448 152.98 135.368 153.172C135.289 153.365 135.248 153.571 135.248 153.78C135.248 153.988 135.289 154.195 135.368 154.387C135.448 154.58 135.565 154.755 135.713 154.902C135.86 155.049 136.035 155.166 136.228 155.245C136.421 155.325 136.627 155.366 136.835 155.365H168.985C169.405 155.365 169.808 155.198 170.106 154.901C170.403 154.604 170.57 154.2 170.57 153.78C170.57 153.359 170.403 152.956 170.106 152.659C169.808 152.361 169.405 152.194 168.985 152.194H136.835Z" fill="#E6E6E6"/>
<path d="M152.91 181.823C150.937 181.823 149.008 181.238 147.368 180.141C145.727 179.044 144.448 177.485 143.693 175.662C142.938 173.838 142.741 171.831 143.126 169.895C143.511 167.959 144.461 166.181 145.856 164.785C147.251 163.389 149.029 162.438 150.964 162.053C152.899 161.668 154.905 161.866 156.728 162.621C158.55 163.377 160.108 164.656 161.205 166.297C162.301 167.939 162.886 169.868 162.886 171.842C162.883 174.488 161.831 177.025 159.961 178.896C158.09 180.767 155.555 181.82 152.91 181.823Z" fill="#3DDC84"/>
<path d="M272.702 0H328.728C329.347 0.000727074 329.94 0.247023 330.378 0.684861C330.815 1.1227 331.061 1.71633 331.062 2.33552V60.7121C331.061 61.3313 330.815 61.925 330.378 62.3628C329.94 62.8006 329.347 63.0469 328.728 63.0477H272.702C272.083 63.0469 271.49 62.8006 271.052 62.3628C270.615 61.925 270.368 61.3313 270.368 60.7121V2.33552C270.368 1.71633 270.615 1.1227 271.052 0.684861C271.49 0.247023 272.083 0.000727074 272.702 0ZM328.728 62.1135C329.099 62.1131 329.455 61.9653 329.718 61.7026C329.98 61.4399 330.128 61.0837 330.128 60.7121V2.33552C330.128 1.964 329.98 1.6078 329.718 1.34509C329.455 1.08238 329.099 0.934614 328.728 0.934207H272.702C272.331 0.934614 271.975 1.08238 271.712 1.34509C271.45 1.6078 271.302 1.964 271.301 2.33552V60.7121C271.302 61.0837 271.45 61.4399 271.712 61.7026C271.975 61.9653 272.331 62.1131 272.702 62.1135H328.728Z" fill="#3F3D56"/>
<path d="M316.79 51.0094C317.21 51.0094 317.613 50.8423 317.91 50.5449C318.208 50.2476 318.375 49.8443 318.375 49.4237C318.375 49.0032 318.208 48.5999 317.91 48.3025C317.613 48.0052 317.21 47.8381 316.79 47.8381H284.64C284.22 47.8381 283.817 48.0052 283.519 48.3025C283.222 48.5999 283.055 49.0032 283.055 49.4237C283.055 49.8443 283.222 50.2476 283.519 50.5449C283.817 50.8423 284.22 51.0094 284.64 51.0094H316.79Z" fill="#E6E6E6"/>
<path d="M316.79 41.6673C317.21 41.6673 317.613 41.5003 317.91 41.2029C318.208 40.9056 318.375 40.5022 318.375 40.0817C318.375 39.6612 318.208 39.2579 317.91 38.9605C317.613 38.6632 317.21 38.4961 316.79 38.4961H284.64C284.22 38.4961 283.817 38.6632 283.519 38.9605C283.222 39.2579 283.055 39.6612 283.055 40.0817C283.055 40.5022 283.222 40.9056 283.519 41.2029C283.817 41.5003 284.22 41.6673 284.64 41.6673H316.79Z" fill="#E6E6E6"/>
<path d="M300.715 12.0383C302.688 12.0383 304.616 12.6237 306.257 13.7204C307.898 14.8171 309.176 16.3759 309.931 18.1996C310.686 20.0233 310.884 22.0301 310.499 23.9662C310.114 25.9022 309.164 27.6806 307.769 29.0765C306.374 30.4723 304.596 31.4229 302.661 31.808C300.726 32.1931 298.72 31.9954 296.897 31.24C295.074 30.4846 293.516 29.2053 292.42 27.564C291.324 25.9227 290.739 23.993 290.739 22.019C290.742 19.3729 291.794 16.836 293.664 14.9649C295.534 13.0938 298.07 12.0413 300.715 12.0383Z" fill="#3DDC84"/>
<path d="M107.978 120.772C117.892 113.09 129.475 107.851 141.788 105.48C154.2 103.114 166.999 103.772 179.103 107.399C185.188 109.211 191.034 111.746 196.517 114.948C202.103 118.215 207.151 122.237 212.008 126.496C216.928 130.81 221.687 135.316 226.823 139.378C241.487 151.104 259.691 157.511 278.463 157.553C280.014 157.555 281.564 157.512 283.113 157.424C283.952 157.378 283.958 156.065 283.113 156.112C263.977 157.166 245.08 151.453 229.731 139.973C224.407 135.991 219.546 131.437 214.584 127.024C209.773 122.746 204.833 118.584 199.375 115.147C186.024 106.732 170.492 102.437 154.717 102.797C138.942 103.156 123.622 108.155 110.668 117.17C109.437 118.027 108.234 118.922 107.05 119.844C106.384 120.363 107.319 121.285 107.978 120.772V120.772Z" fill="#3F3D56"/>
<path d="M107.281 127.116C111.046 127.116 114.099 124.063 114.099 120.296C114.099 116.528 111.046 113.475 107.281 113.475C103.516 113.475 100.463 116.528 100.463 120.296C100.463 124.063 103.516 127.116 107.281 127.116Z" fill="#3F3D56"/>
<path d="M360.911 217.68C364.676 217.68 367.728 214.626 367.728 210.859C367.728 207.092 364.676 204.038 360.911 204.038C357.146 204.038 354.093 207.092 354.093 210.859C354.093 214.626 357.146 217.68 360.911 217.68Z" fill="#3F3D56"/>
<path d="M396.627 172.003H285.384C284.765 172.003 284.171 171.756 283.734 171.319C283.296 170.881 283.05 170.287 283.049 169.668V111.758C283.05 111.139 283.296 110.546 283.734 110.108C284.171 109.67 284.765 109.424 285.384 109.423H396.627C397.246 109.424 397.839 109.67 398.277 110.108C398.714 110.546 398.96 111.139 398.961 111.758V169.668C398.96 170.287 398.714 170.881 398.277 171.319C397.839 171.756 397.246 172.003 396.627 172.003ZM285.384 110.357C285.012 110.357 284.656 110.505 284.394 110.768C284.131 111.031 283.983 111.387 283.983 111.758V169.668C283.983 170.039 284.131 170.396 284.394 170.658C284.656 170.921 285.012 171.069 285.384 171.069H396.627C396.998 171.069 397.354 170.921 397.617 170.658C397.879 170.396 398.027 170.039 398.027 169.668V111.758C398.027 111.387 397.879 111.031 397.617 110.768C397.354 110.505 396.998 110.357 396.627 110.357H285.384Z" fill="#3F3D56"/>
<path d="M304.036 139.451C309.288 139.451 313.546 135.192 313.546 129.937C313.546 124.683 309.288 120.424 304.036 120.424C298.785 120.424 294.527 124.683 294.527 129.937C294.527 135.192 298.785 139.451 304.036 139.451Z" fill="#3DDC84"/>
<path d="M325.998 123.595C325.79 123.594 325.583 123.635 325.391 123.715C325.198 123.794 325.023 123.911 324.875 124.058C324.728 124.205 324.611 124.38 324.531 124.573C324.451 124.765 324.41 124.972 324.41 125.18C324.41 125.389 324.451 125.595 324.531 125.788C324.611 125.98 324.728 126.155 324.875 126.303C325.023 126.45 325.198 126.567 325.391 126.646C325.583 126.726 325.79 126.766 325.998 126.766H385.898C386.318 126.766 386.721 126.599 387.018 126.302C387.316 126.004 387.483 125.601 387.483 125.18C387.483 124.76 387.316 124.357 387.018 124.059C386.721 123.762 386.318 123.595 385.898 123.595H325.998Z" fill="#E6E6E6"/>
<path d="M325.998 133.108C325.79 133.108 325.583 133.149 325.391 133.228C325.198 133.308 325.023 133.425 324.875 133.572C324.728 133.719 324.611 133.894 324.531 134.087C324.451 134.279 324.41 134.486 324.41 134.694C324.41 134.902 324.451 135.109 324.531 135.301C324.611 135.494 324.728 135.669 324.875 135.816C325.023 135.964 325.198 136.08 325.391 136.16C325.583 136.239 325.79 136.28 325.998 136.28H358.148C358.568 136.28 358.971 136.113 359.268 135.815C359.565 135.518 359.732 135.115 359.732 134.694C359.732 134.273 359.565 133.87 359.268 133.573C358.971 133.275 358.568 133.108 358.148 133.108H325.998Z" fill="#E6E6E6"/>
<path d="M296.743 148.318C295.537 148.318 294.556 149.029 294.556 149.903C294.556 150.778 295.537 151.489 296.743 151.489H385.011C386.217 151.489 387.198 150.778 387.198 149.903C387.198 149.029 386.217 148.318 385.011 148.318H296.743Z" fill="#E6E6E6"/>
<path d="M296.743 157.832C295.537 157.832 294.556 158.543 294.556 159.417C294.556 160.292 295.537 161.003 296.743 161.003H385.011C386.217 161.003 387.198 160.292 387.198 159.417C387.198 158.543 386.217 157.832 385.011 157.832H296.743Z" fill="#E6E6E6"/>
<path d="M276.441 217.209C282.717 214.485 289.724 216.86 295.64 219.37C298.686 220.663 301.7 222.043 304.853 223.064C307.505 223.921 310.222 224.565 312.976 224.99C318.504 225.837 324.125 225.872 329.663 225.092C335.229 224.316 340.653 222.738 345.767 220.408C350.852 218.102 355.553 215.027 359.704 211.291C360.232 210.814 360.75 210.326 361.258 209.826C361.862 209.234 360.934 208.306 360.33 208.898C356.333 212.797 351.744 216.038 346.734 218.501C341.744 220.956 336.422 222.666 330.937 223.578C325.434 224.506 319.823 224.603 314.291 223.866C311.532 223.492 308.806 222.9 306.141 222.093C303.08 221.097 300.076 219.93 297.145 218.598C291.175 216.032 284.541 213.52 277.98 215.289C277.229 215.497 276.493 215.76 275.779 216.076C275.007 216.411 275.674 217.542 276.441 217.209V217.209Z" fill="#3F3D56"/>
<path d="M274.016 233.307H221.459L233.828 211.873C234.05 211.489 234.368 211.17 234.752 210.948C235.136 210.726 235.572 210.61 236.015 210.61C236.459 210.61 236.894 210.726 237.278 210.948C237.662 211.17 237.981 211.489 238.203 211.873L243.486 221.029L252.47 205.461C252.748 204.98 253.147 204.581 253.628 204.303C254.108 204.025 254.654 203.879 255.209 203.879C255.764 203.879 256.309 204.025 256.79 204.303C257.271 204.581 257.67 204.98 257.947 205.461L274.016 233.307Z" fill="#3DDC84"/>
<path d="M274.066 233.301H218.04C217.422 233.3 216.828 233.054 216.391 232.616C215.953 232.178 215.707 231.585 215.706 230.966V199.681C215.707 199.062 215.953 198.468 216.391 198.03C216.828 197.592 217.422 197.346 218.04 197.345H274.066C274.685 197.346 275.278 197.592 275.716 198.03C276.154 198.468 276.4 199.062 276.4 199.681V230.966C276.4 231.585 276.154 232.178 275.716 232.616C275.278 233.054 274.685 233.3 274.066 233.301ZM218.04 198.28C217.669 198.28 217.313 198.428 217.05 198.691C216.788 198.953 216.64 199.309 216.64 199.681V230.966C216.64 231.337 216.788 231.693 217.05 231.956C217.313 232.219 217.669 232.366 218.04 232.367H274.066C274.437 232.366 274.793 232.219 275.056 231.956C275.319 231.693 275.466 231.337 275.467 230.966V199.681C275.466 199.309 275.319 198.953 275.056 198.691C274.793 198.428 274.437 198.28 274.066 198.28H218.04Z" fill="#3F3D56"/>
<path d="M383.953 205.768L373.967 210.841C370.402 212.652 366.963 212.342 365.645 208.566C365.332 207.668 365.216 206.712 365.306 205.764C365.396 204.817 365.689 203.9 366.166 203.077C366.643 202.253 367.293 201.543 368.069 200.993C368.846 200.444 369.733 200.069 370.668 199.895L380.159 198.122L420.808 184.629L445.432 167.161L454.458 181.548L426.006 196.909L383.953 205.768Z" fill="#FFB8B8"/>
<path d="M430.57 374.174L422.929 372.9L423.778 358.46H431.844L430.57 374.174Z" fill="#FFB8B8"/>
<path d="M504.727 360.071L497.332 362.379L491.586 349.107L498.785 345.47L504.727 360.071Z" fill="#FFB8B8"/>
<path d="M500.609 347.418L491.27 351.24L446.7 292.635L432.693 361.433L423.354 359.734C417.364 300.421 412.479 239.922 418.473 211.308L453.067 209.822L468.773 259.934L476.414 293.909L500.609 347.418Z" fill="#2F2E41"/>
<path d="M430.15 385.851C428.753 386.151 427.297 385.996 425.994 385.409L421.455 383.366C417.649 383.17 415.058 383.929 412.939 381.162C412.341 380.371 411.966 379.435 411.852 378.45C411.738 377.465 411.889 376.467 412.291 375.561C412.688 374.651 413.321 373.864 414.124 373.279C414.926 372.695 415.87 372.335 416.857 372.236L423.091 368.306L423.419 371.253C426.268 372.868 429.651 372.17 433.235 370.598L435.192 377.449C435.444 378.333 435.512 379.259 435.392 380.17C435.272 381.081 434.966 381.957 434.493 382.745C434.021 383.533 433.391 384.215 432.644 384.749C431.897 385.283 431.048 385.658 430.15 385.851Z" fill="#2F2E41"/>
<path d="M507.752 371.797C506.528 372.534 505.101 372.86 503.678 372.729L498.722 372.271C495.059 373.322 492.854 374.881 489.952 372.953C489.13 372.399 488.471 371.636 488.043 370.741C487.616 369.847 487.435 368.854 487.521 367.866C487.602 366.877 487.944 365.926 488.514 365.113C489.083 364.3 489.859 363.653 490.761 363.238L495.381 357.496L496.647 360.176C499.866 360.778 502.839 359.019 505.719 356.368L509.794 362.212C510.319 362.966 510.684 363.819 510.866 364.72C511.048 365.621 511.043 366.549 510.852 367.448C510.66 368.346 510.287 369.196 509.753 369.944C509.22 370.692 508.539 371.323 507.752 371.797Z" fill="#2F2E41"/>
<path d="M440.333 149.517C448.773 149.517 455.615 142.672 455.615 134.229C455.615 125.785 448.773 118.94 440.333 118.94C431.894 118.94 425.052 125.785 425.052 134.229C425.052 142.672 431.894 149.517 440.333 149.517Z" fill="#FFB8B8"/>
<path d="M459.01 166.505L439.06 162.258L436.513 145.695L450.521 142.723L459.01 166.505Z" fill="#FFB8B8"/>
<path d="M453.492 211.945H417.836L425.873 191.758C425.289 184.811 428.232 179.702 432.443 175.254L437.786 161.833C446.42 156.148 452.928 156.573 459.859 163.956C468.077 175.597 462.388 193.095 453.492 211.945Z" fill="#3DDC84"/>
<path d="M437.362 254.838L436.348 265.998C435.986 269.981 433.895 272.731 429.998 271.84C429.071 271.628 428.2 271.218 427.446 270.638C426.692 270.058 426.071 269.322 425.628 268.48C425.184 267.638 424.928 266.71 424.876 265.76C424.824 264.81 424.978 263.859 425.327 262.974L428.872 253.989L439.06 212.37L437.362 182.218H454.341L452.219 214.494L437.362 254.838Z" fill="#FFB8B8"/>
<path d="M455.614 183.067H436.088L437.457 170.323C437.547 168.119 438.457 166.028 440.009 164.462C441.561 162.895 443.643 161.965 445.845 161.855C447.012 161.796 448.179 161.97 449.278 162.366C450.377 162.762 451.387 163.372 452.249 164.16C453.112 164.949 453.809 165.902 454.301 166.962C454.793 168.022 455.069 169.169 455.115 170.337L455.614 183.067Z" fill="#3DDC84"/>
<path d="M459.246 118.509C462.418 118.509 464.989 115.936 464.989 112.762C464.989 109.588 462.418 107.016 459.246 107.016C456.074 107.016 453.502 109.588 453.502 112.762C453.502 115.936 456.074 118.509 459.246 118.509Z" fill="#2F2E41"/>
<path d="M453.327 111.355C453.422 109.897 454.068 108.53 455.135 107.532C456.201 106.534 457.608 105.981 459.069 105.984C458.95 105.969 458.832 105.951 458.711 105.943C457.192 105.846 455.696 106.357 454.553 107.364C453.409 108.37 452.712 109.789 452.614 111.309C452.517 112.83 453.026 114.327 454.032 115.471C455.037 116.616 456.455 117.314 457.974 117.413C458.095 117.42 458.214 117.417 458.334 117.418C456.885 117.234 455.561 116.505 454.631 115.378C453.7 114.252 453.234 112.813 453.327 111.355Z" fill="#2F2E41"/>
<path d="M453.295 113.809C448.172 109.558 433.48 114.961 432.532 117.82C425.605 118.764 420.36 122.808 420.36 129.997V129.997C424.478 131.685 429.162 131.477 434.225 129.997C442.297 136.578 442.85 144.851 437.941 154.352L443.98 154.473L451.465 143.528L451.823 154.63L465.666 154.352V138.442C465.711 133.152 464.494 127.928 462.116 123.202C459.959 119.01 456.611 116.562 453.295 113.809Z" fill="#2F2E41"/>
<path d="M440.405 141.919C441.922 141.919 443.152 140.197 443.152 138.072C443.152 135.947 441.922 134.225 440.405 134.225C438.888 134.225 437.658 135.947 437.658 138.072C437.658 140.197 438.888 141.919 440.405 141.919Z" fill="#FFB8B8"/>
<path d="M94.8086 142.954C94.8086 142.954 96.462 114.322 105.045 120.828C113.629 127.334 101.297 145.609 101.297 145.609L94.8086 142.954Z" fill="#FFB9B9"/>
<path d="M62.8738 227.883C62.8738 227.883 81.9408 249.299 71.2731 250.771C60.6055 252.243 56.4092 230.596 56.4092 230.596L62.8738 227.883Z" fill="#FFB9B9"/>
<path d="M37.9931 126.513C40.3862 127.143 42.5399 128.466 44.1837 130.317C45.8275 132.167 46.8881 134.463 47.2324 136.914L53.2974 180.104L61.7998 214.555C61.7998 214.555 66.051 218.383 64.3505 220.509C62.65 222.636 66.4761 231.568 66.4761 231.568L55.8481 234.97C55.8481 234.97 54.5728 226.039 52.4472 225.613C50.5791 225.239 29.6678 169.351 24.6273 155.811C23.9323 153.944 23.5391 152.883 23.5391 152.883C23.5391 152.883 24.3893 124.386 37.9931 126.513Z" fill="#575A89"/>
<path d="M39.9346 351.74L46.4626 363.314C51.5179 374.113 47.0255 376.074 34.6306 370.721L31.8052 357.055L39.9346 351.74Z" fill="#FFB9B9"/>
<path d="M43.2281 367.123C43.2281 367.123 46.3271 362.075 47.4479 362.92C48.5688 363.765 53.1918 367.426 53.1918 367.426L59.2136 373.197C59.2136 373.197 79.5586 375.349 66.6309 382.48C53.7033 389.612 46.5591 383.699 46.5591 383.699C46.5591 383.699 28.4526 384.641 28.7447 379.587C29.0368 374.533 34.8762 366.537 34.8762 366.537C34.8762 366.537 42.2359 371.473 43.2281 367.123Z" fill="#2F2E41"/>
<path d="M10.9663 220.913L17.0863 295.001C17.0863 295.001 17.2903 339.29 23.8183 347.862C30.3463 356.434 30.5503 360.721 30.5503 360.721L44.0143 353.781C44.0143 353.781 37.0783 342.218 38.5063 340.448C39.3865 339.325 40.0129 338.025 40.3423 336.637L36.6703 290.919L43.6063 211.32L10.9663 220.913Z" fill="#2F2E41"/>
<path d="M27.6943 351.74L21.9823 366.843L9.02832 361.425L15.8625 350.107L27.6943 351.74Z" fill="#FFB9B9"/>
<path d="M18.1651 361.757C18.1651 361.757 23.0236 358.719 23.6309 359.934C24.2382 361.149 26.6674 366.314 26.6674 366.314L29.4003 373.909C29.4003 373.909 46.1011 384.541 31.8295 385.149C17.5578 385.757 13.914 377.554 13.914 377.554C13.914 377.554 -2.1795 370.567 0.249728 366.313C2.67896 362.06 11.1812 357.649 11.1812 357.649C11.1812 357.649 15.4323 365.098 18.1651 361.757Z" fill="#2F2E41"/>
<path d="M62.7823 221.117L66.0463 289.286C66.0463 289.286 36.2623 350.924 32.9983 352.557C32.0257 353.059 31.1636 353.752 30.4628 354.593C29.7621 355.434 29.2369 356.407 28.9183 357.455L10.9663 352.965L19.1263 339.903L37.0783 296.226C37.0783 296.226 39.9343 295.001 40.7503 290.919C41.5663 286.837 43.1983 286.837 39.1183 286.021C35.0383 285.204 35.0383 281.122 35.0383 281.122L21.5743 219.076L62.7823 221.117Z" fill="#2F2E41"/>
<path d="M64.2038 100.457C65.6476 91.5556 59.6056 83.1688 50.7087 81.7243C41.8118 80.2799 33.429 86.3248 31.9853 95.226C30.5415 104.127 36.5835 112.514 45.4804 113.958C54.3773 115.403 62.76 109.358 64.2038 100.457Z" fill="#FFB9B9"/>
<path d="M33.6104 98.8618C33.6104 98.8618 32.3864 119.68 30.7544 121.721C29.1224 123.762 47.8904 123.354 47.8904 123.354C47.8904 123.354 46.6664 105.801 47.8904 104.168C49.1144 102.536 33.6104 98.8618 33.6104 98.8618Z" fill="#FFB9B9"/>
<path d="M64.0049 225.608C64.0049 225.608 17.9008 221.527 9.33496 225.608C9.33496 225.608 12.4883 213.904 11.6735 212.681C11.0809 211.787 12.7158 178.449 12.2026 159.218C11.9116 148.367 9.40903 137.769 16.6839 129.713C19.16 126.976 21.9218 124.679 24.837 123.557C24.837 123.557 24.0223 115.802 28.1015 115.394C28.1015 115.394 43.6088 113.759 49.3176 118.66C51.1429 120.217 52.2911 124.959 52.4127 129.046C49.5875 142.946 50.5874 158.371 53.1799 174.373C53.3386 175.389 53.5132 176.411 53.6878 177.433C56.439 193.302 60.5976 209.664 64.0049 225.608Z" fill="#575A89"/>
<path d="M39.5686 102.653C40.9487 102.57 42.2964 103.037 43.667 103.219C48.5707 103.87 53.672 100.31 54.7547 95.4813C54.8415 94.8383 55.0331 94.2138 55.3218 93.6327C56.0765 92.4 57.7953 92.1649 59.2121 92.4484C60.629 92.7318 61.9721 93.3953 63.415 93.4711C65.643 93.588 67.7819 92.2157 68.9693 90.326C70.0913 88.3765 70.5685 86.1219 70.3325 83.8847L69.2644 85.0062C68.8304 84.0876 68.6629 83.0656 68.7808 82.0564C68.2148 81.9056 67.6196 81.9027 67.0522 82.0479C66.4848 82.1932 65.9641 82.4818 65.5401 82.886C64.5983 82.9863 65.3091 81.1383 64.6094 80.4997C64.2691 80.2905 63.8636 80.2146 63.4707 80.2866C61.4672 80.3059 59.8464 78.7727 58.2676 77.5385C55.5321 75.4048 52.3332 73.945 48.9295 73.277C46.6671 72.8355 44.2614 72.7646 42.1159 73.6074C40.3839 74.3853 38.8207 75.4946 37.5145 76.873C34.1555 80.1045 31.181 83.9014 29.7836 88.3491C28.6475 91.9921 28.6153 95.8902 29.6911 99.5515C30.2542 101.453 31.9512 107.965 34.4355 108.116C37.5572 108.307 35.683 102.885 39.5686 102.653Z" fill="#2F2E41"/>
<path d="M46.3235 128.517L52.1705 129.144C52.1705 129.144 57.9101 140.284 57.4932 142.608C57.0764 144.932 56.1687 143.521 58.752 147.239C61.3353 150.957 68.6657 160.566 69.5735 161.977C70.4812 163.388 95.2279 144.498 93.6894 138.838C93.6894 138.838 101.505 144.448 104.854 145.194C104.854 145.194 79.3501 178.658 75.7961 182.94C72.2421 187.223 69.3818 186.343 64.4977 183.804C59.6135 181.265 34.9048 155.938 34.9048 155.938L46.3235 128.517Z" fill="#575A89"/>
<path opacity="0.1" d="M53.6877 177.433L33.3657 157.101L38.5084 155.423L53.1798 174.373C53.3386 175.389 53.5132 176.411 53.6877 177.433Z" fill="black"/>
</g>
<defs>
<clipPath id="clip0">
<rect width="511" height="386" fill="white"/>
</clipPath>
</defs>
</svg>
