<svg width="301" height="268" viewBox="0 0 301 268" fill="none" xmlns="http://www.w3.org/2000/svg">
<g clip-path="url(#clip0)">
<path d="M284.352 85.732C284.352 96.8866 281.877 106.068 277.583 113.934C276.166 116.525 274.558 118.991 272.773 121.308C256.989 141.914 227.645 153.192 201.123 171.461C122.836 225.385 114.356 138.977 117.892 85.732C119.318 64.2475 127.156 44.5676 139.609 29.4992C142.224 26.3301 145.049 23.3655 148.062 20.6282C162.199 7.77681 180.464 0 201.123 0C236.568 0 266.836 22.8198 278.837 54.9768C282.486 64.7626 284.357 75.1998 284.352 85.732Z" fill="#3DDC84"/>
<path d="M218.856 19.3215L139.608 29.4993C142.224 26.3301 145.049 23.3655 148.062 20.6282L218.856 19.3215Z" fill="#D0CDE1"/>
<path d="M277.583 113.934C276.166 116.525 274.557 118.991 272.773 121.308L204.891 112.593L277.583 113.934Z" fill="#D0CDE1"/>
<path d="M281.606 63.8192L166.561 47.8914L278.837 54.9768C279.915 57.8662 280.84 60.8184 281.606 63.8192Z" fill="#D0CDE1"/>
<path d="M125.695 22.8363C125.695 23.0552 125.689 23.2708 125.672 23.4833C125.582 24.8004 125.218 26.0795 124.606 27.2275C123.994 28.3754 123.15 29.3632 122.136 30.119C121.121 30.8748 119.962 31.3796 118.741 31.5965C117.521 31.8134 116.271 31.737 115.081 31.3729C113.892 31.0088 112.794 30.3662 111.867 29.4918C110.94 28.6174 110.207 27.5332 109.722 26.3183C109.237 25.1034 109.012 23.7883 109.063 22.4689C109.115 21.1494 109.441 19.8588 110.019 18.691C110.198 18.3251 110.402 17.9741 110.631 17.6412C111.626 16.1682 113.02 15.0564 114.625 14.4557C116.231 13.8549 117.97 13.7942 119.609 14.2816C121.248 14.769 122.707 15.7812 123.79 17.1816C124.873 18.582 125.528 20.3033 125.666 22.1132C125.686 22.3511 125.695 22.5921 125.695 22.8363Z" fill="#3DDC84"/>
<path d="M125.695 22.8363C125.695 23.0551 125.689 23.2708 125.671 23.4833L113.216 21.8848L125.666 22.1131C125.686 22.351 125.695 22.592 125.695 22.8363Z" fill="#D0CDE1"/>
<path d="M122.724 27.3115L111.201 28.7927C110.874 28.4035 110.58 27.9842 110.322 27.5399L122.724 27.3115Z" fill="#D0CDE1"/>
<path d="M119.455 17.4795L110.019 18.6911C110.197 18.3251 110.402 17.9742 110.631 17.6412L119.455 17.4795Z" fill="#D0CDE1"/>
<path d="M239.713 182.726C239.617 182.919 239.517 183.107 239.408 183.285C238.75 184.404 237.867 185.351 236.823 186.059C235.778 186.767 234.599 187.218 233.371 187.378C232.143 187.538 230.897 187.403 229.723 186.984C228.55 186.565 227.479 185.872 226.589 184.955C225.698 184.039 225.01 182.921 224.575 181.685C224.141 180.449 223.969 179.124 224.075 177.809C224.18 176.493 224.558 175.219 225.183 174.079C225.808 172.939 226.663 171.962 227.686 171.22C228.005 170.986 228.34 170.779 228.688 170.599C230.214 169.796 231.934 169.511 233.616 169.784C235.297 170.056 236.861 170.873 238.094 172.124C239.328 173.374 240.172 174.999 240.514 176.777C240.855 178.556 240.678 180.404 240.005 182.072C239.919 182.293 239.821 182.51 239.713 182.726Z" fill="#3DDC84"/>
<path d="M239.713 182.726C239.617 182.919 239.517 183.107 239.408 183.285L229.108 175.641L240.005 182.072C239.919 182.293 239.821 182.51 239.713 182.726Z" fill="#D0CDE1"/>
<path d="M235.123 185.192L224.295 180.735C224.177 180.227 224.101 179.71 224.068 179.188L235.123 185.192Z" fill="#D0CDE1"/>
<path d="M236.554 174.872L227.687 171.22C228.005 170.986 228.34 170.779 228.688 170.599L236.554 174.872Z" fill="#D0CDE1"/>
<path d="M298.637 29.6396C298.78 29.7963 298.917 29.9551 299.043 30.1205C299.84 31.1305 300.416 32.3175 300.729 33.5952C301.042 34.8728 301.084 36.2089 300.853 37.5061C300.621 38.8033 300.121 40.0289 299.389 41.0937C298.657 42.1585 297.712 43.0357 296.622 43.6613C295.533 44.287 294.326 44.6454 293.091 44.7103C291.855 44.7753 290.621 44.5453 289.479 44.0369C288.338 43.5286 287.316 42.7548 286.49 41.772C285.664 40.7891 285.053 39.6218 284.703 38.3552C284.592 37.96 284.509 37.5562 284.454 37.1475C284.203 35.3515 284.474 33.5165 285.23 31.8899C285.987 30.2634 287.192 28.9236 288.684 28.0512C290.176 27.1788 291.883 26.8159 293.574 27.0113C295.266 27.2067 296.86 27.9511 298.143 29.144C298.313 29.2988 298.477 29.4647 298.637 29.6396Z" fill="#3DDC84"/>
<path d="M298.637 29.6396C298.781 29.7963 298.917 29.9551 299.044 30.1205L289.081 38.259L298.143 29.144C298.314 29.2988 298.478 29.4648 298.637 29.6396Z" fill="#D0CDE1"/>
<path d="M299.437 35.0579L292.157 44.7058C291.668 44.6709 291.183 44.5901 290.708 44.4643L299.437 35.0579Z" fill="#D0CDE1"/>
<path d="M290.667 30.4548L284.703 38.3552C284.592 37.9599 284.509 37.5562 284.455 37.1475L290.667 30.4548Z" fill="#D0CDE1"/>
<path d="M142.557 193.295C142.557 193.295 160.814 194.107 160.814 198.979C160.814 203.852 140.274 198.979 140.274 198.979L142.557 193.295Z" fill="#A0616A"/>
<path d="M115.171 268L80.9386 265.564L79.4172 246.076L71.81 263.128L38.3384 258.256C39.0991 227.4 51.2706 197.355 52.0313 193.295C52.792 189.235 54.6102 172.459 54.6102 172.459C57.9345 164.932 75.3549 164.225 89.0098 164.907C94.6696 165.184 99.6903 165.703 102.786 166.077C104.833 166.32 106.042 166.499 106.042 166.499C111.497 172.5 115.011 180.677 117.172 189.812C124.961 222.722 115.171 268 115.171 268Z" fill="#2F2E41"/>
<path d="M77.1346 79.6143C87.638 79.6143 96.1526 70.5256 96.1526 59.3141C96.1526 48.1026 87.638 39.0139 77.1346 39.0139C66.6313 39.0139 58.1167 48.1026 58.1167 59.3141C58.1167 70.5256 66.6313 79.6143 77.1346 79.6143Z" fill="#A0616A"/>
<path d="M64.2027 64.186C64.2027 64.186 58.8777 89.3583 50.5098 96.6664C42.1419 103.974 83.2207 96.6664 83.2207 96.6664C83.2207 96.6664 74.092 80.4262 80.9385 73.1181C87.785 65.81 64.2027 64.186 64.2027 64.186Z" fill="#A0616A"/>
<path d="M102.999 168.123L90.3787 169.617L55.0738 173.807C55.0738 173.807 54.9065 173.328 54.6098 172.459C52.0462 164.997 39.6997 128.684 38.338 117.778C36.8166 105.598 52.7916 90.9822 52.7916 90.9822C52.7916 90.9822 68.006 87.7341 72.5703 87.7341C77.1346 87.7341 95.3919 95.0422 95.3919 95.0422L102.2 160.417L102.786 166.077L102.999 168.123Z" fill="#D0CDE1"/>
<path opacity="0.15" d="M117.171 189.812L91.5885 173.807C91.5885 173.807 91.1396 172.248 90.3789 169.617C89.9985 168.302 89.5346 166.71 89.0096 164.907C86.0581 154.79 81.1058 138.095 77.1349 125.899C71.0491 107.222 100.717 159.191 100.717 159.191L102.2 160.417L102.786 166.077C104.833 166.32 106.042 166.499 106.042 166.499C111.496 172.5 115.011 180.677 117.171 189.812Z" fill="black"/>
<path d="M83.2201 96.6663C83.2201 96.6663 75.6129 107.222 81.6986 125.899C87.7844 144.575 96.1523 173.807 96.1523 173.807L140.274 201.415L146.36 193.295L105.281 159.191C105.281 159.191 103.759 97.4783 96.1523 95.0423C88.5451 92.6063 83.2201 96.6663 83.2201 96.6663Z" fill="#D0CDE1"/>
<path d="M45.5649 167.717C45.5649 167.717 56.215 191.265 60.7793 188.829C65.3436 186.393 49.3685 162.033 49.3685 162.033L45.5649 167.717Z" fill="#A0616A"/>
<path d="M44.4238 103.162L4.10574 138.891C4.10574 138.891 -11.1086 150.259 17.038 158.379C45.1845 166.499 47.4667 171.371 47.4667 171.371C47.4667 171.371 50.5095 160.815 54.3131 162.439L21.6023 145.387L48.2274 128.335L44.4238 103.162Z" fill="#D0CDE1"/>
<path d="M28.2194 75.9758C30.3355 74.8572 35.0082 72.5997 38.9883 69.8799C38.7092 61.0318 39.73 52.9997 42.718 48.7421C44.3951 44.6772 47.9171 40.6075 50.6755 37.4026C57.4494 29.5321 72.4281 25.1389 75.0848 29.0712C95.1782 29.4947 97.2935 46.3068 97.2935 46.3068C97.189 53.3389 90.3421 53.5614 84.3442 53.3051C84.8813 58.1058 83.4499 63.0941 79.305 65.3062C71.3788 69.5365 69.0009 75.0359 72.9641 78.8433C76.9272 82.6506 84.0608 92.8033 74.5493 95.3415C65.0378 97.8796 63.8489 102.956 66.6231 105.071C69.3973 107.186 60.2821 101.264 60.2821 101.264C60.2821 101.264 58.6969 111.417 50.3743 108.878C49.6285 108.651 48.8831 108.068 48.1502 107.196C45.9025 109.833 43.8973 111.391 42.386 111.4C33.7306 111.449 34.7685 101.216 34.7685 101.216C34.7685 101.216 24.495 104.296 27.7007 103.057C30.9064 101.819 31.0437 96.5884 22.5256 91.4068C14.0075 86.2253 23.4414 78.5015 28.2194 75.9758Z" fill="#2F2E41"/>
<path d="M134.416 102.501L134.278 102.481L134.615 103.847C134.933 105.753 135.395 107.627 135.997 109.453L145.869 149.513C146.184 150.792 146.842 151.945 147.762 152.83C148.682 153.715 149.824 154.294 151.048 154.496L171.182 157.821C172.484 158.036 173.816 157.814 174.994 157.186C176.173 156.558 177.14 155.555 177.762 154.316L196.895 116.169C197.493 115.112 198.039 114.023 198.532 112.905L199.181 111.61L199.08 111.596C201.108 106.475 202.001 100.922 201.689 95.3721C201.377 89.8218 199.868 84.4235 197.28 79.598C194.692 74.7725 191.095 70.6501 186.769 67.5522C182.444 64.4543 177.506 62.4646 172.342 61.7382C167.177 61.0118 161.926 61.5683 156.996 63.3643C152.066 65.1604 147.591 68.1474 143.921 72.0927C140.25 76.0379 137.483 80.8347 135.834 86.1091C134.185 91.3836 133.7 96.9932 134.416 102.501H134.416Z" fill="#3F3D56"/>
<path d="M172.417 160.438C172.063 160.438 171.709 160.409 171.358 160.351L150.313 156.876C148.976 156.655 147.729 156.023 146.725 155.056C145.72 154.09 145.001 152.831 144.658 151.435L134.338 109.561C133.707 107.644 133.223 105.676 132.889 103.676L132.628 101.844C131.926 95.9917 132.507 90.0453 134.327 84.4742C136.147 78.9031 139.156 73.8598 143.115 69.7425C147.074 65.6251 151.875 62.5464 157.14 60.7494C162.405 58.9523 167.989 58.4862 173.451 59.3877L173.36 60.0146C167.957 59.1258 162.434 59.5972 157.232 61.3911C152.03 63.185 147.293 66.2518 143.398 70.3468C139.504 74.4418 136.559 79.4517 134.801 84.9768C133.042 90.5019 132.517 96.3893 133.268 102.169L133.469 103.54C133.8 105.523 134.281 107.474 134.906 109.375L145.232 151.273C145.547 152.55 146.204 153.701 147.122 154.585C148.041 155.469 149.182 156.047 150.404 156.249L171.449 159.724C172.749 159.938 174.079 159.715 175.255 159.089C176.432 158.462 177.398 157.461 178.02 156.224L178.544 156.523C177.949 157.706 177.065 158.694 175.987 159.383C174.908 160.073 173.674 160.437 172.417 160.438Z" fill="#D0CDE1"/>
<path d="M177.755 111.606L164.95 148.927L165.672 149.209L178.477 111.888L177.755 111.606Z" fill="#D0CDE1"/>
<path d="M156.847 108.153L156.08 108.189L157.714 147.895L158.482 147.859L156.847 108.153Z" fill="#D0CDE1"/>
<path d="M170.638 179.422L143.671 174.969C143.471 174.934 143.291 174.817 143.172 174.641C143.052 174.466 143.002 174.247 143.033 174.033C143.065 173.819 143.174 173.627 143.337 173.498C143.501 173.369 143.705 173.315 143.906 173.347L170.873 177.8C170.973 177.816 171.069 177.853 171.156 177.909C171.243 177.964 171.319 178.038 171.379 178.125C171.439 178.212 171.482 178.311 171.506 178.416C171.53 178.521 171.535 178.63 171.519 178.737C171.504 178.844 171.469 178.947 171.416 179.039C171.363 179.131 171.294 179.211 171.212 179.275C171.13 179.339 171.037 179.384 170.939 179.41C170.84 179.435 170.738 179.439 170.638 179.422Z" fill="#3F3D56"/>
<path d="M171.329 173.309L144.363 168.856C144.262 168.84 144.166 168.803 144.079 168.748C143.992 168.692 143.917 168.618 143.857 168.531C143.797 168.444 143.753 168.345 143.729 168.24C143.705 168.135 143.701 168.026 143.716 167.919C143.732 167.812 143.767 167.71 143.819 167.617C143.872 167.525 143.942 167.445 144.023 167.381C144.105 167.318 144.198 167.272 144.297 167.247C144.395 167.221 144.498 167.217 144.598 167.235L171.564 171.688C171.664 171.704 171.761 171.74 171.848 171.796C171.934 171.852 172.01 171.925 172.07 172.013C172.13 172.1 172.174 172.199 172.198 172.304C172.222 172.409 172.226 172.518 172.211 172.625C172.195 172.731 172.16 172.834 172.107 172.926C172.055 173.019 171.985 173.099 171.903 173.163C171.821 173.226 171.729 173.272 171.63 173.297C171.531 173.322 171.429 173.326 171.329 173.309Z" fill="#3F3D56"/>
<path d="M172.021 167.196L145.054 162.743C144.853 162.709 144.674 162.591 144.554 162.416C144.435 162.241 144.385 162.022 144.416 161.808C144.447 161.594 144.557 161.401 144.72 161.273C144.884 161.144 145.088 161.09 145.289 161.122L172.256 165.575C172.456 165.609 172.636 165.727 172.755 165.902C172.875 166.077 172.924 166.296 172.893 166.51C172.862 166.725 172.753 166.917 172.59 167.046C172.426 167.174 172.221 167.228 172.021 167.196H172.021Z" fill="#3F3D56"/>
<path d="M156.317 182.979C161.665 183.862 166.463 181.396 167.032 177.471L147.661 174.272C147.092 178.197 150.968 182.096 156.317 182.979Z" fill="#3F3D56"/>
<path d="M166.01 103.743C164.859 103.554 163.908 102.583 163.386 101.932C163.214 101.719 163.048 101.497 162.881 101.276C162.273 100.468 161.699 99.7055 160.9 99.3078C159.136 98.4293 157.058 99.6564 155.258 100.973L154.823 100.296C156.802 98.8483 159.109 97.5108 161.225 98.5641C162.186 99.0426 162.844 99.9166 163.48 100.762C163.642 100.977 163.804 101.192 163.969 101.399C164.512 102.075 165.594 103.171 166.754 102.918C167.243 102.766 167.697 102.509 168.09 102.163C168.389 101.925 168.705 101.712 169.035 101.527C169.705 101.184 170.454 101.06 171.189 101.171C171.925 101.282 172.613 101.623 173.167 102.15C173.365 102.35 173.552 102.561 173.728 102.783C174.074 103.204 174.4 103.601 174.825 103.745C175.453 103.96 176.117 103.576 176.821 103.171C177.546 102.754 178.296 102.321 179.147 102.428C179.175 102.431 179.203 102.435 179.23 102.44C180.744 102.69 181.442 104.477 181.837 105.811L181.104 106.058C180.567 104.245 179.914 103.343 179.057 103.243C178.448 103.166 177.835 103.52 177.186 103.893C176.372 104.362 175.53 104.847 174.592 104.527C173.963 104.314 173.55 103.811 173.15 103.324C172.992 103.125 172.825 102.935 172.648 102.756C172.207 102.343 171.662 102.076 171.081 101.989C170.5 101.901 169.908 101.996 169.376 102.262C169.082 102.429 168.8 102.62 168.533 102.833C168.056 103.248 167.503 103.551 166.908 103.722C166.612 103.786 166.308 103.794 166.01 103.743Z" fill="#D0CDE1"/>
</g>
<defs>
<clipPath id="clip0">
<rect width="301" height="268" fill="white"/>
</clipPath>
</defs>
</svg>
