<svg width="403" height="362" viewBox="0 0 403 362" fill="none" xmlns="http://www.w3.org/2000/svg">
<g clip-path="url(#clip0)">
<path d="M376.543 69.7967H72.0141C69.4872 69.7994 67.0647 70.8031 65.2779 72.5874C63.4912 74.3717 62.4862 76.791 62.4834 79.3144V239.756C62.4862 242.28 63.4912 244.699 65.2779 246.483C67.0647 248.267 69.4872 249.271 72.0141 249.274H376.543C379.069 249.271 381.492 248.267 383.279 246.483C385.065 244.699 386.07 242.28 386.073 239.756V79.3144C386.07 76.791 385.065 74.3717 383.279 72.5874C381.492 70.8031 379.069 69.7994 376.543 69.7967ZM385.166 239.756C385.164 242.039 384.254 244.228 382.638 245.843C381.021 247.457 378.829 248.365 376.543 248.367H72.0141C69.7278 248.365 67.5357 247.457 65.919 245.843C64.3023 244.228 63.3932 242.039 63.3911 239.756V79.3144C63.3932 77.0312 64.3023 74.8421 65.919 73.2276C67.5357 71.6131 69.7278 70.7052 72.0141 70.7031H376.543C378.829 70.7052 381.021 71.6131 382.638 73.2276C384.254 74.8421 385.164 77.0312 385.166 79.3144V239.756Z" fill="#3F3D56"/>
<path d="M361.566 95.7981H86.991C86.8706 95.7981 86.7552 95.7503 86.67 95.6653C86.5849 95.5803 86.5371 95.465 86.5371 95.3448C86.5371 95.2246 86.5849 95.1094 86.67 95.0244C86.7552 94.9394 86.8706 94.8916 86.991 94.8916H361.566C361.686 94.8916 361.802 94.9394 361.887 95.0244C361.972 95.1094 362.02 95.2246 362.02 95.3448C362.02 95.465 361.972 95.5803 361.887 95.6653C361.802 95.7503 361.686 95.7981 361.566 95.7981Z" fill="#3F3D56"/>
<path d="M164.597 229.785C164.477 229.785 164.362 229.737 164.276 229.652C164.191 229.567 164.144 229.452 164.144 229.332V80.2208C164.144 80.1006 164.191 79.9854 164.276 79.9004C164.362 79.8154 164.477 79.7676 164.597 79.7676C164.718 79.7676 164.833 79.8154 164.918 79.9004C165.003 79.9854 165.051 80.1006 165.051 80.2208V229.332C165.051 229.452 165.003 229.567 164.918 229.652C164.833 229.737 164.718 229.785 164.597 229.785Z" fill="#3F3D56"/>
<path d="M233.128 229.785C233.007 229.785 232.892 229.737 232.807 229.652C232.722 229.567 232.674 229.452 232.674 229.332V80.2208C232.674 80.1006 232.722 79.9854 232.807 79.9004C232.892 79.8154 233.007 79.7676 233.128 79.7676C233.248 79.7676 233.363 79.8154 233.449 79.9004C233.534 79.9854 233.581 80.1006 233.581 80.2208V229.332C233.581 229.452 233.534 229.567 233.449 229.652C233.363 229.737 233.248 229.785 233.128 229.785Z" fill="#3F3D56"/>
<path d="M301.659 229.785C301.539 229.785 301.423 229.737 301.338 229.652C301.253 229.567 301.205 229.452 301.205 229.332V80.2208C301.205 80.1006 301.253 79.9854 301.338 79.9004C301.423 79.8154 301.539 79.7676 301.659 79.7676C301.779 79.7676 301.895 79.8154 301.98 79.9004C302.065 79.9854 302.113 80.1006 302.113 80.2208V229.332C302.113 229.452 302.065 229.567 301.98 229.652C301.895 229.737 301.779 229.785 301.659 229.785Z" fill="#3F3D56"/>
<path d="M120.537 142.579H103.953C103.412 142.578 102.893 142.363 102.51 141.981C102.127 141.599 101.912 141.08 101.911 140.539V120.997C101.912 120.456 102.127 119.937 102.51 119.555C102.893 119.173 103.412 118.958 103.953 118.957H120.537C121.078 118.958 121.597 119.173 121.98 119.555C122.363 119.937 122.579 120.456 122.579 120.997V140.539C122.579 141.08 122.363 141.599 121.98 141.981C121.597 142.363 121.078 142.578 120.537 142.579Z" fill="#56CEA8"/>
<path d="M144.136 198.326H127.553C127.012 198.325 126.492 198.11 126.11 197.728C125.727 197.345 125.511 196.827 125.511 196.286V176.743C125.511 176.203 125.727 175.684 126.11 175.302C126.492 174.919 127.012 174.704 127.553 174.704H144.136C144.678 174.704 145.197 174.919 145.58 175.302C145.963 175.684 146.178 176.203 146.179 176.743V196.286C146.178 196.827 145.963 197.345 145.58 197.728C145.197 198.11 144.678 198.325 144.136 198.326Z" fill="#A7AEC1"/>
<path d="M197.69 154.363H181.107C180.565 154.362 180.046 154.147 179.663 153.765C179.28 153.382 179.065 152.864 179.064 152.323V132.78C179.065 132.24 179.28 131.721 179.663 131.339C180.046 130.957 180.565 130.741 181.107 130.741H197.69C198.232 130.741 198.751 130.957 199.134 131.339C199.516 131.721 199.732 132.24 199.732 132.78V152.323C199.732 152.864 199.516 153.382 199.134 153.765C198.751 154.147 198.232 154.362 197.69 154.363Z" fill="#A7AEC1"/>
<path d="M267.128 133.061H250.544C250.003 133.061 249.484 132.846 249.101 132.463C248.718 132.081 248.503 131.562 248.502 131.022V111.479C248.503 110.938 248.718 110.42 249.101 110.037C249.484 109.655 250.003 109.44 250.544 109.439H267.128C267.669 109.44 268.188 109.655 268.571 110.037C268.954 110.42 269.169 110.938 269.17 111.479V131.022C269.169 131.562 268.954 132.081 268.571 132.463C268.188 132.846 267.669 133.061 267.128 133.061Z" fill="#A7AEC1"/>
<path d="M331.12 133.061H314.536C313.995 133.061 313.476 132.846 313.093 132.463C312.71 132.081 312.495 131.562 312.494 131.022V111.479C312.495 110.938 312.71 110.42 313.093 110.037C313.476 109.655 313.995 109.44 314.536 109.439H331.12C331.661 109.44 332.18 109.655 332.563 110.037C332.946 110.42 333.162 110.938 333.162 111.479V131.022C333.162 131.562 332.946 132.081 332.563 132.463C332.18 132.846 331.661 133.061 331.12 133.061Z" fill="#A7AEC1"/>
<path d="M360.62 138.5H344.036C343.495 138.499 342.976 138.284 342.593 137.902C342.21 137.52 341.995 137.001 341.994 136.46V116.918C341.995 116.377 342.21 115.858 342.593 115.476C342.976 115.094 343.495 114.879 344.036 114.878H360.62C361.161 114.879 361.68 115.094 362.063 115.476C362.446 115.858 362.662 116.377 362.662 116.918V136.46C362.662 137.001 362.446 137.52 362.063 137.902C361.68 138.284 361.161 138.499 360.62 138.5Z" fill="#56CEA8"/>
<path d="M347.458 173.398H330.874C330.333 173.398 329.814 173.183 329.431 172.8C329.048 172.418 328.833 171.899 328.832 171.359V151.816C328.833 151.275 329.048 150.757 329.431 150.374C329.814 149.992 330.333 149.777 330.874 149.776H347.458C347.999 149.777 348.518 149.992 348.901 150.374C349.284 150.757 349.499 151.275 349.5 151.816V171.359C349.499 171.899 349.284 172.418 348.901 172.8C348.518 173.183 347.999 173.398 347.458 173.398Z" fill="#E6E6E6"/>
<path d="M291.181 166.147H274.598C274.056 166.146 273.537 165.931 273.154 165.549C272.772 165.166 272.556 164.648 272.556 164.107V144.564C272.556 144.024 272.772 143.505 273.154 143.123C273.537 142.74 274.056 142.525 274.598 142.525H291.181C291.723 142.525 292.242 142.74 292.625 143.123C293.008 143.505 293.223 144.024 293.224 144.564V164.107C293.223 164.648 293.008 165.166 292.625 165.549C292.242 165.931 291.723 166.146 291.181 166.147Z" fill="#56CEA8"/>
<path d="M258.959 173.398H242.375C241.834 173.398 241.315 173.183 240.932 172.8C240.549 172.418 240.334 171.899 240.333 171.359V151.816C240.334 151.275 240.549 150.757 240.932 150.374C241.315 149.992 241.834 149.777 242.375 149.776H258.959C259.5 149.777 260.019 149.992 260.402 150.374C260.785 150.757 261 151.275 261.001 151.816V171.359C261 171.899 260.785 172.418 260.402 172.8C260.019 173.183 259.5 173.398 258.959 173.398Z" fill="#E6E6E6"/>
<path d="M189.52 204.218H172.937C172.395 204.217 171.876 204.002 171.493 203.62C171.11 203.237 170.895 202.719 170.895 202.178V182.635C170.895 182.094 171.11 181.576 171.493 181.194C171.876 180.811 172.395 180.596 172.937 180.596H189.52C190.062 180.596 190.581 180.811 190.964 181.194C191.347 181.576 191.562 182.094 191.563 182.635V202.178C191.562 202.719 191.347 203.237 190.964 203.62C190.581 204.002 190.062 204.217 189.52 204.218Z" fill="#E6E6E6"/>
<path d="M152.305 142.579H135.722C135.181 142.578 134.661 142.363 134.279 141.981C133.896 141.599 133.68 141.08 133.68 140.539V120.997C133.68 120.456 133.896 119.937 134.279 119.555C134.661 119.173 135.181 118.958 135.722 118.957H152.305C152.847 118.958 153.366 119.173 153.749 119.555C154.132 119.937 154.347 120.456 154.348 120.997V140.539C154.347 141.08 154.132 141.599 153.749 141.981C153.366 142.363 152.847 142.578 152.305 142.579Z" fill="#E6E6E6"/>
<path d="M138.729 88.3789H112.86C112.379 88.3789 111.917 88.1879 111.577 87.8479C111.236 87.5079 111.045 87.0468 111.045 86.566C111.045 86.0852 111.236 85.6241 111.577 85.2841C111.917 84.9441 112.379 84.7531 112.86 84.7531H138.729C139.211 84.7531 139.673 84.9441 140.013 85.2841C140.353 85.6241 140.545 86.0852 140.545 86.566C140.545 87.0468 140.353 87.5079 140.013 87.8479C139.673 88.1879 139.211 88.3789 138.729 88.3789Z" fill="#CCCCCC"/>
<path d="M211.798 88.3789H185.929C185.447 88.3789 184.985 88.1879 184.645 87.8479C184.305 87.5079 184.113 87.0468 184.113 86.566C184.113 86.0852 184.305 85.6241 184.645 85.2841C184.985 84.9441 185.447 84.7531 185.929 84.7531H211.798C212.279 84.7531 212.741 84.9441 213.081 85.2841C213.422 85.6241 213.613 86.0852 213.613 86.566C213.613 87.0468 213.422 87.5079 213.081 87.8479C212.741 88.1879 212.279 88.3789 211.798 88.3789Z" fill="#CCCCCC"/>
<path d="M280.328 88.3789H254.459C253.977 88.3789 253.516 88.1879 253.175 87.8479C252.835 87.5079 252.644 87.0468 252.644 86.566C252.644 86.0852 252.835 85.6241 253.175 85.2841C253.516 84.9441 253.977 84.7531 254.459 84.7531H280.328C280.809 84.7531 281.271 84.9441 281.612 85.2841C281.952 85.6241 282.143 86.0852 282.143 86.566C282.143 87.0468 281.952 87.5079 281.612 87.8479C281.271 88.1879 280.809 88.3789 280.328 88.3789Z" fill="#CCCCCC"/>
<path d="M344.319 88.3789H318.45C317.969 88.3789 317.507 88.1879 317.166 87.8479C316.826 87.5079 316.635 87.0468 316.635 86.566C316.635 86.0852 316.826 85.6241 317.166 85.2841C317.507 84.9441 317.969 84.7531 318.45 84.7531H344.319C344.801 84.7531 345.262 84.9441 345.603 85.2841C345.943 85.6241 346.135 86.0852 346.135 86.566C346.135 87.0468 345.943 87.5079 345.603 87.8479C345.262 88.1879 344.801 88.3789 344.319 88.3789Z" fill="#CCCCCC"/>
<path d="M80.7878 221.125C80.1238 221.06 79.4821 220.85 78.908 220.511C78.3338 220.171 77.8412 219.71 77.4647 219.16C77.0883 218.61 76.8372 217.984 76.7291 217.327C76.6211 216.669 76.6587 215.996 76.8393 215.355L65.2061 204.54L71.3569 202.982L82.7963 212.248C83.8552 212.622 84.7397 213.372 85.2823 214.354C85.8249 215.336 85.9878 216.483 85.7402 217.577C85.4927 218.671 84.8518 219.637 83.939 220.291C83.0262 220.944 81.905 221.241 80.7878 221.125Z" fill="#FFB8B8"/>
<path d="M96.8515 301.056H102.416L105.062 279.624H96.8506L96.8515 301.056Z" fill="#FFB8B8"/>
<path d="M113.146 306.215L95.6596 306.216L95.6593 299.469L106.39 299.468C108.182 299.468 109.9 300.179 111.167 301.444C112.435 302.71 113.146 304.426 113.146 306.215L113.146 306.215Z" fill="#2B2B2B"/>
<path d="M58.7021 297.044L64.0793 298.474L72.1581 278.443L64.2227 276.334L58.7021 297.044Z" fill="#FFB8B8"/>
<path d="M73.1191 306.217L56.2207 301.725L57.9585 295.205L68.3281 297.961C70.0596 298.422 71.5372 299.55 72.4357 301.098C73.3342 302.646 73.58 304.488 73.1191 306.217Z" fill="#2B2B2B"/>
<path d="M103.913 296.998H95.4225C94.8862 297 94.3686 296.802 93.9717 296.441C93.5747 296.081 93.3271 295.586 93.2776 295.053L88.1235 241.603C88.0858 241.211 87.9127 240.844 87.634 240.566C87.3553 240.287 86.9883 240.114 86.5958 240.075C86.2032 240.037 85.8096 240.136 85.4822 240.356C85.1548 240.575 84.9139 240.902 84.8009 241.279L69.8362 291.224C69.6779 291.755 69.3205 292.204 68.8386 292.479C68.3566 292.753 67.7872 292.83 67.2493 292.695L59.351 290.723C59.0754 290.654 58.8161 290.532 58.588 290.363C58.36 290.193 58.1677 289.981 58.0223 289.737C57.8769 289.493 57.7812 289.223 57.7407 288.942C57.7002 288.661 57.7158 288.375 57.7865 288.1C57.9155 287.597 70.6805 237.779 70.7919 237.267C73.6842 215.98 77.1444 210.276 79.0033 207.212C79.1572 206.958 79.2986 206.725 79.4259 206.505C79.5853 206.229 80.5662 203.493 81.1884 201.717C81.2693 201.428 81.4092 201.159 81.5994 200.926C81.7896 200.694 82.026 200.504 82.2936 200.367C90.1045 196.378 99.2434 199.139 101.858 200.081C102.292 200.233 102.664 200.522 102.919 200.904C110.764 212.72 106.914 281.347 106.063 294.985C106.027 295.53 105.786 296.042 105.386 296.416C104.987 296.79 104.46 296.998 103.913 296.998Z" fill="#2B2B2B"/>
<path d="M82.0023 161.613C88.1585 161.613 93.1492 156.63 93.1492 150.482C93.1492 144.334 88.1585 139.35 82.0023 139.35C75.8461 139.35 70.8555 144.334 70.8555 150.482C70.8555 156.63 75.8461 161.613 82.0023 161.613Z" fill="#FFB8B8"/>
<path d="M80.821 203.878L80.7409 203.8C80.5906 203.655 65.7388 189.125 67.6609 175.689C68.4829 169.943 73.1389 166.271 81.1254 165.07C84.0594 164.635 87.0522 165.272 89.5535 166.864C92.0549 168.456 93.8967 170.896 94.7405 173.736L102.637 200.696L80.821 203.878Z" fill="#CCCCCC"/>
<path d="M73.2191 214.213L62.6363 203.711C61.9126 202.989 61.3873 202.093 61.1107 201.109C60.8341 200.126 60.8156 199.088 61.057 198.095L66.1802 177.283C66.3337 176.66 66.6137 176.074 67.0029 175.563C67.3921 175.052 67.8822 174.626 68.4429 174.311C69.0037 173.997 69.623 173.801 70.2627 173.735C70.9024 173.669 71.5488 173.735 72.1618 173.929C73.3304 174.305 74.3064 175.121 74.8833 176.203C75.4601 177.286 75.5924 178.55 75.2521 179.728L69.8584 198.036L78.5805 207.389L73.2191 214.213Z" fill="#CCCCCC"/>
<path d="M129.982 178.372C129.703 178.977 129.293 179.513 128.784 179.943C128.274 180.373 127.676 180.686 127.032 180.86C126.388 181.034 125.713 181.065 125.056 180.951C124.399 180.837 123.775 180.58 123.227 180.198L109.1 187.511L109.724 181.299L122.249 173.558C122.951 172.683 123.951 172.095 125.058 171.907C126.165 171.718 127.303 171.942 128.257 172.535C129.21 173.128 129.912 174.05 130.23 175.126C130.548 176.202 130.46 177.357 129.982 178.372H129.982Z" fill="#FFB8B8"/>
<path d="M121.684 182.996L107.912 188.94C106.995 189.332 105.993 189.483 105.001 189.376C104.009 189.27 103.061 188.911 102.249 188.333L84.7357 175.802C84.213 175.428 83.7727 174.951 83.4421 174.4C83.1115 173.849 82.8976 173.236 82.8137 172.6C82.7297 171.963 82.7775 171.316 82.954 170.698C83.1306 170.081 83.4321 169.506 83.84 169.01C84.6239 168.066 85.7448 167.464 86.9655 167.331C88.1861 167.199 89.4105 167.546 90.3792 168.299L105.396 180.102L117.332 175.49L121.684 182.996Z" fill="#CCCCCC"/>
<path d="M83.8499 154.049C85.2251 152.328 87.7942 152.236 89.6831 151.101C92.1574 149.614 93.1803 146.292 92.383 143.52C91.5856 140.748 89.2342 138.588 86.5382 137.555C83.8422 136.522 80.8427 136.51 77.9987 137.009C73.7643 137.752 69.5953 139.726 67.0128 143.159C64.4302 146.591 63.773 151.619 66.1135 155.22C67.1892 156.876 68.8498 158.242 69.2793 160.168C69.8431 162.697 68.0669 165.136 66.164 166.897C63.9961 168.903 61.5089 170.583 59.6096 172.844C57.7103 175.106 56.4438 178.195 57.3105 181.017C58.0366 183.381 60.1497 185.123 62.4668 185.995C64.7839 186.867 67.3075 186.994 69.7833 187.042C72.1874 187.089 74.7409 187.03 76.7661 185.736C78.9342 184.35 80.0918 181.721 80.1773 179.152C80.2628 176.583 79.4031 174.066 78.2509 171.767C77.5641 170.397 76.7656 169.069 76.3093 167.606C75.8529 166.143 75.7739 164.483 76.5047 163.136C77.2729 161.72 78.8271 160.866 80.4096 160.555C80.4918 160.539 80.5788 160.525 80.6698 160.512C81.1201 160.454 81.5538 160.305 81.9448 160.074C82.3358 159.844 82.6759 159.536 82.9446 159.171C83.2133 158.805 83.405 158.389 83.508 157.948C83.611 157.506 83.6233 157.048 83.5441 156.602C83.3638 155.598 83.3794 154.637 83.8499 154.049Z" fill="#2B2B2B"/>
<path d="M232.471 301.531H226.907L224.26 280.099L232.472 280.099L232.471 301.531Z" fill="#A0616A"/>
<path d="M222.933 299.943H233.664V306.69H216.177C216.177 305.804 216.352 304.927 216.691 304.108C217.031 303.29 217.528 302.546 218.156 301.919C218.783 301.293 219.528 300.796 220.348 300.457C221.167 300.118 222.046 299.943 222.933 299.943Z" fill="#2B2B2B"/>
<path d="M272.843 295.237L267.782 297.545L256.457 279.149L263.927 275.742L272.843 295.237Z" fill="#A0616A"/>
<path d="M263.506 297.75L273.267 293.298L276.074 299.435L260.167 306.691C259.799 305.885 259.593 305.014 259.561 304.129C259.529 303.243 259.672 302.36 259.982 301.53C260.293 300.7 260.763 299.939 261.368 299.29C261.972 298.641 262.699 298.118 263.506 297.75Z" fill="#2B2B2B"/>
<path d="M256.64 229.267C257.173 228.866 257.612 228.354 257.925 227.766C258.238 227.177 258.418 226.528 258.453 225.862C258.488 225.197 258.376 224.532 258.125 223.915C257.875 223.297 257.492 222.742 257.003 222.288L263.544 207.468L255.235 208.874L250.298 222.732C249.589 223.602 249.224 224.702 249.273 225.823C249.322 226.943 249.78 228.007 250.562 228.813C251.344 229.618 252.394 230.109 253.515 230.193C254.635 230.277 255.747 229.947 256.64 229.267Z" fill="#A0616A"/>
<path d="M232.117 295.88H226.801C226.286 295.878 225.79 295.682 225.412 295.332C225.035 294.981 224.804 294.501 224.764 293.988L221.866 216.686C221.844 216.39 221.888 216.093 221.993 215.815C222.099 215.538 222.264 215.286 222.476 215.079C222.689 214.871 222.945 214.713 223.226 214.615C223.506 214.516 223.805 214.48 224.101 214.509L254.842 217.769C255.34 217.818 255.803 218.047 256.143 218.415C256.483 218.782 256.676 219.261 256.686 219.76L257.33 253.859C257.333 254.044 257.369 254.227 257.436 254.4L270.046 287.056C270.144 287.308 270.19 287.577 270.182 287.848C270.174 288.118 270.113 288.384 270.001 288.63C269.89 288.877 269.73 289.098 269.532 289.283C269.334 289.467 269.101 289.61 268.847 289.703L263.46 291.685C262.992 291.857 262.478 291.852 262.013 291.672C261.548 291.491 261.166 291.147 260.938 290.704L245.447 260.624C245.363 260.461 245.301 260.286 245.264 260.106L242.617 247.373C242.541 247.004 242.335 246.674 242.037 246.443C241.738 246.212 241.367 246.094 240.99 246.111C240.613 246.128 240.254 246.279 239.978 246.536C239.702 246.793 239.527 247.14 239.484 247.515L234.146 294.072C234.089 294.57 233.851 295.029 233.476 295.362C233.102 295.696 232.618 295.88 232.117 295.88Z" fill="#2B2B2B"/>
<path d="M234.763 156.244C240.919 156.244 245.91 151.261 245.91 145.113C245.91 138.965 240.919 133.981 234.763 133.981C228.607 133.981 223.616 138.965 223.616 145.113C223.616 151.261 228.607 156.244 234.763 156.244Z" fill="#A0616A"/>
<path d="M242.408 223.755C234.849 223.672 227.47 221.439 221.135 217.32L221.026 217.245L221.038 217.114L225.301 167.524C225.448 165.841 226.2 164.269 227.418 163.097C228.636 161.926 230.238 161.234 231.927 161.151C237.453 160.897 244.876 161.217 248.849 164.172C254.854 168.638 257.748 175.364 256.789 182.624C254.801 197.679 257.053 217.989 257.317 220.255L257.336 220.418L257.186 220.487C252.557 222.637 247.513 223.753 242.408 223.755Z" fill="#A7AEC1"/>
<path d="M257.265 220.339C256.951 220.338 256.64 220.273 256.352 220.146C256.065 220.02 255.807 219.835 255.594 219.604L253.156 216.947C252.893 216.659 252.708 216.307 252.62 215.926C252.532 215.546 252.543 215.149 252.653 214.774L258.213 195.982L249.753 178.241C249.358 177.41 249.261 176.469 249.479 175.576C249.671 174.792 250.096 174.084 250.699 173.547C251.302 173.009 252.054 172.666 252.856 172.564C253.658 172.462 254.472 172.604 255.191 172.974C255.91 173.343 256.499 173.921 256.883 174.632L268.362 193.233C268.829 193.987 269.102 194.845 269.159 195.73C269.216 196.615 269.055 197.5 268.689 198.308L259.336 219.005C259.182 219.347 258.945 219.645 258.646 219.873C258.348 220.101 257.997 220.251 257.626 220.31C257.507 220.329 257.386 220.339 257.265 220.339Z" fill="#A7AEC1"/>
<path d="M178.694 184.441C179.23 184.839 179.846 185.114 180.499 185.248C181.153 185.383 181.828 185.372 182.477 185.217C183.126 185.063 183.733 184.768 184.255 184.354C184.778 183.939 185.203 183.416 185.501 182.82L201.584 184.903L197.888 177.339L183.182 176.521C182.146 176.087 180.987 176.048 179.924 176.411C178.861 176.774 177.968 177.514 177.415 178.49C176.862 179.467 176.687 180.612 176.922 181.708C177.158 182.805 177.789 183.777 178.694 184.441V184.441Z" fill="#A0616A"/>
<path d="M214.145 188.572C213.865 188.572 213.585 188.553 213.308 188.514L188.006 185.01C187.592 184.953 187.2 184.794 186.863 184.548C186.526 184.302 186.256 183.976 186.077 183.6C186.019 183.478 185.971 183.353 185.932 183.224H185.932C185.834 182.889 185.807 182.538 185.852 182.192C185.897 181.847 186.013 181.514 186.193 181.215L188.287 177.749C188.512 177.378 188.829 177.072 189.207 176.858C189.585 176.645 190.012 176.533 190.446 176.531H190.449L212.504 176.556L228.976 161.819C229.742 161.135 230.721 160.735 231.747 160.686C232.649 160.644 233.542 160.876 234.308 161.352C235.075 161.827 235.679 162.524 236.042 163.349C236.404 164.174 236.507 165.09 236.338 165.975C236.169 166.86 235.735 167.673 235.093 168.307L218.657 186.562C218.089 187.195 217.393 187.701 216.615 188.047C215.838 188.393 214.996 188.572 214.145 188.572Z" fill="#A7AEC1"/>
<path d="M236.031 155.016C237.049 152.661 237.911 149.526 235.957 147.861C234.824 146.896 233.192 146.894 231.707 146.774C227.524 146.435 223.218 144.513 221.173 140.853C219.128 137.193 220.27 131.75 224.128 130.099C226.728 128.986 229.709 129.744 232.43 130.515L240.602 132.829C243.03 133.517 245.58 134.275 247.328 136.093C250.116 138.992 249.907 143.894 247.693 147.25C245.479 150.607 242.144 154.108 238.327 155.383L236.031 155.016Z" fill="#2B2B2B"/>
</g>
<defs>
<clipPath id="clip0">
<rect width="372.912" height="262.422" fill="white" transform="translate(13.1611 44.4161)"/>
</clipPath>
</defs>
</svg>
