<svg width="525" height="491" viewBox="0 0 525 491" fill="none" xmlns="http://www.w3.org/2000/svg">
<g clip-path="url(#clip0)">
<path d="M418.016 348.747C418.016 348.747 482.946 352.104 467.823 372.543C452.699 392.983 412.96 360.553 412.96 360.553L418.016 348.747Z" fill="#FFB8B8"/>
<path d="M298.362 154.061L311.578 157.365C311.578 157.365 319.287 180.493 324.794 201.419C330.301 222.344 341.314 285.121 341.314 285.121L426.698 344.96L416.515 367.742L302.768 322.912L277.436 223.446L298.362 154.061Z" fill="#6E7199"/>
<path opacity="0.2" d="M310.797 195.115L305.871 298.266L316.15 328.934L286.04 306.854L310.797 195.115Z" fill="black"/>
<path d="M328.649 378.184C328.649 378.184 342.966 416.731 345.169 443.164C347.372 469.596 349.574 490.521 349.574 490.521H282.393L269.176 470.697V490.521H190.981C190.981 490.521 168.954 418.934 177.765 410.123C186.576 401.313 270.278 363.867 270.278 363.867L328.649 378.184Z" fill="#6E7199"/>
<path d="M244.396 112.21C267.51 112.21 286.247 93.4728 286.247 70.3591C286.247 47.2454 267.51 28.5081 244.396 28.5081C221.282 28.5081 202.545 47.2454 202.545 70.3591C202.545 93.4728 221.282 112.21 244.396 112.21Z" fill="#FFB8B8"/>
<path d="M212.457 87.981L209.153 136.44L251.004 192.609L271.93 139.744C271.93 139.744 253.207 127.629 264.22 102.298L212.457 87.981Z" fill="#FFB8B8"/>
<path d="M334.704 387.545C334.704 397.461 307.17 412.877 307.17 412.877V418.384L296.157 423.891L271.929 375.434L265.325 428.293C265.325 428.293 216.862 436.008 201.446 428.293C186.023 420.585 178.315 423.891 156.288 416.183C134.262 408.475 165.1 304.945 165.1 304.945L143.074 145.251L191.195 121.19L193.731 119.919L200.348 118.701L210.492 116.827L244.395 139.744L247.125 154.063L248.805 162.875L257.61 152.959L264.261 131.086L311.58 157.368L298.365 263.093C298.365 263.093 334.704 377.636 334.704 387.545Z" fill="#F6A5B6"/>
<path d="M172.809 421.687C172.809 421.687 223.471 462.437 199.241 470.146C175.012 477.856 161.795 428.295 161.795 428.295L172.809 421.687Z" fill="#FFB8B8"/>
<path d="M154.086 147.453L143.073 145.25C143.073 145.25 126.552 154.061 125.451 171.683C124.35 189.304 110.032 312.655 110.032 312.655L156.289 437.106L193.734 422.789L157.39 306.047L184.924 204.723L154.086 147.453Z" fill="#6E7199"/>
<path d="M249.24 181.063C251.457 181.063 253.254 179.265 253.254 177.048C253.254 174.831 251.457 173.034 249.24 173.034C247.022 173.034 245.225 174.831 245.225 177.048C245.225 179.265 247.022 181.063 249.24 181.063Z" fill="#2F2E41"/>
<path d="M249.24 207.158C251.457 207.158 253.254 205.36 253.254 203.143C253.254 200.926 251.457 199.129 249.24 199.129C247.022 199.129 245.225 200.926 245.225 203.143C245.225 205.36 247.022 207.158 249.24 207.158Z" fill="#2F2E41"/>
<path d="M271.989 379.117C274.206 379.117 276.004 377.319 276.004 375.102C276.004 372.885 274.206 371.088 271.989 371.088C269.772 371.088 267.974 372.885 267.974 375.102C267.974 377.319 269.772 379.117 271.989 379.117Z" fill="#2F2E41"/>
<path d="M209.062 27.4849L201.325 24.3876C201.325 24.3876 217.501 6.57868 240.007 8.12733L233.678 1.15857C233.678 1.15857 249.15 -5.03579 263.217 11.2245C270.611 19.7722 279.166 29.8195 284.499 41.1377H292.785L289.327 48.7517L301.429 56.3656L289.007 54.998C289.747 59.1674 289.861 63.4241 289.344 67.6271C288.811 71.8314 286.666 75.6642 283.361 78.3166C283.361 78.3166 273.766 58.4569 273.766 55.3596V63.1027C273.766 63.1027 266.03 56.134 266.03 51.4882L261.81 56.9083H233.678L237.897 49.9396L221.721 52.2625L228.051 43.7451L203.006 78.9163C203.006 78.9163 188.666 39.0993 209.062 27.4849Z" fill="#2F2E41"/>
<path d="M457.93 323.54C494.884 323.54 524.84 293.584 524.84 256.63C524.84 219.677 494.884 189.72 457.93 189.72C420.977 189.72 391.02 219.677 391.02 256.63C391.02 293.584 420.977 323.54 457.93 323.54Z" fill="#3B3763"/>
<path opacity="0.1" d="M457.93 314.173C489.71 314.173 515.473 288.41 515.473 256.63C515.473 224.85 489.71 199.087 457.93 199.087C426.15 199.087 400.388 224.85 400.388 256.63C400.388 288.41 426.15 314.173 457.93 314.173Z" fill="#057BE8"/>
<path d="M455.173 290.586V282.211C450.939 282.128 446.56 280.635 444.005 278.562L445.757 273.006C448.792 275.281 452.474 276.53 456.268 276.572C461.45 276.572 464.954 273.172 464.954 268.445C464.954 263.885 462.107 261.065 456.706 258.578C449.26 255.261 444.662 251.446 444.662 244.232C444.662 237.349 448.968 232.125 455.684 230.882V222.506H460.21V230.55C463.584 230.596 466.876 231.603 469.699 233.452L467.874 238.925C465.166 237.072 461.958 236.088 458.677 236.106C453.056 236.106 450.939 239.92 450.939 243.237C450.939 247.549 453.64 249.705 459.991 252.69C467.509 256.173 471.305 260.485 471.305 267.865C471.305 274.416 467.29 280.552 459.772 281.961V290.586H455.173Z" fill="#F6A5B6"/>
<path opacity="0.2" d="M167.278 337.808L194.039 421.401L172.628 334.418L167.278 337.808Z" fill="black"/>
<path d="M30.8409 174.503H13.8547C13.1144 174.502 12.4046 174.208 11.8811 173.685C11.3576 173.161 11.0631 172.451 11.0623 171.711V147.293C11.0631 146.553 11.3576 145.843 11.8811 145.32C12.4046 144.796 13.1144 144.502 13.8547 144.501H30.8409C31.5813 144.502 32.2911 144.796 32.8146 145.32C33.338 145.843 33.6325 146.553 33.6333 147.293V171.711C33.6325 172.451 33.338 173.161 32.8146 173.685C32.2911 174.208 31.5813 174.502 30.8409 174.503ZM13.8547 145.839C13.4692 145.84 13.0996 145.993 12.827 146.266C12.5543 146.538 12.401 146.908 12.4005 147.293V171.711C12.401 172.096 12.5543 172.466 12.827 172.739C13.0996 173.011 13.4692 173.165 13.8547 173.165H30.8409C31.2265 173.165 31.5961 173.011 31.8687 172.739C32.1413 172.466 32.2947 172.096 32.2951 171.711V147.293C32.2947 146.908 32.1413 146.538 31.8687 146.266C31.5961 145.993 31.2265 145.84 30.8409 145.839H13.8547Z" fill="#3B3763"/>
<path d="M61.8669 174.504H46.5272C45.5686 174.503 44.6496 174.121 43.9718 173.443C43.294 172.766 42.9127 171.847 42.9115 170.888V121.576C42.9127 120.617 43.294 119.698 43.9718 119.02C44.6496 118.343 45.5686 117.961 46.5272 117.96H61.8669C62.8254 117.961 63.7445 118.343 64.4223 119.02C65.1001 119.698 65.4814 120.617 65.4825 121.576V170.888C65.4814 171.847 65.1001 172.766 64.4223 173.443C63.7445 174.121 62.8254 174.503 61.8669 174.504ZM46.5272 119.298C45.9234 119.299 45.3445 119.539 44.9175 119.966C44.4906 120.393 44.2504 120.972 44.2497 121.576V170.888C44.2504 171.492 44.4906 172.071 44.9175 172.498C45.3445 172.925 45.9234 173.165 46.5272 173.165H61.8669C62.4707 173.165 63.0496 172.925 63.4765 172.498C63.9035 172.071 64.1437 171.492 64.1443 170.888V121.576C64.1437 120.972 63.9035 120.393 63.4765 119.966C63.0496 119.539 62.4707 119.299 61.8669 119.298L46.5272 119.298Z" fill="#3B3763"/>
<path d="M93.1238 174.503H78.9688C77.8531 174.502 76.7835 174.058 75.9947 173.27C75.2058 172.481 74.762 171.411 74.7608 170.295V97.7504C74.762 96.6347 75.2058 95.5651 75.9947 94.7763C76.7835 93.9874 77.8531 93.5436 78.9688 93.5424H93.1238C94.2394 93.5436 95.309 93.9874 96.0979 94.7763C96.8867 95.5651 97.3305 96.6347 97.3318 97.7504V170.295C97.3305 171.411 96.8867 172.481 96.0979 173.27C95.309 174.058 94.2394 174.502 93.1238 174.503ZM78.9688 94.8806C78.2079 94.8814 77.4785 95.1841 76.9405 95.7221C76.4025 96.2601 76.0998 96.9895 76.099 97.7504V170.295C76.0998 171.056 76.4025 171.786 76.9405 172.324C77.4785 172.862 78.2079 173.164 78.9688 173.165H93.1238C93.8846 173.164 94.6141 172.862 95.1521 172.324C95.6901 171.786 95.9927 171.056 95.9936 170.295V97.7504C95.9927 96.9895 95.6901 96.2601 95.1521 95.7221C94.6141 95.1841 93.8846 94.8814 93.1238 94.8806H78.9688Z" fill="#3B3763"/>
<path d="M28.7177 149.152H15.9781V169.854H28.7177V149.152Z" fill="#F6A5B6"/>
<path d="M60.5669 122.876H47.8272V169.853H60.5669V122.876Z" fill="#F6A5B6"/>
<path d="M92.416 98.4583H79.6764V169.853H92.416V98.4583Z" fill="#F6A5B6"/>
<path d="M483.759 97.5572H394.769C394.681 97.5572 394.594 97.5399 394.513 97.5063C394.432 97.4727 394.358 97.4234 394.296 97.3612C394.233 97.2991 394.184 97.2253 394.151 97.1441C394.117 97.063 394.1 96.9759 394.1 96.8881V6.5596C394.1 6.38215 394.17 6.21196 394.296 6.08648C394.421 5.961 394.591 5.8905 394.769 5.8905C394.946 5.8905 395.116 5.961 395.242 6.08648C395.367 6.21196 395.438 6.38215 395.438 6.5596V96.219H483.759C483.937 96.219 484.107 96.2895 484.232 96.4149C484.358 96.5404 484.428 96.7106 484.428 96.8881C484.428 97.0655 484.358 97.2357 484.232 97.3612C484.107 97.4867 483.937 97.5572 483.759 97.5572Z" fill="#3B3763"/>
<path d="M106.387 183.871H0.669062C0.581188 183.871 0.494172 183.854 0.412983 183.82C0.331794 183.786 0.258021 183.737 0.195885 183.675C0.133749 183.613 0.0844641 183.539 0.0508468 183.458C0.0172295 183.377 -6.09805e-05 183.29 -3.81243e-05 183.202V78.1532C-3.81243e-05 77.9758 0.0704556 77.8056 0.195936 77.6801C0.321417 77.5546 0.491605 77.4841 0.669062 77.4841C0.846518 77.4841 1.01671 77.5546 1.14219 77.6801C1.26767 77.8056 1.33816 77.9758 1.33816 78.1532V182.533H106.387C106.564 182.533 106.734 182.603 106.86 182.729C106.985 182.854 107.056 183.024 107.056 183.202C107.056 183.379 106.985 183.55 106.86 183.675C106.734 183.8 106.564 183.871 106.387 183.871Z" fill="#3B3763"/>
<path d="M425.479 89.1714H408.493C407.753 89.1706 407.043 88.8762 406.519 88.3527C405.996 87.8292 405.701 87.1194 405.701 86.379V61.9614C405.701 61.2211 405.996 60.5112 406.519 59.9877C407.043 59.4642 407.753 59.1698 408.493 59.1691H425.479C426.22 59.17 426.929 59.4644 427.453 59.9879C427.976 60.5114 428.271 61.2212 428.272 61.9614V86.3791C428.271 87.1193 427.976 87.8291 427.453 88.3525C426.929 88.876 426.22 89.1705 425.479 89.1714ZM408.493 60.5073C408.108 60.5077 407.738 60.6611 407.465 60.9337C407.193 61.2063 407.039 61.5759 407.039 61.9614V86.3791C407.039 86.7646 407.193 87.1342 407.465 87.4068C407.738 87.6794 408.108 87.8328 408.493 87.8332H425.479C425.865 87.8328 426.234 87.6794 426.507 87.4068C426.78 87.1341 426.933 86.7646 426.933 86.3791V61.9614C426.933 61.576 426.78 61.2064 426.507 60.9337C426.234 60.6611 425.865 60.5077 425.479 60.5073H408.493Z" fill="#3B3763"/>
<path d="M460.265 89.1716H444.631C443.712 89.1705 442.83 88.8047 442.18 88.1544C441.53 87.5041 441.164 86.6225 441.163 85.7029V41.4757C441.164 40.5561 441.53 39.6745 442.18 39.0243C442.83 38.3741 443.712 38.0083 444.631 38.0073H460.265C461.185 38.0083 462.067 38.3741 462.717 39.0243C463.367 39.6745 463.733 40.5561 463.734 41.4757V85.7029C463.733 86.6225 463.367 87.5041 462.717 88.1544C462.067 88.8047 461.185 89.1705 460.265 89.1716ZM444.631 39.3455C444.066 39.3461 443.525 39.5707 443.126 39.9701C442.726 40.3694 442.502 40.9109 442.501 41.4757V85.7029C442.502 86.2677 442.726 86.8093 443.125 87.2087C443.525 87.6081 444.066 87.8328 444.631 87.8334H460.265C460.83 87.8328 461.372 87.6081 461.771 87.2087C462.17 86.8093 462.395 86.2677 462.396 85.7029V41.4757C462.395 40.9109 462.17 40.3694 461.771 39.9701C461.372 39.5708 460.83 39.3461 460.265 39.3455H444.631Z" fill="#3B3763"/>
<path d="M423.05 64.051H410.311V84.753H423.05V64.051Z" fill="#F6A5B6"/>
<path d="M458.818 43.5619H446.079V83.6167H458.818V43.5619Z" fill="#F6A5B6"/>
<path d="M416.849 52.0583C420.175 52.0583 422.871 49.3622 422.871 46.0364C422.871 42.7106 420.175 40.0145 416.849 40.0145C413.523 40.0145 410.827 42.7106 410.827 46.0364C410.827 49.3622 413.523 52.0583 416.849 52.0583Z" fill="#F6A5B6"/>
<path d="M452.311 29.3091C455.637 29.3091 458.333 26.613 458.333 23.2872C458.333 19.9614 455.637 17.2653 452.311 17.2653C448.986 17.2653 446.289 19.9614 446.289 23.2872C446.289 26.613 448.986 29.3091 452.311 29.3091Z" fill="#F6A5B6"/>
</g>
<defs>
<clipPath id="clip0">
<rect width="524.84" height="490.856" fill="white"/>
</clipPath>
</defs>
</svg>
