<svg width="107" height="120" viewBox="0 0 107 120" fill="none" xmlns="http://www.w3.org/2000/svg">
<path d="M35.0715 85.4634H31.6667V116.58C31.6667 116.58 53.6429 124.275 75 116.58V85.4634H35.0715Z" fill="#3F3D56"/>
<path d="M53.0556 88.9756C64.8683 88.9756 74.4445 87.5342 74.4445 85.7561C74.4445 83.978 64.8683 82.5366 53.0556 82.5366C41.2428 82.5366 31.6667 83.978 31.6667 85.7561C31.6667 87.5342 41.2428 88.9756 53.0556 88.9756Z" fill="#3F3D56"/>
<path opacity="0.1" d="M53.0556 88.9756C64.8683 88.9756 74.4445 87.5342 74.4445 85.7561C74.4445 83.978 64.8683 82.5366 53.0556 82.5366C41.2428 82.5366 31.6667 83.978 31.6667 85.7561C31.6667 87.5342 41.2428 88.9756 53.0556 88.9756Z" fill="black"/>
<path d="M77.8338 49.0938C72.5002 70.1076 54.2316 83.1219 54.2316 83.1219C54.2316 83.1219 44.6104 62.0663 49.944 41.0525C55.2775 20.0387 73.5461 7.02438 73.5461 7.02438C73.5461 7.02438 83.1673 28.0801 77.8338 49.0938Z" fill="#3F3D56"/>
<path d="M28.8329 49.0938C34.1664 70.1076 52.435 83.1219 52.435 83.1219C52.435 83.1219 62.0562 62.0663 56.7227 41.0525C51.3891 20.0387 33.1205 7.02438 33.1205 7.02438C33.1205 7.02438 23.4993 28.0801 28.8329 49.0938Z" fill="#F1607F"/>
<path d="M36.8069 44.5698C51.5345 59.7644 53.3333 83.122 53.3333 83.122C53.3333 83.122 31.2541 81.8443 16.5265 66.6497C1.79887 51.4551 0 28.0976 0 28.0976C0 28.0976 22.0793 29.3752 36.8069 44.5698Z" fill="#3F3D56"/>
<path d="M69.8598 44.5698C55.1322 59.7644 53.3333 83.122 53.3333 83.122C53.3333 83.122 75.4126 81.8443 90.1402 66.6497C104.868 51.4551 106.667 28.0976 106.667 28.0976C106.667 28.0976 84.5874 29.3752 69.8598 44.5698Z" fill="#3F3D56"/>
<path d="M53.3333 14.0488C57.322 14.0488 60.5555 10.9039 60.5555 7.02439C60.5555 3.14493 57.322 0 53.3333 0C49.3446 0 46.1111 3.14493 46.1111 7.02439C46.1111 10.9039 49.3446 14.0488 53.3333 14.0488Z" fill="#F1607F"/>
<path d="M12.9168 58.0182C13.386 59.7963 15.0163 60.8781 15.0163 60.8781C15.0163 60.8781 15.8858 59.0769 15.4166 57.2988C14.9473 55.5208 13.317 54.439 13.317 54.439C13.317 54.439 12.4475 56.2401 12.9168 58.0182Z" fill="#F1607F"/>
<path d="M21.8274 68.391C21.3281 70.169 22.1515 72 22.1515 72C22.1515 72 23.7844 70.9481 24.2837 69.17C24.783 67.3919 23.9596 65.561 23.9596 65.561C23.9596 65.561 22.3267 66.6129 21.8274 68.391Z" fill="#F1607F"/>
</svg>
