<svg width="430" height="295" viewBox="0 0 430 295" fill="none" xmlns="http://www.w3.org/2000/svg">
<rect x="0.437988" y="0.935608" width="429.562" height="291.058" fill="white"/>
<path d="M422.675 0.856873H6.41764C4.83215 0.858315 3.31202 1.48836 2.19092 2.60868C1.06983 3.72899 0.439381 5.24803 0.437988 6.83237V288.695C0.439379 290.279 1.06983 291.798 2.19092 292.918C3.31202 294.039 4.83215 294.669 6.41764 294.67H422.675C423.54 294.67 424.394 294.483 425.179 294.121C425.964 293.759 426.661 293.231 427.222 292.573C427.269 292.522 427.313 292.467 427.352 292.409C427.709 291.973 427.998 291.485 428.209 290.963C428.51 290.245 428.664 289.473 428.662 288.695V6.83241C428.66 5.24695 428.029 3.72702 426.906 2.60656C425.784 1.48611 424.262 0.856783 422.675 0.856873V0.856873ZM426.954 288.695C426.955 289.529 426.709 290.344 426.248 291.038C425.838 291.65 425.282 292.149 424.63 292.491C424.025 292.803 423.355 292.965 422.675 292.964H6.41764C5.28498 292.963 4.1991 292.512 3.39818 291.712C2.59727 290.912 2.14672 289.827 2.14534 288.695V6.83241C2.14671 5.70057 2.59727 4.61546 3.39818 3.81512C4.1991 3.01479 5.28498 2.56455 6.41764 2.56317H422.675C423.809 2.56303 424.896 3.01257 425.699 3.81303C426.501 4.6135 426.953 5.69946 426.954 6.83241V288.695Z" fill="#3F3D56"/>
<path d="M427.804 24.8063H1.29004V26.5145H427.804V24.8063Z" fill="#3F3D56"/>
<path d="M15.8208 18.7935C18.6532 18.7935 20.9492 16.4991 20.9492 13.6688C20.9492 10.8385 18.6532 8.54407 15.8208 8.54407C12.9885 8.54407 10.6924 10.8385 10.6924 13.6688C10.6924 16.4991 12.9885 18.7935 15.8208 18.7935Z" fill="#3F3D56"/>
<path d="M30.565 18.7935C33.3973 18.7935 35.6934 16.4991 35.6934 13.6688C35.6934 10.8385 33.3973 8.54407 30.565 8.54407C27.7326 8.54407 25.4365 10.8385 25.4365 13.6688C25.4365 16.4991 27.7326 18.7935 30.565 18.7935Z" fill="#3F3D56"/>
<path d="M45.3091 18.7935C48.1414 18.7935 50.4375 16.4991 50.4375 13.6688C50.4375 10.8385 48.1414 8.54407 45.3091 8.54407C42.4767 8.54407 40.1807 10.8385 40.1807 13.6688C40.1807 16.4991 42.4767 18.7935 45.3091 18.7935Z" fill="#3F3D56"/>
<path d="M190.378 170.028C185.249 166.692 182.698 158.938 183.955 151.847C185.212 144.756 189.945 138.648 195.618 136.014C198.378 134.771 201.404 134.233 204.424 134.447C207.443 134.662 210.362 135.623 212.918 137.243C218.121 140.422 225.48 142.164 227.95 148.524C229.849 153.412 227.441 163.338 224.886 168.086C222.677 172.189 218.48 174.066 214.536 174.882C210.174 175.771 205.671 175.713 201.333 174.713C196.995 173.713 192.922 171.793 189.39 169.084L190.378 170.028Z" fill="#2F2E41"/>
<path d="M187.703 207.69L183.602 214.755L183.06 215.687L182.272 217.058H170.182L170.998 215.687L173.11 212.131L178.034 203.825L183.609 206.052L187.703 207.69Z" fill="#FFB8B8"/>
<path d="M169.276 217.057L167.068 215.687L166.794 215.516L180.653 190.277C181.249 189.185 182.056 188.222 183.027 187.443C183.998 186.664 185.114 186.086 186.311 185.741C187.821 185.291 189.421 185.233 190.96 185.57C191.858 185.759 192.723 186.083 193.525 186.529C193.855 186.71 194.173 186.911 194.478 187.132C195.65 187.953 196.613 189.037 197.29 190.298C198.095 191.773 198.493 193.437 198.442 195.117C198.392 196.797 197.895 198.433 197.002 199.857L191.66 208.389L187.092 215.687L186.235 217.057H169.276V217.057Z" fill="#575A89"/>
<path d="M204.884 178.985C214.186 178.985 221.727 171.45 221.727 162.155C221.727 152.859 214.186 145.324 204.884 145.324C195.582 145.324 188.041 152.859 188.041 162.155C188.041 171.45 195.582 178.985 204.884 178.985Z" fill="#FFB8B8"/>
<path d="M221.792 217.057H183.931L184.103 216.571C184.007 216.276 183.918 215.982 183.835 215.687C183.746 215.379 183.671 215.063 183.602 214.755C182.987 211.886 182.989 208.92 183.609 206.052C185.701 195.787 194.046 187.447 194.046 187.447C194.19 187.338 194.334 187.235 194.478 187.132C195.72 186.224 197.067 185.469 198.49 184.884C204.689 182.315 211.19 183.349 215.559 184.679C217.08 185.138 218.567 185.704 220.009 186.371C220.517 186.611 220.791 186.762 220.791 186.762L221.223 199.926L221.744 215.687L221.792 217.057Z" fill="#CCCCCC"/>
<path d="M239.307 215.687L236.413 200.981L233.492 186.152C233.37 185.54 233.065 184.978 232.619 184.542C232.172 184.105 231.604 183.814 230.988 183.706L224.871 182.65L219.18 181.671C218.631 181.572 218.065 181.625 217.544 181.824C217.023 182.023 216.567 182.361 216.224 182.801C215.796 183.334 215.562 183.996 215.559 184.679C215.559 185.101 215.645 185.518 215.812 185.905C218.782 192.827 218.837 203.784 218.082 215.687C218.048 216.139 218.021 216.598 217.986 217.057H239.581L239.307 215.687Z" fill="#575A89"/>
<path d="M198.49 184.884C198.364 184.386 198.116 183.926 197.768 183.547C197.421 183.168 196.984 182.881 196.498 182.713C196.011 182.544 195.491 182.499 194.983 182.581C194.475 182.664 193.995 182.871 193.587 183.185L190.961 185.57L180.208 195.355C179.873 195.656 179.61 196.028 179.44 196.445C178.226 199.343 175.86 205.065 173.11 212.13C172.664 213.282 172.205 214.467 171.732 215.687C171.567 216.139 171.389 216.598 171.21 217.057H188.931C189.075 216.598 189.219 216.139 189.363 215.687C190.151 213.199 190.919 210.76 191.66 208.389C193.827 201.502 195.781 195.245 197.29 190.298C197.708 188.927 198.09 187.662 198.435 186.502C198.596 185.977 198.615 185.419 198.49 184.884Z" fill="#575A89"/>
<path d="M243.284 217.058H244.429L244.272 216.674L243.853 215.687L237.4 200.385L236.413 200.981L228.485 205.771L232.552 215.687L233.114 217.058H239.581H243.284Z" fill="#FFB8B8"/>
<path d="M236.742 188.249C235.869 185.965 234.146 184.107 231.933 183.064C229.721 182.02 227.191 181.872 224.871 182.65C224.575 182.749 224.284 182.863 224 182.993C222.376 183.717 220.991 184.889 220.009 186.371C219.609 186.963 219.279 187.6 219.029 188.27C218.584 189.431 218.373 190.669 218.41 191.912C218.446 193.156 218.729 194.379 219.241 195.513L221.223 199.926L228.314 215.687L228.931 217.057H243.284L244.272 216.674L246.836 215.687L247.193 215.55L236.742 188.249Z" fill="#575A89"/>
<path d="M218.113 142.824C218.7 143 219.328 142.978 219.901 142.76C220.474 142.543 220.96 142.143 221.282 141.622C221.588 141.091 221.767 140.498 221.808 139.887C221.848 139.276 221.747 138.664 221.514 138.098C221.036 136.967 220.283 135.975 219.323 135.21C218.233 134.224 216.906 133.537 215.471 133.217C214.754 133.063 214.012 133.064 213.296 133.222C212.58 133.379 211.906 133.688 211.32 134.128C210.745 134.583 210.318 135.2 210.095 135.898C209.872 136.597 209.862 137.346 210.068 138.05C210.504 139.314 211.685 140.16 212.865 140.791C215.206 142.04 217.787 142.773 220.434 142.941L218.113 142.824Z" fill="#2F2E41"/>
<path d="M221.389 161.652C218.681 162.025 219.029 160.648 217.944 158.14C216.86 155.633 215.408 152.656 212.687 152.403C210.456 152.194 208.618 153.976 206.812 155.299C203.591 157.658 199.251 158.812 195.518 157.397C191.784 155.982 189.19 151.536 190.607 147.806C191.048 146.776 191.695 145.847 192.51 145.078C193.325 144.308 194.289 143.714 195.343 143.332C197.457 142.581 199.703 142.269 201.942 142.416C206.921 142.575 211.806 143.824 216.249 146.076C219.316 147.633 222.302 149.861 223.465 153.096C224.629 156.331 225.394 160.877 222.068 161.752L221.389 161.652Z" fill="#2F2E41"/>
<path d="M216.728 133.926C215.39 131.598 216.495 128.404 218.685 126.848C220.875 125.293 223.812 125.14 226.426 125.764C229.01 126.415 231.378 127.733 233.292 129.586C235.206 131.44 236.598 133.764 237.33 136.325C238.439 140.396 237.779 144.769 238.718 148.883C239.219 151.076 240.164 153.143 241.494 154.957C242.824 156.772 244.512 158.295 246.454 159.433C248.395 160.57 250.549 161.299 252.783 161.574C255.017 161.848 257.284 161.663 259.444 161.029C262.257 160.204 265.115 158.197 265.392 155.28C265.683 158.63 264.919 161.986 263.206 164.88C261.494 167.773 258.918 170.059 255.841 171.418C252.217 172.928 248.174 173.027 244.248 172.926C241.69 172.861 239.073 172.707 236.713 171.718C235.08 170.974 233.612 169.911 232.395 168.593C231.179 167.274 230.237 165.727 229.627 164.04C228.425 160.65 228.101 157.012 228.684 153.463C229.07 150.703 229.838 147.997 230.053 145.218C230.268 142.439 229.86 139.472 228.146 137.273C226.431 135.074 223.156 133.951 220.719 135.306C219.739 135.851 218.949 136.74 217.884 137.092C216.82 137.443 215.311 136.826 215.408 135.71L216.728 133.926Z" fill="#2F2E41"/>
<path d="M331.665 217.058L331.795 215.687L335.663 175.476C336.931 174.484 338.293 173.619 339.73 172.892C347.691 168.884 355.372 170.802 359.528 172.461C360.629 172.892 361.693 173.412 362.71 174.016L364.973 215.687L365.048 217.058H331.665Z" fill="#A7AEC1"/>
<path d="M349.778 164.774C359.08 164.774 366.621 157.238 366.621 147.943C366.621 138.648 359.08 131.112 349.778 131.112C340.476 131.112 332.935 138.648 332.935 147.943C332.935 157.238 340.476 164.774 349.778 164.774Z" fill="#FFB8B8"/>
<path d="M363.444 158.205C364.696 156.887 365.527 155.226 365.832 153.434C366.137 151.642 365.901 149.8 365.155 148.143C364.409 146.485 363.187 145.086 361.643 144.125C360.1 143.163 358.305 142.682 356.487 142.743C354.158 142.821 351.963 143.773 349.74 144.472C346.372 145.617 342.778 145.941 339.259 145.416C335.718 144.866 332.524 142.981 330.332 140.149C328.249 137.287 327.599 133.317 329.071 130.098C330.77 126.381 334.74 124.334 338.475 122.67C339.981 121.916 341.59 121.388 343.25 121.102C344.081 120.964 344.932 120.999 345.75 121.205C346.567 121.411 347.333 121.783 348 122.299C349.049 123.201 349.664 124.556 350.806 125.338C352.092 126.218 353.762 126.195 355.312 126.35C358.805 126.699 362.108 128.103 364.783 130.374C367.457 132.645 369.377 135.676 370.286 139.064C371.194 142.452 371.049 146.036 369.87 149.339C368.691 152.642 366.533 155.509 363.684 157.557L363.444 158.205Z" fill="#2F2E41"/>
<path d="M342.239 179.855L339.73 172.892L339.573 172.458C339.499 172.253 339.378 172.066 339.222 171.914C339.065 171.761 338.875 171.647 338.667 171.578C338.459 171.51 338.238 171.489 338.022 171.519C337.805 171.548 337.597 171.627 337.415 171.748L334.566 173.646C334.566 173.646 316.29 173.646 314.823 184.604C314.802 184.775 314.775 184.967 314.754 185.172C314.753 185.182 314.751 185.191 314.747 185.2C314.562 185.919 311.113 199.241 308.15 215.687C308.068 216.139 307.986 216.598 307.903 217.058H347.616V217.057C348.908 200.536 348.185 185.176 342.239 179.855Z" fill="#575A89"/>
<path d="M389.612 215.687C387.445 198.816 384.345 185.172 384.345 185.172C384.318 184.967 384.291 184.775 384.27 184.603C382.809 173.646 364.534 173.646 364.534 173.646L361.686 171.749C361.504 171.627 361.296 171.549 361.079 171.52C360.862 171.49 360.641 171.511 360.433 171.579C360.225 171.648 360.036 171.763 359.879 171.916C359.722 172.068 359.602 172.255 359.527 172.461L356.86 179.855C350.914 185.176 350.191 200.536 351.483 217.057L351.484 217.058H389.783C389.728 216.598 389.667 216.139 389.612 215.687Z" fill="#575A89"/>
<path d="M67.9347 177.271L63.8613 215.687L63.7173 217.058H52.6973C52.8275 216.612 52.9578 216.153 53.0951 215.687C56.2222 204.969 60.4807 189.325 60.021 185.179C59.3011 178.71 64.3415 176.552 64.3415 176.552L64.6569 176.613L67.9347 177.271Z" fill="#A7AEC1"/>
<path d="M85.7073 165.413C95.0094 165.413 102.55 157.878 102.55 148.583C102.55 139.287 95.0094 131.752 85.7073 131.752C76.4051 131.752 68.8643 139.287 68.8643 148.583C68.8643 157.878 76.4051 165.413 85.7073 165.413Z" fill="#A0616A"/>
<path d="M107.51 208.903C106.661 210.467 105.965 212.111 105.432 213.809C105.233 214.412 105.041 215.043 104.863 215.687C104.733 216.132 104.616 216.591 104.5 217.057H60.0757C60.1376 216.605 60.1922 216.146 60.2542 215.687C62.5241 197.767 64.3617 179.58 64.6567 176.613C64.6841 176.332 64.6979 176.188 64.6979 176.188C91.319 162.168 110.747 180.505 110.747 180.505C110.747 180.505 110.774 180.636 110.815 180.889C111.241 183.452 113.407 198.418 107.51 208.903Z" fill="#A7AEC1"/>
<path d="M105.432 213.809L102.47 207.464L103.19 182.301L110.815 180.889L111.083 180.841C115.025 183.131 118.075 186.686 119.737 190.928C121.218 194.629 124.037 205.757 126.416 215.687C126.526 216.146 126.636 216.605 126.746 217.057H106.948L106.31 215.687L105.432 213.809Z" fill="#A7AEC1"/>
<path d="M132.527 103.989H35.1349C33.0459 103.992 31.0432 104.822 29.5661 106.298C28.0889 107.774 27.2579 109.775 27.2554 111.863V209.184C27.2579 211.271 28.0889 213.273 29.5661 214.749C31.0432 216.225 33.0459 217.055 35.1349 217.057H132.527C134.616 217.056 136.62 216.226 138.097 214.75C139.574 213.273 140.405 211.272 140.406 209.184V111.863C140.405 109.775 139.574 107.773 138.097 106.297C136.62 104.82 134.616 103.99 132.527 103.989ZM139.035 209.184C139.033 210.908 138.347 212.561 137.127 213.781C135.907 215 134.252 215.685 132.527 215.687H35.1349C33.4097 215.684 31.7559 214.998 30.536 213.779C29.3161 212.56 28.6295 210.908 28.6269 209.184V111.863C28.6295 110.139 29.3161 108.486 30.536 107.267C31.7559 106.048 33.4097 105.362 35.1349 105.36H132.527C134.252 105.361 135.907 106.047 137.127 107.266C138.347 108.485 139.033 110.138 139.035 111.863V209.184ZM63.8613 215.687L63.7172 217.057H104.5C104.616 216.591 104.733 216.132 104.863 215.687H63.8613Z" fill="#3F3D56"/>
<path d="M263.24 103.989H165.848C163.759 103.992 161.756 104.822 160.279 106.298C158.802 107.774 157.971 109.775 157.968 111.863V209.184C157.971 211.271 158.802 213.273 160.279 214.749C161.756 216.225 163.759 217.055 165.848 217.057H263.24C265.329 217.056 267.332 216.226 268.81 214.75C270.287 213.273 271.118 211.272 271.119 209.184V111.863C271.118 109.775 270.287 107.773 268.81 106.297C267.332 104.82 265.329 103.99 263.24 103.989V103.989ZM269.747 209.184C269.746 210.908 269.06 212.561 267.84 213.781C266.62 215 264.965 215.685 263.24 215.687H165.848C164.123 215.684 162.469 214.998 161.249 213.779C160.029 212.56 159.342 210.908 159.34 209.184V111.863C159.342 110.139 160.029 108.486 161.249 107.267C162.469 106.048 164.123 105.362 165.848 105.36H263.24C264.965 105.361 266.62 106.047 267.84 107.266C269.06 108.485 269.746 110.138 269.747 111.863V209.184ZM183.835 215.687C183.918 215.982 184.007 216.276 184.103 216.571L183.931 217.057H217.986C218.021 216.598 218.048 216.139 218.082 215.687H183.835Z" fill="#3F3D56"/>
<path d="M393.96 103.989H296.568C294.479 103.99 292.475 104.82 290.998 106.297C289.52 107.773 288.69 109.775 288.688 111.863V209.184C288.69 211.272 289.52 213.274 290.998 214.75C292.475 216.226 294.479 217.056 296.568 217.057H393.96C396.049 217.055 398.052 216.225 399.529 214.748C401.006 213.272 401.837 211.271 401.839 209.184V111.863C401.837 109.775 401.006 107.774 399.529 106.298C398.052 104.822 396.049 103.992 393.96 103.989ZM400.468 209.184C400.465 210.908 399.779 212.56 398.559 213.779C397.339 214.998 395.685 215.684 393.96 215.687H296.568C294.842 215.686 293.188 215 291.968 213.781C290.748 212.561 290.061 210.908 290.06 209.184V111.863C290.061 110.138 290.748 108.485 291.968 107.266C293.188 106.047 294.842 105.361 296.568 105.36H393.96C395.685 105.362 397.339 106.048 398.559 107.267C399.779 108.486 400.465 110.139 400.468 111.863V209.184ZM347.719 215.687C347.685 216.139 347.65 216.598 347.616 217.057H377.165C377.22 216.605 377.282 216.146 377.337 215.687H347.719Z" fill="#3F3D56"/>
<path d="M327.698 256.803H101.396C99.9412 256.803 98.5459 256.225 97.517 255.197C96.4882 254.169 95.9102 252.775 95.9102 251.321C95.9102 249.867 96.4882 248.472 97.517 247.444C98.5459 246.416 99.9412 245.839 101.396 245.839H327.698C329.153 245.839 330.548 246.416 331.577 247.444C332.606 248.472 333.184 249.867 333.184 251.321C333.184 252.775 332.606 254.169 331.577 255.197C330.548 256.225 329.153 256.803 327.698 256.803Z" fill="#3DDC84"/>
<path d="M264.265 75.208H164.829C163.374 75.208 161.979 74.6304 160.95 73.6023C159.921 72.5742 159.343 71.1798 159.343 69.7259C159.343 68.2719 159.921 66.8776 160.95 65.8495C161.979 64.8214 163.374 64.2438 164.829 64.2438H264.265C265.72 64.2438 267.115 64.8214 268.144 65.8495C269.173 66.8776 269.751 68.2719 269.751 69.7259C269.751 71.1798 269.173 72.5742 268.144 73.6023C267.115 74.6304 265.72 75.208 264.265 75.208Z" fill="#3DDC84"/>
<path d="M93.7636 163.246C94.334 163.809 95.0881 164.146 95.8875 164.197C96.6869 164.249 97.4779 164.01 98.1154 163.525C102.085 160.585 105.57 156.925 107.632 152.46C109.995 147.345 110.259 141.068 107.41 136.206C105.001 132.096 100.748 129.443 96.5091 127.266C94.8632 126.337 93.0903 125.655 91.2466 125.239C89.3833 124.828 87.4333 125.143 85.7938 126.118C84.9917 126.621 84.3598 127.353 83.9805 128.22C83.6012 129.087 83.4921 130.048 83.6675 130.977C81.6314 128.656 79.0234 126.906 76.1022 125.903C74.2628 125.183 72.2485 125.037 70.3245 125.484C67.6345 126.246 65.6707 128.635 64.5966 131.214C63.728 133.177 63.428 135.343 63.7309 137.467C63.8903 138.524 64.2699 139.536 64.8453 140.437C65.4206 141.338 66.1789 142.109 67.071 142.699C69.295 144.074 72.1323 143.975 74.6864 143.413C77.2405 142.851 79.7129 141.874 82.3165 141.627C84.9201 141.38 87.8193 142.029 89.4038 144.108C90.5196 145.572 90.8062 147.485 91.0566 149.308L92.3594 158.792C92.466 160.164 92.8166 161.506 93.3949 162.754C93.495 162.934 93.6191 163.1 93.7636 163.246Z" fill="#2F2E41"/>
</svg>
