<svg width="293" height="195" viewBox="0 0 293 195" fill="none" xmlns="http://www.w3.org/2000/svg">
<g clip-path="url(#clip0)">
<path d="M39.9943 189.731L45.3481 189.73L47.8943 169.113L39.9924 169.114L39.9943 189.731Z" fill="#FFB8B8"/>
<path d="M55.6738 194.693L38.8473 194.695L38.8468 188.204L49.1721 188.203C50.8963 188.203 52.55 188.886 53.7693 190.104C54.9886 191.321 55.6737 192.972 55.6738 194.693Z" fill="#2F2E41"/>
<path d="M83.0793 189.731L88.4331 189.73L90.9793 169.113L83.0774 169.114L83.0793 189.731Z" fill="#FFB8B8"/>
<path d="M98.759 194.693L81.9325 194.695L81.932 188.204L92.2573 188.203C93.9815 188.203 95.6352 188.886 96.8545 190.104C98.0738 191.321 98.7589 192.972 98.759 194.693Z" fill="#2F2E41"/>
<path d="M38.8362 182.138C38.3476 182.138 37.874 181.969 37.4968 181.659C37.1195 181.349 36.8621 180.917 36.7687 180.438L33.3307 137.308C29.6295 100.784 35.9646 87.9165 36.0291 87.791L36.0986 87.6552L36.251 87.664L65.9668 89.3715L72.2747 109.972L88.9488 132.339C91.5868 135.892 92.9882 140.208 92.9392 144.63L92.5172 177.241C92.5075 177.768 92.3012 178.273 91.9384 178.656C91.5757 179.039 91.0828 179.274 90.5562 179.313L81.8514 179.917C81.3072 179.957 80.7689 179.784 80.3505 179.434C79.9321 179.084 79.6665 178.585 79.6098 178.044L77.4532 142.638C77.4469 142.601 77.4294 142.567 77.4032 142.54L52.6737 119.529C52.5921 119.442 52.4898 119.378 52.3764 119.341C52.263 119.305 52.1422 119.298 52.0253 119.321C51.9084 119.344 51.7993 119.396 51.7082 119.473C51.6171 119.549 51.5471 119.648 51.5047 119.759L49.0107 179.698C49.0383 179.983 49.0066 180.27 48.9177 180.542C48.8289 180.814 48.6846 181.065 48.4942 181.279C48.3005 181.498 48.0635 181.674 47.7981 181.796C47.5327 181.919 47.2447 181.985 46.9524 181.99L38.8752 182.137C38.8621 182.138 38.8491 182.138 38.8362 182.138Z" fill="#2F2E41"/>
<path d="M59.7273 43.1672C66.999 39.1985 69.6714 30.096 65.6964 22.8361C61.7213 15.5761 52.604 12.908 45.3323 16.8766C38.0606 20.8453 35.3882 29.9478 39.3633 37.2078C43.3383 44.4677 52.4556 47.1358 59.7273 43.1672Z" fill="#2F2E41"/>
<path d="M116.985 59.4288C116.426 59.1137 115.804 58.9249 115.164 58.8757C114.524 58.8264 113.881 58.9178 113.28 59.1435C112.679 59.3692 112.135 59.7237 111.687 60.1821C111.238 60.6404 110.895 61.1914 110.683 61.7962L100.663 62.3569L99.5195 68.5189L113.658 67.5287C114.699 67.8176 115.81 67.7152 116.781 67.2407C117.752 66.7662 118.515 65.9526 118.925 64.9542C119.335 63.9558 119.364 62.8419 119.007 61.8235C118.649 60.8051 117.93 59.953 116.985 59.4288Z" fill="#FFB8B8"/>
<path d="M34.1922 110.273C34.4699 109.695 34.6172 109.063 34.6238 108.422C34.6305 107.781 34.4963 107.147 34.2307 106.563C33.9651 105.979 33.5746 105.461 33.0867 105.045C32.5987 104.628 32.0253 104.323 31.4066 104.152L30.1792 94.2084L23.9448 93.4792L25.8757 107.497C25.6562 108.554 25.8327 109.654 26.3715 110.59C26.9103 111.525 27.7742 112.231 28.7993 112.573C29.8244 112.915 30.9396 112.87 31.9336 112.446C32.9275 112.022 33.7312 111.249 34.1923 110.273H34.1922Z" fill="#FFB8B8"/>
<path d="M51.8727 46.0914C58.2253 46.0914 63.375 40.9499 63.375 34.6076C63.375 28.2653 58.2253 23.1239 51.8727 23.1239C45.5201 23.1239 40.3704 28.2653 40.3704 34.6076C40.3704 40.9499 45.5201 46.0914 51.8727 46.0914Z" fill="#FFB8B8"/>
<path d="M54.1406 93.4295C48.0243 93.4295 42.899 92.9352 37.816 91.1209C35.7234 90.3742 35.4998 89.4482 35.2055 88.29C34.7436 86.4723 34.4904 64.9746 36.8749 57.84C37.522 55.9222 38.7 54.2268 40.2726 52.9501C41.8452 51.6734 43.7479 50.8677 45.7604 50.6264C48.0309 50.3593 54.8225 49.4009 58.6688 48.8534C60.5587 48.5697 62.4845 49.0406 64.0291 50.1643C65.0487 50.9286 65.578 51.7496 65.6026 52.6046L66.6477 88.9523C66.6818 90.0027 66.3057 91.0252 65.5988 91.8039C64.8918 92.5826 63.9095 93.0566 62.8591 93.1256C60.5088 93.2843 57.454 93.4295 54.1406 93.4295Z" fill="#56CEA8"/>
<path d="M23.717 102.332C23.4334 102.331 23.1528 102.274 22.8919 102.163C22.631 102.052 22.3952 101.89 22.1986 101.686C22.0021 101.482 21.8488 101.24 21.7479 100.976C21.6471 100.711 21.6007 100.429 21.6117 100.146L21.977 83.4755C22.057 81.4153 22.6732 79.4114 23.7647 77.6611L37.9386 54.9614C38.3827 54.2542 38.9996 53.6714 39.7314 53.2677C40.4632 52.8639 41.2858 52.6526 42.1218 52.6536C42.9589 52.6537 43.7819 52.869 44.5115 53.2786C45.2412 53.6882 45.8529 54.2785 46.2879 54.9925C46.7398 55.7303 46.9885 56.5741 47.0088 57.4387C47.0292 58.3033 46.8205 59.1578 46.4038 59.916L32.6551 84.8631L33.6015 100.175C33.6065 100.454 33.5559 100.731 33.4525 100.99C33.3491 101.25 33.1951 101.486 32.9994 101.685C32.8038 101.885 32.5703 102.043 32.3126 102.151C32.055 102.26 31.7784 102.316 31.4988 102.316L23.7217 102.332L23.717 102.332Z" fill="#56CEA8"/>
<path d="M107.717 71.002C107.529 71.2139 107.3 71.3854 107.044 71.506C106.787 71.6265 106.509 71.6936 106.225 71.7032L89.5391 72.5867C87.4766 72.6605 85.4305 72.1969 83.602 71.2416L59.8693 58.8281C59.1283 58.4405 58.4988 57.8703 58.0406 57.1716C57.5824 56.4729 57.3107 55.6689 57.2512 54.8358C57.1917 54.0028 57.3465 53.1684 57.7008 52.4119C58.0551 51.6554 58.5973 51.0018 59.2757 50.5132L59.4126 50.7028L59.2757 50.5132C59.9788 50.0081 60.803 49.6974 61.665 49.6125C62.527 49.5276 63.3962 49.6715 64.1846 50.0296L90.1306 61.8518L105.365 59.7631C105.642 59.7388 105.922 59.7698 106.187 59.8541C106.453 59.9384 106.699 60.0745 106.911 60.2544C107.124 60.4343 107.298 60.6545 107.425 60.9022C107.552 61.1499 107.628 61.4203 107.65 61.6976L108.246 69.4393C108.249 69.478 108.251 69.5166 108.252 69.5551C108.266 70.0879 108.074 70.6057 107.717 71.002Z" fill="#56CEA8"/>
<path d="M43.3525 32.9811L40.3684 24.9358L53.7866 21.0583L63.3773 24.0007V32.9811H43.3525Z" fill="#2F2E41"/>
<path d="M57.458 14.8427C57.1729 11.6147 55.9319 8.54463 53.8929 6.0234C51.854 3.50218 49.1094 1.64399 46.009 0.685552C42.9085 -0.272885 39.5925 -0.288179 36.4833 0.641612C33.3741 1.5714 30.6125 3.40419 28.5503 5.90649C25.7293 9.32947 24.4259 13.7331 23.4719 18.0622C22.5179 22.3914 21.8272 26.8346 19.9749 30.863C18.1225 34.8915 14.8567 38.5514 10.545 39.6089C6.23336 40.6664 0.9967 38.2852 0 33.9657C0.154623 36.885 0.893033 39.7439 2.17171 42.3738C3.45039 45.0037 5.24346 47.3515 7.44523 49.2787C11.181 52.5133 17.2803 51.3695 20.9579 48.0693C24.6355 44.769 26.4557 39.9256 28.0304 35.2457C29.605 30.5658 31.1576 25.6862 34.4979 22.0459C37.8381 18.4056 47.3048 14.5365 51.595 16.9914C54.9595 18.9167 56.1667 17.6928 57.458 14.8427Z" fill="#2F2E41"/>
<path d="M285.273 110.606H122.299C120.25 110.603 118.286 109.79 116.837 108.343C115.388 106.897 114.574 104.936 114.571 102.891V20.1328C114.574 18.0875 115.388 16.1265 116.837 14.6802C118.286 13.2339 120.25 12.4204 122.299 12.4181H285.273C287.321 12.4204 289.286 13.2339 290.734 14.6802C292.183 16.1265 292.998 18.0875 293 20.1328V102.891C292.998 104.936 292.183 106.897 290.734 108.343C289.286 109.79 287.321 110.603 285.273 110.606Z" fill="#E6E6E6"/>
<path d="M283.4 104.995H124.172C123.116 104.994 122.105 104.575 121.358 103.83C120.612 103.084 120.192 102.074 120.191 101.021V22.0031C120.192 20.9494 120.612 19.9392 121.358 19.1941C122.105 18.4491 123.116 18.03 124.172 18.0288H283.4C284.455 18.03 285.467 18.4491 286.213 19.1941C286.959 19.9392 287.379 20.9494 287.38 22.0031V101.021C287.379 102.074 286.959 103.084 286.213 103.83C285.467 104.575 284.455 104.994 283.4 104.995Z" fill="white"/>
<path d="M266.072 93.5397H141.499C140.506 93.5397 139.553 93.1456 138.85 92.4441C138.148 91.7426 137.753 90.7912 137.753 89.7992C137.753 88.8072 138.148 87.8557 138.85 87.1543C139.553 86.4528 140.506 86.0587 141.499 86.0587H266.072C267.065 86.0587 268.018 86.4528 268.721 87.1543C269.424 87.8557 269.818 88.8072 269.818 89.7992C269.818 90.7912 269.424 91.7426 268.721 92.4441C268.018 93.1456 267.065 93.5397 266.072 93.5397Z" fill="#E6E6E6"/>
<path d="M266.072 77.6426H141.499C140.506 77.6426 139.553 77.2485 138.85 76.547C138.148 75.8455 137.753 74.8941 137.753 73.9021C137.753 72.9101 138.148 71.9587 138.85 71.2572C139.553 70.5557 140.506 70.1616 141.499 70.1616H266.072C267.065 70.1616 268.018 70.5557 268.721 71.2572C269.424 71.9587 269.818 72.9101 269.818 73.9021C269.818 74.8941 269.424 75.8455 268.721 76.547C268.018 77.2485 267.065 77.6426 266.072 77.6426Z" fill="#E6E6E6"/>
<path d="M168.662 59.2336H141.499C140.444 59.2325 139.432 58.8134 138.686 58.0683C137.94 57.3232 137.52 56.3131 137.519 55.2594V35.5027C137.52 34.449 137.94 33.4388 138.686 32.6938C139.432 31.9487 140.444 31.5296 141.499 31.5284H168.662C169.717 31.5296 170.729 31.9487 171.475 32.6938C172.222 33.4388 172.641 34.449 172.643 35.5027V55.2594C172.641 56.3131 172.222 57.3232 171.475 58.0683C170.729 58.8134 169.717 59.2325 168.662 59.2336Z" fill="#56CEA8"/>
<path d="M266.21 57.0699H202.987C201.994 57.0699 201.041 56.6758 200.338 55.9744C199.635 55.2729 199.241 54.3215 199.241 53.3295C199.241 52.3374 199.635 51.386 200.338 50.6845C201.041 49.9831 201.994 49.589 202.987 49.589H266.21C267.204 49.589 268.157 49.9831 268.859 50.6845C269.562 51.386 269.957 52.3374 269.957 53.3295C269.957 54.3215 269.562 55.2729 268.859 55.9744C268.157 56.6758 267.204 57.0699 266.21 57.0699Z" fill="#CCCCCC"/>
<path d="M239.984 41.173H202.987C201.994 41.173 201.041 40.7789 200.338 40.0774C199.635 39.3759 199.241 38.4245 199.241 37.4325C199.241 36.4405 199.635 35.489 200.338 34.7876C201.041 34.0861 201.994 33.692 202.987 33.692H239.984C240.978 33.692 241.931 34.0861 242.633 34.7876C243.336 35.489 243.731 36.4405 243.731 37.4325C243.731 38.4245 243.336 39.3759 242.633 40.0774C241.931 40.7789 240.978 41.173 239.984 41.173Z" fill="#CCCCCC"/>
<path d="M117.228 195H24.5015C24.3773 195 24.2582 194.951 24.1704 194.863C24.0826 194.775 24.0332 194.656 24.0332 194.532C24.0332 194.408 24.0826 194.29 24.1704 194.202C24.2582 194.114 24.3773 194.065 24.5015 194.065H117.228C117.352 194.065 117.472 194.114 117.559 194.202C117.647 194.29 117.697 194.408 117.697 194.532C117.697 194.656 117.647 194.775 117.559 194.863C117.472 194.951 117.352 195 117.228 195Z" fill="#CCCCCC"/>
</g>
<defs>
<clipPath id="clip0">
<rect width="293" height="195" fill="white"/>
</clipPath>
</defs>
</svg>
