<svg width="960" height="665" viewBox="0 0 960 665" fill="none" xmlns="http://www.w3.org/2000/svg">
<path d="M92.1474 351.29C77.7522 256.48 45.5912 248.216 20.8606 200.36C-1.65399 156.83 -19.8108 85.6165 43.729 34.7052C142.428 -44.4411 263.474 36.5458 263.474 36.5458C263.474 36.5458 455.285 145.142 488.806 150.664C522.326 156.185 604.265 211.404 706.688 145.142C809.112 78.8798 896.637 84.4017 924.571 134.098C952.505 183.795 889.188 327.362 874.29 356.812C859.392 386.262 881.739 478.292 905.949 515.105C930.158 551.917 1006.51 666.035 842.632 662.353C678.755 658.672 187.122 664.194 187.122 664.194C187.122 664.194 10.6369 660.936 41.8667 491.177C67.9382 349.45 97.7341 388.102 92.1474 351.29Z" fill="#3DDC84" fill-opacity="0.1"/>
<path d="M155.464 338.407C176.034 338.407 192.709 321.926 192.709 301.595C192.709 281.264 176.034 264.782 155.464 264.782C134.894 264.782 118.219 281.264 118.219 301.595C118.219 321.926 134.894 338.407 155.464 338.407Z" fill="#3DDC84"/>
<path d="M93.0792 371.538C106.964 371.538 118.22 360.413 118.22 346.69C118.22 332.966 106.964 321.841 93.0792 321.841C79.1944 321.841 67.9386 332.966 67.9386 346.69C67.9386 360.413 79.1944 371.538 93.0792 371.538Z" fill="#3DDC84"/>
<path d="M96.8037 303.436C104.517 303.436 110.771 297.255 110.771 289.631C110.771 282.007 104.517 275.826 96.8037 275.826C89.0899 275.826 82.8367 282.007 82.8367 289.631C82.8367 297.255 89.0899 303.436 96.8037 303.436Z" fill="#3DDC84"/>
<path d="M922.709 586.889C943.279 586.889 959.954 570.408 959.954 550.077C959.954 529.746 943.279 513.265 922.709 513.265C902.14 513.265 885.465 529.746 885.465 550.077C885.465 570.408 902.14 586.889 922.709 586.889Z" fill="#3DDC84"/>
<path d="M27.9005 128.577C35.6143 128.577 41.8676 122.397 41.8676 114.773C41.8676 107.149 35.6143 100.968 27.9005 100.968C20.1868 100.968 13.9335 107.149 13.9335 114.773C13.9335 122.397 20.1868 128.577 27.9005 128.577Z" fill="#3DDC84"/>
<path d="M697.378 643.948C722.061 643.948 742.072 624.171 742.072 599.774C742.072 575.377 722.061 555.599 697.378 555.599C672.694 555.599 652.684 575.377 652.684 599.774C652.684 624.171 672.694 643.948 697.378 643.948Z" fill="#83E9B1"/>
<path d="M868.705 395.466C882.075 395.466 892.914 384.753 892.914 371.538C892.914 358.323 882.075 347.61 868.705 347.61C855.334 347.61 844.495 358.323 844.495 371.538C844.495 384.753 855.334 395.466 868.705 395.466Z" fill="#83E9B1"/>
<path d="M243.921 51.2722C256.777 51.2722 267.2 40.9712 267.2 28.2643C267.2 15.5573 256.777 5.25635 243.921 5.25635C231.065 5.25635 220.643 15.5573 220.643 28.2643C220.643 40.9712 231.065 51.2722 243.921 51.2722Z" fill="#83E9B1"/>
<path d="M169.431 509.584C182.288 509.584 192.71 499.283 192.71 486.576C192.71 473.869 182.288 463.568 169.431 463.568C156.575 463.568 146.153 473.869 146.153 486.576C146.153 499.283 156.575 509.584 169.431 509.584Z" fill="#83E9B1"/>
<path d="M919.916 242.696C932.773 242.696 943.195 232.395 943.195 219.688C943.195 206.981 932.773 196.68 919.916 196.68C907.06 196.68 896.638 206.981 896.638 219.688C896.638 232.395 907.06 242.696 919.916 242.696Z" fill="#3DDC84"/>
<path d="M882.671 634.746C896.556 634.746 907.812 623.621 907.812 609.897C907.812 596.174 896.556 585.049 882.671 585.049C868.787 585.049 857.531 596.174 857.531 609.897C857.531 623.621 868.787 634.746 882.671 634.746Z" fill="#3DDC84"/>
<path d="M938.538 636.586C946.252 636.586 952.505 630.405 952.505 622.781C952.505 615.157 946.252 608.977 938.538 608.977C930.825 608.977 924.572 615.157 924.572 622.781C924.572 630.405 930.825 636.586 938.538 636.586Z" fill="#3DDC84"/>
</svg>

