<svg width="1280" height="704" viewBox="0 0 1280 704" fill="none" xmlns="http://www.w3.org/2000/svg">
<path d="M311.8 301.16H55.4C51.8493 301.171 48.4471 302.586 45.9364 305.097C43.4257 307.607 42.0106 311.01 42 314.56V476.56C42.0106 480.111 43.4257 483.513 45.9364 486.024C48.4471 488.535 51.8493 489.95 55.4 489.96H256.53C256.53 489.96 261.75 517.62 244.62 520.59C244.62 520.59 282.96 523.34 276.26 489.96H311.8C315.35 489.95 318.751 488.534 321.26 486.023C323.769 483.512 325.182 480.11 325.19 476.56V314.56C325.182 311.011 323.769 307.608 321.26 305.097C318.751 302.586 315.35 301.171 311.8 301.16Z" fill="#FFFCEB"/>
<g opacity="0.2">
<path opacity="0.2" d="M281.78 344.16H85.42C82.2886 344.16 79.75 346.699 79.75 349.83V351.15C79.75 354.282 82.2886 356.82 85.42 356.82H281.78C284.911 356.82 287.45 354.282 287.45 351.15V349.83C287.45 346.699 284.911 344.16 281.78 344.16Z" fill="#69465F"/>
<path opacity="0.2" d="M281.78 400.74H85.42C82.2886 400.74 79.75 403.279 79.75 406.41V407.73C79.75 410.862 82.2886 413.4 85.42 413.4H281.78C284.911 413.4 287.45 410.862 287.45 407.73V406.41C287.45 403.279 284.911 400.74 281.78 400.74Z" fill="#69465F"/>
<path opacity="0.2" d="M248.26 429.03H85.42C82.2886 429.03 79.75 431.569 79.75 434.7V436.02C79.75 439.152 82.2886 441.69 85.42 441.69H248.26C251.391 441.69 253.93 439.152 253.93 436.02V434.7C253.93 431.569 251.391 429.03 248.26 429.03Z" fill="#69465F"/>
<path opacity="0.2" d="M164.14 372.45H85.42C82.2886 372.45 79.75 374.989 79.75 378.12V379.44C79.75 382.572 82.2886 385.11 85.42 385.11H164.14C167.271 385.11 169.81 382.572 169.81 379.44V378.12C169.81 374.989 167.271 372.45 164.14 372.45Z" fill="#69465F"/>
</g>
<path d="M216.63 298.59L202.42 328.81C202.42 328.81 200.32 334.48 198.97 335.53C197.62 336.58 191.65 354.53 191.65 354.53L176.42 378.07L175.42 379.67L169.42 378.02L165.23 362.35L165.49 357.8V357.23C165.49 357.23 174.92 347.37 177.01 346.62C177.01 346.62 178.65 346.81 181.8 339.17C184.95 331.53 187.8 329.87 187.8 329.87L189.44 324.33L207.1 296.22C207.1 296.22 221.9 274.99 225.93 284.41C229.96 293.83 216.63 298.59 216.63 298.59Z" fill="#FFD2C6"/>
<path d="M157.63 513.24C157.582 513.754 157.418 514.25 157.15 514.69C155.51 517.08 146.24 565.98 146.24 565.98C146.98 569.28 144.9 575.86 143.54 578.85C142.18 581.84 139.2 597.39 139.2 597.39C139.2 597.39 138.46 630.89 136.52 636.12C134.58 641.35 137.14 652.57 137.14 652.57C136.95 657.73 140.05 663.18 141.89 665.96C142.03 666.14 142.14 666.32 142.25 666.47C142.85 667.33 143.25 667.82 143.25 667.82C143.752 668.824 144.465 669.708 145.34 670.41C145.47 670.52 145.61 670.62 145.76 670.73C148.3 672.438 151.145 673.64 154.14 674.27L154.43 674.33C155.63 674.6 156.43 674.7 156.43 674.7L157.17 678.7L149.25 680.34L134.15 681.34C134.15 681.34 116.35 682.69 120.39 674.76C120.674 674.219 120.918 673.657 121.12 673.08C121.27 672.7 121.41 672.3 121.53 671.9C123.96 664.28 122.32 655.02 122.32 655.02L118.84 628.07C113.17 602.95 123.32 574.98 123.32 574.98C123.32 574.98 122.43 572.74 124.38 567.06C126.33 561.38 124.38 548.97 124.38 548.97C124.38 548.97 123.38 532.97 121.99 525.04C121.459 521.712 121.278 518.337 121.45 514.97C121.514 512.995 121.694 511.025 121.99 509.07L156.09 504.55C156.09 504.55 158.01 510.07 157.63 513.24Z" fill="#FFD2C6"/>
<path opacity="0.1" d="M157.13 678.75L149.21 680.39L134.11 681.39C134.11 681.39 116.31 682.74 120.35 674.81C120.634 674.269 120.878 673.707 121.08 673.13C121.23 672.75 121.37 672.35 121.49 671.95C124.571 672.046 127.614 672.662 130.49 673.77C135.56 675.77 139.38 670.62 139.38 670.62L141.84 665.92L142.2 665.24C142.8 666.1 143.2 666.59 143.2 666.59C143.789 667.746 144.651 668.742 145.71 669.49L145.29 670.37L142.9 675.37C142.9 675.37 145.96 675.68 150.15 676.37C150.959 676.59 151.821 676.487 152.555 676.084C153.29 675.682 153.84 675.01 154.09 674.21L154.38 674.27C155.58 674.54 156.38 674.64 156.38 674.64L157.13 678.75Z" fill="black"/>
<path d="M164.46 682.48C163.86 685.17 147.19 686 147.19 686C147.19 686 137.91 685.1 135.31 687.27C132.71 689.44 125.05 688.92 124.75 688.92C124.45 688.92 120.42 688.76 118.84 681.52C117.31 674.46 120.9 673.23 121.08 673.17C124.307 673.215 127.501 673.834 130.51 675C135.58 677 139.4 671.86 139.4 671.86L142.22 666.47C142.82 667.33 143.22 667.82 143.22 667.82C143.804 668.982 144.667 669.982 145.73 670.73L142.92 676.64C142.92 676.64 145.98 676.95 150.17 677.64C153.52 678.18 154.25 675.45 154.4 674.35C154.41 674.201 154.41 674.05 154.4 673.9C154.4 673.9 157.01 674.65 160.22 675.55C161.667 675.963 162.906 676.905 163.691 678.189C164.477 679.472 164.751 681.004 164.46 682.48Z" fill="#626696"/>
<path d="M195.87 548.88C195.47 551.27 195.06 557.46 195.06 557.46C196.46 562.64 192.87 574.95 192.87 574.95L191.08 581.95C191.88 590.95 186.15 612.86 186.15 612.86C186.15 612.86 182.31 633.2 180.31 641.98C179.117 646.853 179.466 651.975 181.31 656.64C181.41 656.88 181.47 657 181.47 657C181.47 657.17 181.54 657.33 181.59 657.49C181.64 657.65 181.72 657.97 181.8 658.2C182.259 659.426 182.937 660.557 183.8 661.54C184.128 661.934 184.486 662.301 184.87 662.64L184.93 662.7C186.808 664.362 188.96 665.685 191.29 666.61L192.29 667.01C193.327 667.402 194.386 667.736 195.46 668.01C195.578 668.044 195.699 668.07 195.82 668.09L195.01 672.79L184.45 670.09L170.3 665.5L163.3 661.5C163.3 661.5 163.38 661.12 163.52 660.39C163.52 660.39 163.52 660.31 163.52 660.27C163.58 659.96 163.64 659.59 163.73 659.17C164.92 653.07 167.63 635.77 166.27 623.07C164.58 607.32 171.14 585.58 172.74 580.4C173.688 577.441 174.094 574.334 173.94 571.23C171.34 567.43 170.74 552.29 170.74 552.29C170.74 552.29 165.96 542.51 162 532.14C160.694 528.754 159.739 525.242 159.15 521.66C158.689 519.134 158.495 516.567 158.57 514C158.57 514 190.69 484.69 194.21 513.07C194.33 514.07 194.44 514.95 194.55 515.85C197.63 541.79 196.25 546.57 195.87 548.88Z" fill="#FFD2C6"/>
<path opacity="0.1" d="M195.87 668.12L195.06 672.82L184.5 670.12L170.35 665.53L163.35 661.53C163.35 661.53 163.43 661.15 163.57 660.42C163.57 660.42 163.57 660.34 163.57 660.3C163.63 659.99 163.69 659.62 163.78 659.2L164.78 659.1H164.86C166.872 658.914 168.9 659.187 170.79 659.9C173.09 660.77 176.11 661.76 176.73 661.34C177.799 660.882 178.959 660.677 180.12 660.74L181.59 657.52L181.8 657.03C182.257 658.257 182.934 659.389 183.8 660.37C184.149 660.784 184.526 661.171 184.93 661.53L184.87 662.67L184.79 664.28C186.369 665.291 188.078 666.082 189.87 666.63C190.336 666.746 190.824 666.746 191.29 666.63L192.29 667.03C193.328 667.422 194.386 667.756 195.46 668.03C195.595 668.069 195.732 668.099 195.87 668.12Z" fill="black"/>
<path d="M190.63 678.15C187.68 677.3 180.57 675.95 179.42 677C178.27 678.05 168.42 677 168.42 677C167.385 676.982 166.372 676.696 165.48 676.17C164.588 675.645 163.848 674.897 163.33 674C161.33 670.81 162.94 660.49 162.94 660.49L163.67 660.42L164.89 660.3H164.97C166.982 660.108 169.011 660.382 170.9 661.1C173.2 661.96 176.22 662.95 176.84 662.54C177.907 662.077 179.069 661.872 180.23 661.94L181.91 658.23C182.369 659.456 183.047 660.587 183.91 661.57C184.258 661.984 184.636 662.371 185.04 662.73L184.9 665.48C186.48 666.486 188.189 667.274 189.98 667.82C190.413 667.997 190.894 668.017 191.339 667.877C191.785 667.736 192.167 667.444 192.42 667.05C192.5 666.923 192.561 666.785 192.6 666.64C192.69 666.81 193.66 667.14 196.77 668.03C200.15 667.84 203.41 669.31 204.91 673.89C206.41 678.47 193.52 678.99 190.63 678.15Z" fill="#626696"/>
<path opacity="0.1" d="M157.63 513.24C156.97 513.43 156.37 513.61 155.81 513.79C154.371 514.231 152.895 514.543 151.4 514.72C141.97 516.05 126.4 515.25 121.47 514.94C121.534 512.965 121.714 510.995 122.01 509.04L156.11 504.52C156.11 504.52 158.01 510.07 157.63 513.24Z" fill="black"/>
<path d="M187.35 504.96C187.35 504.96 174.83 506.9 164.65 509.13C161.25 509.87 158.11 510.64 155.79 511.4C154.348 511.832 152.873 512.143 151.38 512.33C140.04 513.92 119.9 512.45 119.9 512.45C114.37 494.51 126.62 471.92 126.62 471.92C126.33 470.12 129.17 464.6 129.17 464.6L129.22 464.42L130.96 458.02H177.47L178.04 460.77L179.22 466.37L186.52 501.04L187.35 504.96Z" fill="#626696"/>
<path opacity="0.1" d="M194.55 515.84L194.27 515.96L188.83 518.37C182.94 521.09 165.31 521.6 159.15 521.65C158.689 519.124 158.495 516.557 158.57 513.99C158.57 513.99 190.69 484.68 194.21 513.06C194.33 514.07 194.44 514.94 194.55 515.84Z" fill="black"/>
<path d="M195.41 513.07L194.27 513.57L188.83 515.99C182.83 518.75 164.64 519.24 158.83 519.27H157.3C154.61 519.18 151.92 516.66 151.92 516C151.92 515.64 151.64 513.87 151.4 512.35C151.2 511.13 151.02 510.08 151.02 510.08C151.02 510.08 139.02 504.9 132.93 500.71C128.36 497.6 129.51 475.5 130.4 464.39C130.71 460.56 130.98 458.04 130.98 458.04L178.06 460.79L184.66 461.17L188.44 462.01L189.44 462.22C189.44 462.22 192.14 481.96 193.44 483.6C194.74 485.24 193.9 490.78 193.74 493.93C193.734 495.275 193.586 496.616 193.3 497.93C193.3 497.93 195.24 503.47 194.78 506.57C194.574 508.757 194.787 510.964 195.41 513.07Z" fill="#626696"/>
<path d="M145.02 349.14C155.674 349.14 164.31 340.504 164.31 329.85C164.31 319.197 155.674 310.56 145.02 310.56C134.366 310.56 125.73 319.197 125.73 329.85C125.73 340.504 134.366 349.14 145.02 349.14Z" fill="#FFD2C6"/>
<path d="M135.63 337.9C135.63 337.9 136.97 356.17 133.24 360.36C129.51 364.55 119.78 372.47 119.78 372.47L122.78 384.88L139.68 386.83L159.42 365.74L154.93 360.21C154.93 360.21 151.49 348.54 154.33 342.71C157.17 336.88 135.63 337.9 135.63 337.9Z" fill="#FFD2C6"/>
<path opacity="0.1" d="M176.42 378.07L175.42 379.67L169.42 378.02L165.23 362.35L165.49 357.8L166.72 356.03C166.72 356.03 173.3 356.19 173.01 362.17C172.72 367.42 175.71 376.07 176.42 378.07Z" fill="black"/>
<path opacity="0.1" d="M189.43 464.6C189.43 464.6 184.67 465.66 179.22 466.37C173.77 467.08 167.48 467.44 164.9 465.94C160.57 463.38 137.11 464.11 130.38 464.37C129.9 464.37 129.52 464.37 129.22 464.42L130.96 458.02H177.47L178.04 460.77L184.64 461.15L188.42 461.99C189.05 463.54 189.43 464.6 189.43 464.6Z" fill="black"/>
<path d="M165.51 357.22C165.51 357.22 172.09 357.37 171.79 363.35C171.49 369.33 175.38 379.65 175.38 379.65L173.88 383.09C173.88 383.09 171.79 391.46 173.43 393.56C175.07 395.66 181.06 395.65 177.62 412.85C177.62 412.85 176.88 425.71 178.67 429.9C180.46 434.09 180.46 444.1 183.15 448.29C185.84 452.48 189.44 462.2 189.44 462.2C189.44 462.2 169.99 466.53 164.91 463.54C159.83 460.55 128.57 462.07 128.57 462.07C128.57 462.07 128.72 456.83 128.57 456.24C128.433 455.586 128.429 454.911 128.558 454.254C128.687 453.598 128.946 452.975 129.32 452.42C130.32 451 132.01 448.61 131.11 446.52C130.21 444.43 133.36 441.34 131.71 438.1C130.06 434.86 128.06 434.21 128.46 432.44C128.86 430.67 127.82 428.27 126.63 426.78C125.44 425.29 117.35 409.48 117.35 409.48L116.01 402.07C116.01 402.07 105.6 394.44 105.79 390.85C105.98 387.26 109.73 382.29 109.73 382.29L119.73 372.46C119.73 372.46 125.26 378.46 130.64 376.35C136.02 374.24 147.63 364.24 147.63 364.24C147.63 364.24 151.77 362 152.07 360.36C152.37 358.72 154.91 360.21 154.91 360.21C154.91 360.21 158.65 358.16 159.4 358.88C160.15 359.6 163.4 360.21 163.4 360.21L165.51 357.22Z" fill="#FFCDE5"/>
<path d="M108.98 388.37L105.79 390.86C105.79 390.86 102.55 396.7 101.79 407.16C101.03 417.62 97.79 432.42 97.79 432.42L91.51 443.65C91.51 443.65 81.16 465.32 79.82 471.07C78.48 476.82 72.34 486.55 72.34 486.55C72.34 486.55 51.5499 505.23 66.0599 508.55C80.5699 511.87 81.01 493.68 81.01 493.68C81.01 493.68 84.4 489.94 84.95 487.4C85.5 484.86 103.89 452.33 103.89 452.33C103.89 452.33 110.33 443.58 108.98 438.95C108.98 438.95 117.35 419.26 117.35 414.32C117.192 410.211 116.744 406.117 116.01 402.07L117.35 391.75L108.98 388.37Z" fill="#FFD2C6"/>
<path opacity="0.1" d="M152.05 429.6C152.05 429.6 137.39 437.27 134.55 437.67C131.71 438.07 146.96 436.07 146.96 436.07L152.05 429.6Z" fill="black"/>
<path opacity="0.1" d="M164.01 435.58C164.01 435.58 144.57 442.16 136.01 440.96C136.05 440.96 157.28 445 164.01 435.58Z" fill="black"/>
<path opacity="0.1" d="M165.21 437.73C165.21 437.73 147.71 448.73 137.39 446.94C137.39 446.94 161.47 451.73 165.21 449.19L154.44 446.19C154.44 446.19 166.41 439.87 165.21 437.73Z" fill="black"/>
<path opacity="0.1" d="M145.05 295.91C139.99 294.91 134.38 295.51 130.33 298.69C127.33 301.05 125.33 304.69 121.96 306.41C120.176 307.161 118.35 307.805 116.49 308.34C113.209 309.681 110.474 312.087 108.727 315.171C106.98 318.255 106.323 321.837 106.86 325.34C107.39 328.34 108.78 331.04 109.46 333.96C110.68 339.18 109.61 344.65 108.28 349.84C104.591 364.264 98.9918 378.13 91.6299 391.07C91.0432 391.871 90.7501 392.849 90.7999 393.84C90.9752 394.507 91.3197 395.116 91.7999 395.61C98.7099 403.61 109.96 406.34 120.52 406.7C124.41 406.83 128.52 406.7 131.9 404.81C134.103 403.544 135.999 401.806 137.45 399.72C141.135 394.689 142.966 388.538 142.63 382.31C142.34 377.31 140.63 372.22 141.92 367.37C142.057 366.693 142.367 366.062 142.82 365.54C143.96 364.38 145.82 364.68 147.46 364.49C151.85 363.98 154.69 359.35 155.21 354.97C155.73 350.59 154.63 346.16 154.61 341.75C154.586 335.91 156.41 330.212 159.82 325.47C161.28 323.47 163.15 321.47 163.64 318.96C164.26 315.81 162.43 313.49 160.85 310.96C158.4 307.08 157.2 302.55 153.47 299.59C150.988 297.724 148.105 296.464 145.05 295.91Z" fill="black"/>
<path d="M143.85 294.71C138.8 293.71 133.18 294.31 129.13 297.5C126.13 299.85 124.13 303.5 120.76 305.22C118.98 305.969 117.157 306.61 115.3 307.14C112.018 308.481 109.282 310.886 107.534 313.97C105.785 317.053 105.125 320.636 105.66 324.14C106.19 327.14 107.58 329.84 108.27 332.77C109.49 337.99 108.41 343.45 107.09 348.64C103.41 363.062 97.8202 376.928 90.4698 389.87C89.8821 390.666 89.592 391.643 89.6498 392.63C89.8185 393.299 90.1639 393.911 90.6498 394.4C97.5698 402.4 108.81 405.13 119.37 405.49C123.26 405.63 127.37 405.49 130.75 403.61C132.953 402.341 134.849 400.599 136.3 398.51C139.966 393.486 141.785 387.351 141.45 381.14C141.16 376.14 139.45 371.05 140.75 366.19C140.884 365.514 141.19 364.883 141.64 364.36C142.78 363.2 144.64 363.5 146.29 363.36C150.68 362.85 153.51 358.22 154.03 353.83C154.55 349.44 153.46 345.03 153.43 340.61C153.393 334.754 155.213 329.037 158.63 324.28C160.09 322.28 161.95 320.28 162.44 317.76C163.06 314.61 161.24 312.3 159.66 309.76C157.21 305.88 156.01 301.35 152.27 298.4C149.791 296.527 146.907 295.263 143.85 294.71Z" fill="#985C7E"/>
<path opacity="0.1" d="M137.39 481.69C137.39 481.69 141.23 499.63 147.61 504.52L137.39 481.69Z" fill="black"/>
<g opacity="0.1">
<path opacity="0.1" d="M106.8 328.14C106.6 327.44 106.37 326.74 106.13 326.05C106.33 326.75 106.56 327.45 106.8 328.14Z" fill="black"/>
<path opacity="0.1" d="M161.36 312.48C161.407 313.045 161.38 313.613 161.28 314.17C160.78 316.7 158.92 318.67 157.46 320.69C154.047 325.426 152.223 331.123 152.25 336.96C152.25 341.38 153.36 345.79 152.84 350.18C152.32 354.57 149.49 359.18 145.1 359.71C143.48 359.9 141.59 359.59 140.46 360.71C140.007 361.232 139.697 361.863 139.56 362.54C138.29 367.4 139.98 372.48 140.26 377.49C140.598 383.7 138.782 389.835 135.12 394.86C133.666 396.947 131.772 398.688 129.57 399.96C126.14 401.81 122.08 401.96 118.18 401.84C107.8 401.49 96.76 398.84 89.82 391.13C89.6351 391.586 89.5763 392.084 89.65 392.57C89.8187 393.239 90.1641 393.851 90.65 394.34C97.57 402.34 108.81 405.07 119.37 405.43C123.26 405.57 127.37 405.43 130.75 403.55C132.952 402.278 134.846 400.537 136.3 398.45C139.966 393.426 141.785 387.291 141.45 381.08C141.16 376.08 139.45 370.99 140.75 366.13C140.884 365.454 141.191 364.823 141.64 364.3C142.78 363.14 144.64 363.44 146.29 363.3C150.68 362.79 153.51 358.16 154.03 353.77C154.55 349.38 153.46 344.97 153.43 340.55C153.406 334.715 155.225 329.02 158.63 324.28C160.09 322.28 161.95 320.28 162.44 317.76C162.755 315.927 162.37 314.042 161.36 312.48Z" fill="black"/>
</g>
<path d="M1223.01 531.123C1222.71 542.234 1220.85 553.247 1217.48 563.839C1217.4 564.084 1217.32 564.326 1217.24 564.572H1196.61C1196.63 564.352 1196.66 564.106 1196.68 563.839C1198.05 548.024 1205.98 451.771 1196.5 435.311C1197.33 436.646 1224.61 480.873 1223.01 531.123Z" fill="#E6E6E6"/>
<path d="M1221.46 563.839C1221.29 564.084 1221.11 564.33 1220.93 564.572H1205.45C1205.57 564.363 1205.7 564.117 1205.86 563.839C1208.42 559.224 1215.98 545.427 1223.01 531.123C1230.56 515.752 1237.49 499.798 1236.9 494.024C1237.08 495.327 1242.31 535.027 1221.46 563.839Z" fill="#E6E6E6"/>
<path d="M1278.78 563.366H842.278V565.098H1278.78V563.366Z" fill="#E6E6E6"/>
<path d="M1065.26 623.765L1068.14 599.989L1149.56 579.095L1140.19 550.997C1146.71 532.283 1158.17 523.109 1179.1 532.264L1215.09 554.626C1218.59 556.799 1221.44 559.873 1223.35 563.525C1225.25 567.177 1226.14 571.274 1225.91 575.386C1225.69 579.515 1224.36 583.508 1222.06 586.943C1219.76 590.378 1216.58 593.128 1212.84 594.903C1172.54 614.005 1121.18 621.315 1065.26 623.765Z" fill="#FFB8B8"/>
<path d="M1070.3 630.97L1045.09 627.368L1021.5 632.181C1020.06 632.476 1018.56 632.454 1017.13 632.116C1015.69 631.777 1014.35 631.132 1013.19 630.223C1012.02 629.314 1011.07 628.164 1010.4 626.852C1009.73 625.54 1009.35 624.097 1009.29 622.624C1009.22 620.976 1009.55 619.335 1010.25 617.844C1010.96 616.353 1012.02 615.056 1013.33 614.063L1050.29 586.217C1053.46 583.829 1057.38 582.649 1061.34 582.888C1065.3 583.128 1069.05 584.772 1071.91 587.525L1081.11 596.387C1074.53 600.473 1069.63 606.603 1066.7 615.119C1073.03 618.599 1074.23 623.882 1070.3 630.97Z" fill="#2F2E41"/>
<path d="M1094.39 381.35C1107.27 381.35 1117.71 370.909 1117.71 358.029C1117.71 345.149 1107.27 334.708 1094.39 334.708C1081.51 334.708 1071.07 345.149 1071.07 358.029C1071.07 370.909 1081.51 381.35 1094.39 381.35Z" fill="#FFB8B8"/>
<path d="M1130.82 404.018L1078.59 425.993C1082.83 404.677 1084.95 385.26 1078.59 373.398L1112.09 369.435C1110.43 378.551 1118.91 390.76 1130.82 404.018Z" fill="#FFB8B8"/>
<path d="M1042.2 623.045L1022.75 621.604C1010.83 571.909 1004.73 524.937 1007.4 482.069C1007.77 475.811 1010.56 469.942 1015.17 465.693C1019.78 461.445 1025.86 459.147 1032.12 459.283C1038.15 459.42 1043.9 461.797 1048.27 465.95L1073.42 489.889C1084.64 500.481 1093.35 513.447 1098.91 527.839C1106.04 546.499 1103.48 556.96 1086.47 555.183C1075.84 553.998 1066.07 548.802 1059.14 540.654L1040.76 519.295L1042.2 623.045Z" fill="#FFB8B8"/>
<path d="M1027.14 682.097C1024.59 681.931 1022.11 681.18 1019.9 679.902C1017.69 678.624 1015.8 676.854 1014.38 674.729C1012.96 672.604 1012.05 670.181 1011.72 667.647C1011.39 665.113 1011.65 662.538 1012.47 660.119L1016.27 648.982L1019.15 620.883C1023.59 611.824 1029.88 613.18 1037.16 620.163C1041.79 619.708 1042.79 615.076 1042.21 608.635L1056.81 628.297C1058.06 629.979 1058.84 631.967 1059.06 634.051C1059.28 636.136 1058.94 638.241 1058.07 640.149L1043.37 672.393C1041.97 675.466 1039.66 678.04 1036.77 679.773C1033.87 681.506 1030.51 682.317 1027.14 682.097Z" fill="#2F2E41"/>
<path d="M1211.16 552.077C1184.5 567.207 1176.15 567.646 1149.56 578.375L1126.5 565.406C1099.42 575.418 1080.43 561.693 1059.86 541.27C1073.32 518.845 1067.37 489.704 1075.71 490.116L1175.49 521.457L1179.82 532.264L1211.16 552.077Z" fill="#2F2E41"/>
<path d="M1179.1 528.662C1143.86 543.912 1105.93 527.766 1073.55 492.277L1052.11 405.688C1051.85 404.734 1051.8 403.739 1051.94 402.763C1052.09 401.786 1052.43 400.851 1052.95 400.013C1053.48 399.175 1054.16 398.453 1054.98 397.891C1055.79 397.329 1056.7 396.939 1057.67 396.746L1082.55 391.77L1094.8 411.223L1119.3 389.609L1145.31 398.114C1148.77 399.244 1151.86 401.294 1154.24 404.043C1156.63 406.791 1158.22 410.137 1158.85 413.721L1179.1 528.662Z" fill="#575A89"/>
<path opacity="0.2" d="M1123.13 602.068C1121.23 601.344 1119.53 600.174 1118.17 598.656C1116.82 597.139 1115.85 595.319 1115.34 593.348C1114.83 591.378 1114.81 589.314 1115.26 587.331C1115.72 585.348 1116.64 583.502 1117.96 581.95L1134.43 562.524L1145.95 569.009L1140.02 593.209C1139.59 594.96 1138.79 596.6 1137.68 598.02C1136.57 599.44 1135.17 600.608 1133.57 601.445C1131.98 602.283 1130.22 602.772 1128.42 602.879C1126.62 602.986 1124.82 602.71 1123.13 602.068Z" fill="black"/>
<path d="M1123.13 599.186C1121.23 598.462 1119.53 597.292 1118.17 595.775C1116.82 594.257 1115.85 592.437 1115.34 590.466C1114.83 588.496 1114.81 586.432 1115.26 584.449C1115.72 582.466 1116.64 580.621 1117.96 579.068L1134.43 559.642L1145.95 566.127L1140.02 590.327C1139.59 592.078 1138.79 593.718 1137.68 595.138C1136.57 596.558 1135.17 597.726 1133.57 598.563C1131.98 599.401 1130.22 599.89 1128.42 599.997C1126.62 600.104 1124.82 599.828 1123.13 599.186Z" fill="#FFB8B8"/>
<path d="M1148.84 571.89L1131.54 560.363L1156.76 493.358L1147.4 398.975L1155.94 404.315C1160.52 407.181 1164.48 410.948 1167.57 415.389C1170.65 419.83 1172.8 424.851 1173.89 430.148L1187.74 497.681C1181.68 528.809 1171.58 556.197 1148.84 571.89Z" fill="#575A89"/>
<path opacity="0.2" d="M1138.39 464.899L1147.04 508.128L1139.92 533.411L1138.39 464.899Z" fill="black"/>
<path d="M1071.58 356.029C1071.58 356.029 1058.14 312.048 1099.21 321.272C1105.59 322.702 1111.09 326.406 1115.47 331.249C1115.86 331.673 1116.34 332.006 1116.87 332.224C1117.41 332.442 1117.99 332.541 1118.56 332.513C1125.12 332.513 1129.18 355.959 1116.05 366.27C1116.05 366.27 1118.73 352.396 1113.86 347.668C1112.99 346.868 1112.26 345.925 1111.7 344.879C1108.53 338.489 1097.88 336.392 1090.54 336.936C1086.79 337.213 1086.46 343.75 1082.31 342.837C1072.87 340.76 1069.85 351.699 1071.58 356.029Z" fill="#2F2E41"/>
<path d="M1112.92 421.308L1112.65 423.3L1110.97 435.587L1108.22 455.71L1107.53 460.748C1107.48 461.133 1107.29 461.485 1107 461.74C1106.71 461.996 1106.33 462.136 1105.94 462.136H1087.62C1087.23 462.136 1086.85 461.996 1086.56 461.742C1086.27 461.487 1086.08 461.136 1086.02 460.752L1085.32 455.71L1082.53 435.587L1080.82 423.291L1080.55 421.312C1080.52 421.085 1080.53 420.854 1080.6 420.634C1080.66 420.414 1080.78 420.21 1080.93 420.037C1081.08 419.864 1081.26 419.725 1081.47 419.63C1081.68 419.535 1081.91 419.486 1082.14 419.486H1111.33C1111.56 419.486 1111.79 419.535 1111.99 419.63C1112.2 419.725 1112.39 419.863 1112.54 420.036C1112.69 420.208 1112.8 420.411 1112.87 420.631C1112.93 420.85 1112.95 421.081 1112.92 421.308Z" fill="#EBEDF2"/>
<path d="M1084.07 414.155H1109.49C1109.7 414.155 1109.91 414.196 1110.11 414.277C1110.3 414.358 1110.48 414.476 1110.63 414.625C1110.78 414.774 1110.89 414.951 1110.97 415.146C1111.06 415.34 1111.1 415.549 1111.1 415.76V417.881C1111.1 418.306 1110.93 418.715 1110.63 419.016C1110.33 419.317 1109.92 419.486 1109.49 419.486H1084.07C1083.65 419.486 1083.24 419.317 1082.94 419.016C1082.63 418.715 1082.47 418.306 1082.47 417.881V415.76C1082.47 415.549 1082.51 415.34 1082.59 415.146C1082.67 414.951 1082.79 414.774 1082.94 414.625C1083.08 414.476 1083.26 414.358 1083.46 414.277C1083.65 414.196 1083.86 414.155 1084.07 414.155Z" fill="#3F3D56"/>
<path d="M1115.22 422.152C1102.96 423.489 1090.6 423.489 1078.34 422.152C1078.13 422.152 1077.93 422.11 1077.73 422.029C1077.54 421.949 1077.36 421.83 1077.21 421.681C1077.06 421.532 1076.94 421.355 1076.86 421.161C1076.78 420.966 1076.74 420.757 1076.74 420.546V418.426C1076.74 418.215 1076.78 418.006 1076.86 417.811C1076.94 417.617 1077.06 417.44 1077.21 417.291C1077.36 417.141 1077.54 417.023 1077.73 416.943C1077.93 416.862 1078.13 416.82 1078.34 416.82C1090.59 418.326 1102.97 418.326 1115.22 416.82C1115.64 416.82 1116.05 416.99 1116.35 417.291C1116.65 417.592 1116.82 418 1116.82 418.426V420.546C1116.82 420.972 1116.65 421.38 1116.35 421.681C1116.05 421.982 1115.64 422.152 1115.22 422.152Z" fill="#3F3D56"/>
<path d="M1113.85 454.434C1114.06 456.458 1113.78 458.503 1113.04 460.397C1112.3 462.292 1111.11 463.98 1109.58 465.321C1108.05 466.662 1106.22 467.616 1104.24 468.103C1102.27 468.591 1100.2 468.597 1098.22 468.122L1073.46 462.176L1074.05 448.963L1098.33 443.354C1100.09 442.948 1101.91 442.92 1103.68 443.272C1105.45 443.624 1107.12 444.348 1108.59 445.396C1110.05 446.443 1111.28 447.791 1112.19 449.349C1113.1 450.908 1113.66 452.641 1113.85 454.434Z" fill="#FFB8B8"/>
<path d="M1080.39 464.539L1013.56 466.21C1011.14 466.27 1008.75 465.803 1006.53 464.843C1004.32 463.882 1002.34 462.45 1000.74 460.647C999.134 458.844 997.943 456.712 997.247 454.402C996.551 452.091 996.368 449.656 996.709 447.267C997.244 443.524 999.04 440.075 1001.8 437.492L1033.27 408.055C1039.11 402.595 1046.38 398.913 1054.23 397.44L1065.26 395.373L1071.74 444.365L1034.28 440.042L1078.23 445.086L1080.39 464.539Z" fill="#575A89"/>
<path d="M992.343 608.302H821.721C820.204 608.302 818.749 607.7 817.676 606.627C816.603 605.554 816 604.099 816 602.581C877.851 595.393 938.539 595.393 998.064 602.581C998.064 604.099 997.462 605.554 996.389 606.627C995.316 607.7 993.861 608.302 992.343 608.302Z" fill="#2F2E41"/>
<path d="M998.064 602.918L816 602.581L837.101 567.077L837.202 566.909V488.661C837.202 487.712 837.389 486.771 837.752 485.894C838.115 485.016 838.648 484.219 839.32 483.547C839.991 482.876 840.788 482.343 841.666 481.98C842.543 481.616 843.484 481.429 844.434 481.429H968.621C969.571 481.429 970.511 481.616 971.389 481.98C972.266 482.343 973.064 482.876 973.735 483.547C974.407 484.219 974.939 485.016 975.303 485.894C975.666 486.771 975.853 487.712 975.853 488.661V567.447L998.064 602.918Z" fill="#3F3D56"/>
<path d="M844.269 486.477C843.644 486.478 843.045 486.727 842.604 487.168C842.162 487.61 841.914 488.209 841.913 488.833V560.178C841.914 560.803 842.162 561.401 842.604 561.843C843.045 562.285 843.644 562.533 844.269 562.534H969.796C970.42 562.533 971.019 562.285 971.461 561.843C971.902 561.401 972.151 560.803 972.151 560.178V488.833C972.151 488.209 971.902 487.61 971.461 487.168C971.019 486.727 970.42 486.478 969.796 486.477L844.269 486.477Z" fill="white"/>
<path d="M845.094 571.957C844.901 571.957 844.712 572.013 844.549 572.117C844.387 572.221 844.257 572.369 844.176 572.544L837.675 586.679C837.604 586.833 837.573 587.002 837.585 587.171C837.596 587.34 837.65 587.503 837.742 587.645C837.833 587.788 837.959 587.905 838.107 587.987C838.256 588.068 838.423 588.11 838.592 588.11H975.32C975.492 588.11 975.662 588.066 975.812 587.983C975.962 587.899 976.089 587.778 976.179 587.632C976.27 587.485 976.321 587.318 976.329 587.146C976.337 586.974 976.3 586.803 976.223 586.649L969.156 572.515C969.073 572.347 968.944 572.205 968.784 572.107C968.625 572.008 968.441 571.956 968.253 571.957L845.094 571.957Z" fill="#2F2E41"/>
<path d="M906.527 485.299C907.364 485.299 908.042 484.621 908.042 483.785C908.042 482.949 907.364 482.271 906.527 482.271C905.691 482.271 905.013 482.949 905.013 483.785C905.013 484.621 905.691 485.299 906.527 485.299Z" fill="white"/>
<path d="M893.088 590.803C892.866 590.803 892.651 590.876 892.474 591.011C892.298 591.146 892.171 591.335 892.113 591.55L890.483 597.607C890.442 597.757 890.437 597.914 890.467 598.066C890.497 598.218 890.562 598.361 890.656 598.484C890.75 598.607 890.872 598.707 891.011 598.775C891.149 598.844 891.302 598.879 891.457 598.879H922.473C922.634 598.879 922.793 598.841 922.936 598.767C923.079 598.693 923.202 598.586 923.296 598.455C923.389 598.324 923.45 598.173 923.473 598.013C923.495 597.854 923.48 597.692 923.427 597.54L921.33 591.482C921.262 591.284 921.133 591.112 920.962 590.99C920.791 590.868 920.586 590.803 920.376 590.803H893.088Z" fill="#2F2E41"/>
<path d="M975.853 565.731V567.077H837.101L837.205 566.908V565.731H975.853Z" fill="#2F2E41"/>
<path d="M876.59 515.581C888.224 515.459 899.857 515.251 911.49 515.093C915.368 515.041 919.247 514.994 923.125 514.955C926.467 514.92 926.475 509.723 923.125 509.758C911.491 509.879 899.859 510.087 888.225 510.245C884.347 510.298 880.469 510.344 876.59 510.384C873.249 510.419 873.24 515.615 876.59 515.581Z" fill="#69465F"/>
<path d="M876.59 527.706L923.61 527.218L936.982 527.08C940.324 527.045 940.332 521.849 936.982 521.883L889.963 522.37L876.59 522.509C873.249 522.544 873.24 527.74 876.59 527.706Z" fill="#69465F"/>
<path d="M876.59 539.831L923.61 539.343L936.982 539.205C940.324 539.17 940.332 533.974 936.982 534.008L889.963 534.496L876.59 534.634C873.249 534.669 873.24 539.865 876.59 539.831Z" fill="#69465F"/>
</svg>
