<svg width="320" height="234" viewBox="0 0 320 234" fill="none" xmlns="http://www.w3.org/2000/svg">
<g clip-path="url(#clip0)">
<path d="M113.515 11.8484H8.48889C7.03448 11.8528 5.64087 12.4324 4.61243 13.4609C3.584 14.4893 3.00432 15.8829 3 17.3373V83.6956C3.00432 85.15 3.584 86.5436 4.61243 87.5721C5.64087 88.6005 7.03448 89.1802 8.48889 89.1845H90.8756C90.8756 89.1845 93.0138 100.515 85.997 101.731C85.997 101.731 101.702 102.858 98.9573 89.1845H113.515C114.969 89.1802 116.362 88.6004 117.39 87.5718C118.418 86.5433 118.997 85.1496 119 83.6956V17.3373C118.997 15.8833 118.418 14.4897 117.39 13.4611C116.362 12.4326 114.969 11.8528 113.515 11.8484Z" fill="#FFFCEB"/>
<g opacity="0.2">
<path opacity="0.2" d="M101.218 29.4621H20.7857C19.503 29.4621 18.4631 30.5019 18.4631 31.7846V32.3253C18.4631 33.608 19.503 34.6478 20.7857 34.6478H101.218C102.501 34.6478 103.541 33.608 103.541 32.3253V31.7846C103.541 30.5019 102.501 29.4621 101.218 29.4621Z" fill="#69465F"/>
<path opacity="0.2" d="M101.218 52.6383H20.7857C19.503 52.6383 18.4631 53.6781 18.4631 54.9608V55.5015C18.4631 56.7842 19.503 57.8241 20.7857 57.8241H101.218C102.501 57.8241 103.541 56.7842 103.541 55.5015V54.9608C103.541 53.6781 102.501 52.6383 101.218 52.6383Z" fill="#69465F"/>
<path opacity="0.2" d="M87.488 64.2264H20.7857C19.503 64.2264 18.4631 65.2663 18.4631 66.549V67.0896C18.4631 68.3723 19.503 69.4122 20.7857 69.4122H87.488C88.7707 69.4122 89.8106 68.3723 89.8106 67.0896V66.549C89.8106 65.2663 88.7707 64.2264 87.488 64.2264Z" fill="#69465F"/>
<path opacity="0.2" d="M53.0309 41.0502H20.7857C19.503 41.0502 18.4631 42.09 18.4631 43.3727V43.9134C18.4631 45.1961 19.503 46.236 20.7857 46.236H53.0309C54.3136 46.236 55.3534 45.1961 55.3534 43.9134V43.3727C55.3534 42.09 54.3136 41.0502 53.0309 41.0502Z" fill="#69465F"/>
</g>
<path d="M74.532 10.7957L68.7113 23.1744C68.7113 23.1744 67.8511 25.4969 67.2981 25.927C66.7451 26.3571 64.2997 33.7098 64.2997 33.7098L58.0612 43.3522L57.6516 44.0076L55.1938 43.3318L53.4775 36.913L53.584 35.0493V34.8158C53.584 34.8158 57.4467 30.7769 58.3029 30.4697C58.3029 30.4697 58.9746 30.5476 60.2649 27.4181C61.5552 24.2886 62.7226 23.6086 62.7226 23.6086L63.3944 21.3393L70.6283 9.82492C70.6283 9.82492 76.6906 1.12871 78.3414 4.98732C79.9922 8.84593 74.532 10.7957 74.532 10.7957Z" fill="#FFD2C6"/>
<path d="M50.3644 98.7204C50.3448 98.9308 50.2775 99.1339 50.1678 99.3144C49.496 100.293 45.6988 120.324 45.6988 120.324C46.002 121.675 45.15 124.371 44.5929 125.596C44.0358 126.82 42.8151 133.19 42.8151 133.19C42.8151 133.19 42.512 146.912 41.7173 149.054C40.9227 151.197 41.9713 155.793 41.9713 155.793C41.8935 157.906 43.1633 160.139 43.917 161.277C43.9743 161.351 44.0194 161.425 44.0645 161.486C44.3102 161.839 44.4741 162.039 44.4741 162.039C44.6797 162.451 44.9717 162.812 45.3302 163.1C45.3834 163.145 45.4408 163.186 45.5022 163.231C46.5426 163.931 47.7081 164.423 48.9348 164.681L49.0536 164.706C49.5452 164.817 49.8729 164.858 49.8729 164.858L50.176 166.496L46.9318 167.168L40.7465 167.577C40.7465 167.577 33.4553 168.13 35.1102 164.882C35.2265 164.66 35.3264 164.43 35.4092 164.194V164.194C35.4707 164.038 35.528 163.874 35.5772 163.711C36.5725 160.589 35.9008 156.796 35.9008 156.796L34.4753 145.757C32.1527 135.467 36.3104 124.01 36.3104 124.01C36.3104 124.01 35.9458 123.093 36.7446 120.766C37.5433 118.44 36.7446 113.356 36.7446 113.356C36.7446 113.356 36.3349 106.802 35.7656 103.554C35.5483 102.19 35.4741 100.808 35.5444 99.4291C35.5706 98.6199 35.6444 97.8129 35.7656 97.0123L49.7336 95.1609C49.7336 95.1609 50.5201 97.422 50.3644 98.7204Z" fill="#FFD2C6"/>
<path opacity="0.1" d="M50.1595 166.516L46.9154 167.188L40.7301 167.598C40.7301 167.598 33.4389 168.151 35.0938 164.903C35.2101 164.681 35.31 164.451 35.3928 164.214V164.214C35.4542 164.059 35.5116 163.895 35.5607 163.731C36.8228 163.77 38.0691 164.022 39.2473 164.477C41.3241 165.296 42.8888 163.186 42.8888 163.186L43.8965 161.261L44.0439 160.982C44.2897 161.335 44.4536 161.535 44.4536 161.535C44.6949 162.009 45.0477 162.417 45.4817 162.723L45.3097 163.084L44.3307 165.132C44.3307 165.132 45.5841 165.259 47.3004 165.542C47.6316 165.631 47.9847 165.589 48.2856 165.424C48.5866 165.259 48.8119 164.984 48.9143 164.657L49.0331 164.681C49.5246 164.792 49.8523 164.833 49.8523 164.833L50.1595 166.516Z" fill="black"/>
<path d="M53.1622 168.044C52.9164 169.146 46.0881 169.486 46.0881 169.486C46.0881 169.486 42.2868 169.118 41.2218 170.006C40.1568 170.895 37.0191 170.682 36.8962 170.682C36.7733 170.682 35.1226 170.617 34.4754 167.651C33.8487 164.759 35.3192 164.255 35.3929 164.231C36.7148 164.249 38.0229 164.503 39.2556 164.98C41.3324 165.8 42.8971 163.694 42.8971 163.694L44.0523 161.486C44.298 161.839 44.4619 162.039 44.4619 162.039C44.7013 162.515 45.0544 162.925 45.49 163.231L44.339 165.652C44.339 165.652 45.5924 165.779 47.3087 166.062C48.681 166.283 48.98 165.165 49.0414 164.714C49.0455 164.653 49.0455 164.591 49.0414 164.53C49.0414 164.53 50.1105 164.837 51.4254 165.206C52.0181 165.375 52.5256 165.761 52.8473 166.286C53.169 166.812 53.2814 167.44 53.1622 168.044Z" fill="#626696"/>
<path d="M66.028 113.319C65.8641 114.298 65.6962 116.834 65.6962 116.834C66.2696 118.956 64.7991 123.998 64.7991 123.998L64.0659 126.865C64.3936 130.552 62.0465 139.527 62.0465 139.527C62.0465 139.527 60.4735 147.858 59.6543 151.455C59.1654 153.451 59.3085 155.549 60.0639 157.46C60.1049 157.558 60.1294 157.607 60.1294 157.607C60.1294 157.677 60.1581 157.742 60.1786 157.808C60.1991 157.874 60.2319 158.005 60.2646 158.099C60.4526 158.601 60.7302 159.064 61.0839 159.467C61.2183 159.628 61.3649 159.779 61.5221 159.918L61.5467 159.942C62.3158 160.623 63.1973 161.165 64.1519 161.544V161.544L64.5615 161.708C64.9865 161.868 65.42 162.005 65.86 162.117C65.9085 162.131 65.9578 162.142 66.0075 162.15L65.6757 164.075L61.3501 162.969L55.554 161.089L52.6867 159.451C52.6867 159.451 52.7194 159.295 52.7768 158.996C52.7768 158.996 52.7768 158.963 52.7768 158.947C52.8014 158.82 52.8259 158.668 52.8628 158.496C53.3503 155.997 54.4603 148.911 53.9032 143.709C53.211 137.257 55.8981 128.352 56.5535 126.23C56.9416 125.018 57.1081 123.746 57.045 122.474C55.98 120.918 55.7342 114.716 55.7342 114.716C55.7342 114.716 53.7763 110.71 52.1542 106.462C51.6191 105.075 51.2279 103.637 50.9868 102.169C50.7979 101.135 50.7182 100.083 50.7492 99.0318C50.7492 99.0318 63.9061 87.0258 65.348 98.6508C65.3971 99.0604 65.4422 99.4209 65.4873 99.7896C66.7489 110.415 66.1836 112.373 66.028 113.319Z" fill="#FFD2C6"/>
<path opacity="0.1" d="M66.0283 162.162L65.6965 164.087L61.371 162.981L55.5749 161.101L52.7075 159.463C52.7075 159.463 52.7403 159.307 52.7976 159.008C52.7976 159.008 52.7976 158.975 52.7976 158.959C52.8222 158.832 52.8468 158.68 52.8837 158.508L53.2933 158.467H53.326C54.1501 158.391 54.9807 158.503 55.7551 158.795C56.6972 159.152 57.9343 159.557 58.1882 159.385C58.626 159.197 59.1012 159.113 59.5768 159.139L60.179 157.82L60.265 157.62C60.4519 158.122 60.7296 158.586 61.0842 158.988C61.227 159.157 61.3816 159.316 61.5471 159.463L61.5225 159.93L61.4898 160.589C62.1363 161.003 62.8364 161.327 63.5706 161.552C63.7616 161.599 63.9613 161.599 64.1523 161.552V161.552L64.5619 161.716C64.9868 161.876 65.4203 162.013 65.8604 162.125C65.9155 162.141 65.9716 162.154 66.0283 162.162Z" fill="black"/>
<path d="M63.8819 166.271C62.6735 165.923 59.7611 165.37 59.29 165.8C58.819 166.23 54.7842 165.8 54.7842 165.8C54.3602 165.792 53.9454 165.675 53.58 165.46C53.2147 165.244 52.9112 164.938 52.6993 164.571C51.88 163.264 52.5395 159.037 52.5395 159.037L52.8385 159.008L53.3383 158.959H53.371C54.1951 158.88 55.0263 158.993 55.8001 159.287C56.7422 159.639 57.9793 160.044 58.2332 159.877C58.6704 159.687 59.1461 159.603 59.6218 159.631L60.31 158.111C60.4979 158.613 60.7755 159.077 61.1292 159.479C61.2719 159.648 61.4266 159.807 61.5921 159.954L61.5347 161.081C62.1818 161.493 62.8818 161.815 63.6156 162.039C63.7928 162.112 63.9898 162.12 64.1724 162.062C64.355 162.005 64.5116 161.885 64.6151 161.724C64.6479 161.672 64.6727 161.615 64.6888 161.556C64.7257 161.626 65.123 161.761 66.3969 162.125C67.7814 162.048 69.1168 162.65 69.7312 164.526C70.3457 166.402 65.0657 166.615 63.8819 166.271Z" fill="#626696"/>
<path opacity="0.1" d="M50.3643 98.7204C50.094 98.7983 49.8482 98.872 49.6188 98.9457C49.0292 99.1263 48.4247 99.2538 47.8124 99.3267C43.9497 99.8715 37.5719 99.5438 35.5525 99.4168C35.5787 98.6076 35.6525 97.8006 35.7737 97L49.7417 95.1486C49.7417 95.1486 50.52 97.4219 50.3643 98.7204Z" fill="black"/>
<path d="M62.5384 95.3288C62.5384 95.3288 57.4099 96.1235 53.24 97.0369C51.8473 97.34 50.5611 97.6554 49.6108 97.9668C49.0202 98.1435 48.416 98.2709 47.8044 98.3477C43.1593 98.999 34.9096 98.3968 34.9096 98.3968C32.6444 91.0483 37.6622 81.795 37.6622 81.795C37.5434 81.0577 38.7067 78.7966 38.7067 78.7966L38.7272 78.7228L39.4399 76.1013H58.4913L58.7248 77.2277L59.2082 79.5216L62.1984 93.7231L62.5384 95.3288Z" fill="#626696"/>
<path opacity="0.1" d="M65.4873 99.7855L65.3726 99.8346L63.1442 100.822C60.7316 101.936 53.51 102.145 50.9868 102.165C50.7979 101.131 50.7182 100.079 50.7492 99.0277C50.7492 99.0277 63.9061 87.0217 65.348 98.6467C65.3971 99.0604 65.4422 99.4168 65.4873 99.7855Z" fill="black"/>
<path d="M65.8397 98.6508L65.3727 98.8556L63.1444 99.8469C60.6867 100.977 53.2357 101.178 50.8558 101.19H50.2291C49.1272 101.154 48.0253 100.121 48.0253 99.851C48.0253 99.7035 47.9107 98.9785 47.8123 98.3559C47.7304 97.8562 47.6567 97.4261 47.6567 97.4261C47.6567 97.4261 42.7413 95.3042 40.2467 93.5879C38.3747 92.314 38.8458 83.2614 39.2103 78.7106C39.3373 77.1417 39.4479 76.1095 39.4479 76.1095L58.7328 77.2359L61.4363 77.3916L62.9846 77.7357L63.3942 77.8217C63.3942 77.8217 64.5002 85.9076 65.0327 86.5793C65.5652 87.2511 65.2211 89.5204 65.1556 90.8107C65.1531 91.3617 65.0927 91.9108 64.9754 92.4492C64.9754 92.4492 65.77 94.7185 65.5816 95.9883C65.4971 96.8841 65.5847 97.7879 65.8397 98.6508V98.6508Z" fill="#626696"/>
<path d="M45.1992 31.5019C49.5631 31.5019 53.1007 27.9643 53.1007 23.6004C53.1007 19.2365 49.5631 15.6989 45.1992 15.6989C40.8353 15.6989 37.2976 19.2365 37.2976 23.6004C37.2976 27.9643 40.8353 31.5019 45.1992 31.5019Z" fill="#FFD2C6"/>
<path d="M41.3526 26.8978C41.3526 26.8978 41.9015 34.3816 40.3736 36.0979C38.8457 37.8142 34.8601 41.0584 34.8601 41.0584L36.089 46.1417L43.0115 46.9405L51.0974 38.3016L49.2582 36.0364C49.2582 36.0364 47.8491 31.2562 49.0124 28.8681C50.1758 26.48 41.3526 26.8978 41.3526 26.8978Z" fill="#FFD2C6"/>
<path opacity="0.1" d="M58.0612 43.3522L57.6516 44.0076L55.1938 43.3318L53.4775 36.913L53.584 35.0493L54.0879 34.3242C54.0879 34.3242 56.7832 34.3898 56.6644 36.8393C56.5456 38.9898 57.7703 42.533 58.0612 43.3522Z" fill="black"/>
<path opacity="0.1" d="M63.3902 78.7966C63.3902 78.7966 61.4404 79.2308 59.208 79.5216C56.9756 79.8124 54.3991 79.9599 53.3423 79.3455C51.5686 78.2968 41.9589 78.5959 39.2022 78.7024C39.0056 78.7024 38.8499 78.7024 38.7271 78.7228L39.4398 76.1013H58.4912L58.7247 77.2277L61.4281 77.3834L62.9765 77.7275C63.2346 78.3624 63.3902 78.7966 63.3902 78.7966Z" fill="black"/>
<path d="M53.5922 34.8117C53.5922 34.8117 56.2875 34.8731 56.1646 37.3226C56.0417 39.7722 57.6351 43.9994 57.6351 43.9994L57.0207 45.4085C57.0207 45.4085 56.1646 48.837 56.8363 49.6972C57.5081 50.5574 59.9617 50.5533 58.5526 57.5988C58.5526 57.5988 58.2495 62.8665 58.9827 64.5828C59.716 66.2991 59.716 70.3994 60.8178 72.1157C61.9197 73.832 63.3943 77.8135 63.3943 77.8135C63.3943 77.8135 55.4273 79.5871 53.3464 78.3624C51.2655 77.1376 38.4608 77.7602 38.4608 77.7602C38.4608 77.7602 38.5223 75.6138 38.4608 75.3722C38.4048 75.104 38.4031 74.8274 38.4559 74.5587C38.5087 74.2899 38.6148 74.0344 38.768 73.8074C39.1777 73.2258 39.8699 72.2468 39.5013 71.3907C39.1326 70.5346 40.4229 69.2688 39.747 67.9417C39.0712 66.6145 38.2519 66.3482 38.4158 65.6232C38.5796 64.8982 38.1536 63.9151 37.6662 63.3048C37.1787 62.6944 33.8649 56.2184 33.8649 56.2184L33.316 53.1831C33.316 53.1831 29.0519 50.0577 29.1297 48.5872C29.2075 47.1166 30.7436 45.0808 30.7436 45.0808L34.8398 41.0543C34.8398 41.0543 37.105 43.512 39.3087 42.6477C41.5125 41.7834 46.2682 37.6872 46.2682 37.6872C46.2682 37.6872 47.964 36.7697 48.0869 36.0979C48.2098 35.4261 49.2502 36.0364 49.2502 36.0364C49.2502 36.0364 50.7822 35.1967 51.0894 35.4916C51.3966 35.7866 52.7279 36.0364 52.7279 36.0364L53.5922 34.8117Z" fill="#FFCDE5"/>
<path d="M30.4363 47.5713L29.1297 48.5913C29.1297 48.5913 27.8025 50.9834 27.4912 55.2681C27.1799 59.5527 25.8527 65.615 25.8527 65.615L23.2803 70.2151C23.2803 70.2151 19.0407 79.0915 18.4919 81.4468C17.943 83.8021 15.4279 87.7877 15.4279 87.7877C15.4279 87.7877 6.91192 95.4394 12.8555 96.7993C18.7991 98.1593 18.9793 90.7083 18.9793 90.7083C18.9793 90.7083 20.3679 89.1763 20.5932 88.1359C20.8185 87.0955 28.3514 73.7706 28.3514 73.7706C28.3514 73.7706 30.9893 70.1864 30.4363 68.2899C30.4363 68.2899 33.8649 60.2245 33.8649 58.2009C33.8001 56.5175 33.6167 54.8407 33.316 53.1831L33.8649 48.9558L30.4363 47.5713Z" fill="#FFD2C6"/>
<path opacity="0.1" d="M48.0786 64.4599C48.0786 64.4599 42.0736 67.6017 40.9103 67.7655C39.747 67.9294 45.9937 67.1101 45.9937 67.1101L48.0786 64.4599Z" fill="black"/>
<path opacity="0.1" d="M52.9779 66.9094C52.9779 66.9094 45.0149 69.6047 41.5085 69.1132C41.5249 69.1132 50.2211 70.7681 52.9779 66.9094Z" fill="black"/>
<path opacity="0.1" d="M53.4693 67.7901C53.4693 67.7901 46.301 72.2959 42.0737 71.5627C42.0737 71.5627 51.9374 73.5248 53.4693 72.4843L49.0577 71.2555C49.0577 71.2555 53.9609 68.6667 53.4693 67.7901Z" fill="black"/>
<path opacity="0.1" d="M45.2111 9.69793C43.1384 9.28832 40.8405 9.53409 39.1815 10.8367C37.9527 11.8034 37.1334 13.2944 35.753 13.9989C35.0223 14.3063 34.2742 14.5702 33.5124 14.7895C32.1684 15.3386 31.0483 16.3241 30.3328 17.5873C29.6172 18.8506 29.3477 20.318 29.5678 21.753C29.7849 22.9819 30.3542 24.0879 30.6328 25.2839C31.1325 27.4222 30.6942 29.6628 30.1494 31.7887C28.6385 37.6969 26.3449 43.3767 23.3293 48.6773C23.089 49.0052 22.9689 49.4059 22.9893 49.8119C23.0611 50.0848 23.2022 50.3346 23.3989 50.5369C26.2294 53.8139 30.8376 54.9322 35.1632 55.0796C36.7566 55.1329 38.4401 55.0796 39.8246 54.3054C40.7271 53.7869 41.5035 53.0749 42.098 52.2205C43.6077 50.1597 44.3574 47.6399 44.2198 45.089C44.101 43.0409 43.4006 40.956 43.929 38.9693C43.9851 38.6918 44.1121 38.4335 44.2977 38.2197C44.7646 37.7445 45.5265 37.8674 46.1983 37.7896C47.9965 37.5807 49.1598 35.6842 49.3728 33.89C49.5858 32.0959 49.1353 30.2813 49.1271 28.4749C49.1174 26.0826 49.8643 23.7484 51.2612 21.8063C51.8592 20.987 52.6252 20.1678 52.8259 19.1397C53.0799 17.8494 52.3303 16.899 51.6831 15.8627C50.6795 14.2734 50.188 12.4178 48.6601 11.2053C47.6436 10.4409 46.4625 9.92474 45.2111 9.69793V9.69793Z" fill="black"/>
<path d="M44.7197 9.20641C42.6511 8.7968 40.3491 9.04256 38.6901 10.3492C37.4612 11.3118 36.642 12.807 35.2616 13.5115C34.5325 13.8181 33.7856 14.0807 33.0251 14.298C31.6807 14.8469 30.5602 15.8323 29.844 17.0954C29.1277 18.3586 28.8573 19.826 29.0763 21.2615C29.2934 22.4904 29.8628 23.5963 30.1454 24.7965C30.6452 26.9347 30.2028 29.1712 29.6621 31.2972C28.1546 37.2046 25.8651 42.8843 22.8542 48.1857C22.6135 48.5117 22.4947 48.9118 22.5183 49.3163C22.5875 49.5903 22.7289 49.8407 22.928 50.0413C25.7625 53.3183 30.3666 54.4365 34.6922 54.584C36.2856 54.6414 37.9692 54.584 39.3537 53.8139C40.2563 53.2938 41.0326 52.5804 41.6271 51.7249C43.1287 49.6669 43.8739 47.1537 43.7366 44.6098C43.6178 42.5617 42.9174 40.4767 43.4499 38.486C43.5047 38.2089 43.6303 37.9506 43.8144 37.7364C44.2814 37.2612 45.0433 37.3841 45.7192 37.3268C47.5174 37.1179 48.6766 35.2213 48.8896 33.4231C49.1026 31.6249 48.6561 29.8184 48.6438 28.0079C48.6286 25.6091 49.3744 23.2672 50.7739 21.3188C51.3719 20.4996 52.1338 19.6804 52.3345 18.6481C52.5885 17.3578 51.843 16.4116 51.1958 15.3712C50.1922 13.7819 49.7007 11.9263 48.1687 10.7179C47.1534 9.95072 45.9719 9.43297 44.7197 9.20641Z" fill="#985C7E"/>
<path opacity="0.1" d="M42.0737 85.797C42.0737 85.797 43.6467 93.1455 46.26 95.1486L42.0737 85.797Z" fill="black"/>
<g opacity="0.1">
<path opacity="0.1" d="M29.5437 22.9C29.4618 22.6132 29.3676 22.3265 29.2693 22.0439C29.3512 22.3306 29.4454 22.6173 29.5437 22.9Z" fill="black"/>
<path opacity="0.1" d="M51.8923 16.4853C51.9116 16.7165 51.9006 16.9492 51.8595 17.1776C51.6547 18.2139 50.8928 19.0209 50.2948 19.8483C48.8967 21.7883 48.1496 24.1215 48.1607 26.5128C48.1607 28.3233 48.6153 30.1297 48.4023 31.9279C48.1893 33.7262 47.0301 35.6145 45.2319 35.8316C44.5683 35.9095 43.7941 35.7825 43.3312 36.2412C43.1457 36.4551 43.0186 36.7133 42.9626 36.9908C42.4424 38.9816 43.1346 41.0625 43.2493 43.1147C43.3878 45.658 42.6441 48.1713 41.1439 50.2297C40.5484 51.0844 39.7723 51.7976 38.8705 52.3188C37.4655 53.0766 35.8025 53.138 34.2049 53.0889C29.9531 52.9455 25.4309 51.86 22.5881 48.7019C22.5124 48.8886 22.4883 49.0924 22.5185 49.2917C22.5876 49.5657 22.7291 49.8161 22.9281 50.0167C25.7627 53.2937 30.3668 54.4119 34.6924 54.5594C36.2858 54.6167 37.9693 54.5594 39.3538 53.7893C40.2556 53.2681 41.0318 52.5549 41.6272 51.7003C43.1289 49.6423 43.874 47.1291 43.7368 44.5852C43.618 42.5371 42.9175 40.4521 43.45 38.4614C43.5049 38.1843 43.6305 37.926 43.8146 37.7118C44.2816 37.2366 45.0435 37.3595 45.7193 37.3022C47.5176 37.0933 48.6768 35.1967 48.8898 33.3985C49.1028 31.6003 48.6563 29.7938 48.644 27.9833C48.634 25.5929 49.3795 23.2604 50.774 21.3188C51.3721 20.4996 52.134 19.6803 52.3347 18.6481C52.4639 17.8972 52.306 17.1252 51.8923 16.4853Z" fill="black"/>
</g>
<path d="M303.729 162.191C303.599 167.043 302.786 171.852 301.315 176.477C301.281 176.584 301.246 176.69 301.211 176.797H292.202C292.211 176.701 292.221 176.594 292.23 176.477C292.831 169.571 296.294 127.54 292.154 120.353C292.516 120.936 304.427 140.248 303.729 162.191Z" fill="#E6E6E6"/>
<path d="M303.053 176.477C302.978 176.584 302.899 176.692 302.819 176.797H296.061C296.112 176.706 296.171 176.599 296.24 176.477C297.357 174.462 300.661 168.437 303.729 162.191C307.026 155.479 310.05 148.513 309.795 145.991C309.874 146.56 312.155 163.896 303.053 176.477Z" fill="#E6E6E6"/>
<path d="M328.082 176.271H137.475V177.027H328.082V176.271Z" fill="#E6E6E6"/>
<path d="M234.844 202.645L236.103 192.263L271.654 183.139L267.564 170.869C270.413 162.698 275.415 158.692 284.553 162.689L300.272 172.454C301.8 173.403 303.045 174.745 303.876 176.34C304.707 177.935 305.094 179.724 304.997 181.519V181.519C304.901 183.322 304.32 185.066 303.315 186.566C302.31 188.066 300.919 189.267 299.288 190.042C281.691 198.383 259.263 201.575 234.844 202.645Z" fill="#FFB8B8"/>
<path d="M237.047 205.791L226.035 204.218L215.736 206.32C215.105 206.449 214.454 206.439 213.827 206.292C213.2 206.144 212.613 205.862 212.105 205.465C211.598 205.068 211.183 204.566 210.889 203.993C210.595 203.42 210.429 202.79 210.402 202.147V202.147C210.372 201.427 210.517 200.711 210.825 200.06C211.133 199.409 211.595 198.842 212.17 198.409L228.309 186.249C229.693 185.206 231.403 184.691 233.133 184.795C234.863 184.9 236.499 185.618 237.747 186.82L241.766 190.69C238.89 192.474 236.752 195.151 235.474 198.87C238.238 200.389 238.762 202.696 237.047 205.791Z" fill="#2F2E41"/>
<path d="M247.564 96.7897C253.188 96.7897 257.747 92.2304 257.747 86.6062C257.747 80.982 253.188 76.4226 247.564 76.4226C241.94 76.4226 237.38 80.982 237.38 86.6062C237.38 92.2304 241.94 96.7897 247.564 96.7897Z" fill="#FFB8B8"/>
<path d="M263.474 106.688L240.665 116.284C242.519 106.976 243.443 98.4972 240.665 93.3172L255.295 91.5868C254.568 95.5676 258.27 100.899 263.474 106.688Z" fill="#FFB8B8"/>
<path d="M224.777 202.331L216.282 201.701C211.078 180.001 208.414 159.49 209.577 140.771C209.741 138.038 210.958 135.475 212.971 133.62C214.984 131.765 217.638 130.761 220.375 130.821C223.005 130.88 225.518 131.918 227.424 133.732L238.409 144.185C243.308 148.811 247.11 154.473 249.539 160.757C252.65 168.905 251.533 173.473 244.106 172.697C239.465 172.18 235.197 169.911 232.173 166.353L224.148 157.026L224.777 202.331Z" fill="#FFB8B8"/>
<path d="M218.199 228.117C217.085 228.044 216.004 227.716 215.038 227.158C214.071 226.6 213.247 225.828 212.627 224.9C212.008 223.972 211.61 222.913 211.466 221.807C211.321 220.701 211.433 219.576 211.793 218.52L213.451 213.657L214.709 201.387C216.648 197.431 219.393 198.023 222.575 201.072C224.597 200.874 225.031 198.851 224.777 196.038L231.155 204.624C231.701 205.359 232.04 206.226 232.136 207.137C232.233 208.047 232.083 208.966 231.703 209.799L225.285 223.88C224.673 225.221 223.667 226.345 222.402 227.102C221.136 227.859 219.67 228.213 218.199 228.117V228.117Z" fill="#2F2E41"/>
<path d="M298.554 171.341C286.913 177.948 283.265 178.14 271.654 182.825L261.587 177.162C249.763 181.534 241.469 175.54 232.485 166.622C238.364 156.83 235.764 144.105 239.407 144.285L282.98 157.97L284.868 162.689L298.554 171.341Z" fill="#2F2E41"/>
<path d="M284.554 161.116C269.168 167.776 252.602 160.725 238.463 145.228L229.1 107.417C228.99 107.001 228.966 106.566 229.029 106.14C229.093 105.714 229.244 105.305 229.471 104.939C229.699 104.573 229.999 104.258 230.354 104.013C230.708 103.767 231.109 103.597 231.531 103.513L242.395 101.34L247.744 109.834L258.441 100.396L269.801 104.11C271.311 104.604 272.659 105.499 273.7 106.699C274.742 107.899 275.437 109.36 275.713 110.925L284.554 161.116Z" fill="#575A89"/>
<path opacity="0.2" d="M260.115 193.171C259.285 192.854 258.543 192.343 257.951 191.681C257.358 191.018 256.934 190.223 256.713 189.363C256.491 188.502 256.479 187.601 256.678 186.735C256.877 185.869 257.281 185.064 257.855 184.386L265.047 175.903L270.081 178.735L267.489 189.302C267.302 190.067 266.954 190.783 266.468 191.403C265.983 192.023 265.371 192.533 264.674 192.899C263.977 193.264 263.21 193.478 262.424 193.525C261.638 193.572 260.851 193.451 260.115 193.171Z" fill="black"/>
<path d="M260.115 191.912C259.285 191.596 258.543 191.085 257.951 190.423C257.358 189.76 256.934 188.965 256.713 188.105C256.491 187.244 256.479 186.343 256.678 185.477C256.877 184.611 257.281 183.805 257.855 183.127L265.047 174.645L270.081 177.476L267.489 188.044C267.302 188.809 266.954 189.525 266.468 190.145C265.983 190.765 265.371 191.274 264.674 191.64C263.977 192.006 263.21 192.219 262.424 192.266C261.638 192.313 260.851 192.193 260.115 191.912V191.912Z" fill="#FFB8B8"/>
<path d="M271.34 179.993L263.789 174.959L274.801 145.7L270.711 104.486L274.442 106.818C276.444 108.069 278.171 109.714 279.518 111.654C280.866 113.593 281.805 115.785 282.28 118.098L288.329 147.588C285.682 161.181 281.27 173.14 271.34 179.993Z" fill="#575A89"/>
<path opacity="0.2" d="M266.778 133.273L270.553 152.15L267.448 163.19L266.778 133.273Z" fill="black"/>
<path d="M237.604 85.7329C237.604 85.7329 231.736 66.5274 249.671 70.5553C252.453 71.1801 254.857 72.7972 256.769 74.9123C256.94 75.0973 257.15 75.2425 257.383 75.3379C257.616 75.4332 257.868 75.4763 258.12 75.4642C260.985 75.4642 262.754 85.7024 257.024 90.2046C257.024 90.2046 258.193 84.1462 256.068 82.0819C255.686 81.7325 255.366 81.3206 255.122 80.8639C253.739 78.0736 249.089 77.1577 245.882 77.3952C244.245 77.5165 244.102 80.371 242.29 79.9723C238.166 79.0651 236.85 83.8422 237.604 85.7329Z" fill="#2F2E41"/>
<path d="M255.657 114.238L255.538 115.108L254.805 120.474L253.605 129.26L253.304 131.46C253.281 131.628 253.198 131.782 253.071 131.894C252.943 132.005 252.779 132.067 252.61 132.067H244.606C244.437 132.067 244.273 132.005 244.146 131.894C244.018 131.783 243.935 131.63 243.912 131.462L243.606 129.26L242.386 120.474L241.64 115.104L241.52 114.24C241.506 114.141 241.514 114.04 241.542 113.944C241.571 113.848 241.62 113.759 241.685 113.683C241.751 113.608 241.832 113.547 241.924 113.506C242.015 113.464 242.114 113.442 242.214 113.442H254.962C255.062 113.443 255.161 113.464 255.252 113.505C255.343 113.547 255.424 113.607 255.49 113.683C255.556 113.758 255.605 113.847 255.633 113.942C255.662 114.038 255.67 114.139 255.657 114.238Z" fill="#EBEDF2"/>
<path d="M243.059 111.115H254.159C254.251 111.115 254.342 111.133 254.427 111.168C254.512 111.203 254.59 111.255 254.655 111.32C254.72 111.385 254.771 111.462 254.807 111.547C254.842 111.632 254.86 111.723 254.86 111.816V112.742C254.86 112.927 254.786 113.106 254.655 113.237C254.523 113.369 254.345 113.443 254.159 113.443H243.059C242.873 113.443 242.694 113.369 242.563 113.237C242.432 113.106 242.358 112.927 242.358 112.742V111.816C242.358 111.723 242.376 111.632 242.411 111.547C242.446 111.462 242.498 111.385 242.563 111.32C242.628 111.255 242.705 111.203 242.79 111.168C242.875 111.133 242.967 111.115 243.059 111.115V111.115Z" fill="#3F3D56"/>
<path d="M256.659 114.607C251.308 115.191 245.909 115.191 240.558 114.607C240.466 114.607 240.375 114.588 240.29 114.553C240.205 114.518 240.128 114.466 240.062 114.401C239.997 114.336 239.946 114.259 239.911 114.174C239.875 114.089 239.857 113.998 239.857 113.906V112.98C239.857 112.887 239.875 112.796 239.911 112.711C239.946 112.626 239.997 112.549 240.062 112.484C240.128 112.419 240.205 112.367 240.29 112.332C240.375 112.297 240.466 112.279 240.558 112.279C245.905 112.936 251.312 112.936 256.659 112.279C256.845 112.279 257.024 112.352 257.155 112.484C257.287 112.615 257.36 112.794 257.36 112.98V113.906C257.36 114.092 257.287 114.27 257.155 114.401C257.024 114.533 256.845 114.607 256.659 114.607V114.607Z" fill="#3F3D56"/>
<path d="M256.062 128.703C256.154 129.587 256.032 130.48 255.708 131.307C255.383 132.135 254.865 132.872 254.197 133.457C253.528 134.043 252.729 134.459 251.867 134.672C251.004 134.885 250.103 134.888 249.239 134.68L238.425 132.084L238.683 126.314L249.285 123.865C250.052 123.688 250.848 123.676 251.62 123.829C252.393 123.983 253.123 124.299 253.764 124.757C254.405 125.214 254.941 125.803 255.337 126.483C255.733 127.163 255.98 127.92 256.062 128.703V128.703Z" fill="#FFB8B8"/>
<path d="M241.451 133.116L212.267 133.845C211.214 133.872 210.167 133.668 209.2 133.249C208.234 132.829 207.37 132.204 206.67 131.416C205.969 130.629 205.449 129.698 205.145 128.689C204.841 127.68 204.761 126.617 204.91 125.574V125.574C205.144 123.939 205.928 122.433 207.134 121.305L220.875 108.451C223.423 106.067 226.599 104.459 230.029 103.816L234.844 102.913L237.676 124.307L221.316 122.419L240.507 124.621L241.451 133.116Z" fill="#575A89"/>
<path d="M203.004 195.893H128.498C127.836 195.893 127.2 195.63 126.732 195.161C126.263 194.693 126 194.057 126 193.395V193.395C153.008 190.256 179.509 190.256 205.502 193.395C205.502 194.057 205.239 194.693 204.77 195.161C204.302 195.63 203.666 195.893 203.004 195.893Z" fill="#2F2E41"/>
<path d="M205.502 193.542L126 193.395L135.214 177.891L135.258 177.818V143.649C135.258 143.235 135.34 142.824 135.498 142.441C135.657 142.058 135.89 141.71 136.183 141.416C136.476 141.123 136.824 140.89 137.208 140.732C137.591 140.573 138.001 140.491 138.416 140.491H192.645C193.06 140.491 193.47 140.573 193.854 140.732C194.237 140.89 194.585 141.123 194.878 141.416C195.172 141.71 195.404 142.058 195.563 142.441C195.722 142.824 195.803 143.235 195.803 143.649V178.053L205.502 193.542Z" fill="#3F3D56"/>
<path d="M138.344 142.696C138.071 142.696 137.81 142.804 137.617 142.997C137.424 143.19 137.316 143.452 137.315 143.724V174.879C137.316 175.151 137.424 175.413 137.617 175.606C137.81 175.798 138.071 175.907 138.344 175.907H193.158C193.431 175.907 193.692 175.798 193.885 175.606C194.078 175.413 194.186 175.151 194.187 174.879V143.724C194.186 143.452 194.078 143.19 193.885 142.997C193.692 142.805 193.431 142.696 193.158 142.696L138.344 142.696Z" fill="white"/>
<path d="M138.704 180.022C138.62 180.022 138.538 180.046 138.467 180.092C138.396 180.137 138.339 180.202 138.304 180.279L135.465 186.451C135.434 186.518 135.42 186.592 135.425 186.665C135.43 186.739 135.454 186.811 135.494 186.873C135.534 186.935 135.589 186.986 135.654 187.022C135.718 187.057 135.791 187.076 135.865 187.076H195.57C195.646 187.076 195.72 187.057 195.785 187.02C195.851 186.983 195.906 186.931 195.945 186.867C195.985 186.803 196.007 186.73 196.011 186.655C196.014 186.58 195.998 186.505 195.965 186.438L192.879 180.266C192.842 180.192 192.786 180.131 192.716 180.088C192.647 180.044 192.566 180.022 192.484 180.022L138.704 180.022Z" fill="#2F2E41"/>
<path d="M165.53 142.181C165.896 142.181 166.192 141.885 166.192 141.52C166.192 141.155 165.896 140.859 165.53 140.859C165.165 140.859 164.869 141.155 164.869 141.52C164.869 141.885 165.165 142.181 165.53 142.181Z" fill="white"/>
<path d="M159.662 188.251C159.565 188.252 159.471 188.284 159.394 188.342C159.317 188.401 159.262 188.484 159.237 188.578L158.524 191.223C158.507 191.288 158.505 191.357 158.518 191.423C158.531 191.489 158.559 191.552 158.6 191.606C158.641 191.659 158.694 191.703 158.755 191.733C158.816 191.763 158.882 191.778 158.95 191.778H172.494C172.564 191.778 172.633 191.762 172.696 191.729C172.758 191.697 172.812 191.65 172.853 191.593C172.894 191.536 172.92 191.47 172.93 191.4C172.94 191.331 172.933 191.26 172.91 191.193L171.995 188.548C171.965 188.461 171.909 188.386 171.834 188.333C171.759 188.28 171.67 188.251 171.578 188.251H159.662Z" fill="#2F2E41"/>
<path d="M195.803 177.303V177.891H135.214L135.259 177.818V177.303H195.803Z" fill="#2F2E41"/>
<path d="M152.458 155.404C157.538 155.351 162.618 155.26 167.697 155.191C169.391 155.168 171.085 155.148 172.778 155.131C174.237 155.116 174.241 152.847 172.778 152.862C167.698 152.915 162.619 153.005 157.539 153.075C155.845 153.098 154.152 153.118 152.458 153.135C150.999 153.15 150.995 155.419 152.458 155.404Z" fill="#69465F"/>
<path d="M152.458 160.699L172.99 160.486L178.829 160.426C180.288 160.41 180.292 158.141 178.829 158.156L158.297 158.369L152.458 158.43C150.999 158.445 150.995 160.714 152.458 160.699Z" fill="#69465F"/>
<path d="M152.458 165.993L172.99 165.781L178.829 165.72C180.288 165.705 180.292 163.436 178.829 163.451L158.297 163.664L152.458 163.724C150.999 163.739 150.995 166.009 152.458 165.993Z" fill="#69465F"/>
</g>
<defs>
<clipPath id="clip0">
<rect width="320" height="234" fill="white"/>
</clipPath>
</defs>
</svg>
