<svg width="36" height="36" viewBox="0 0 36 36" fill="none" xmlns="http://www.w3.org/2000/svg">
<path d="M10 31.5C8.4 31.5 6.8 29.925 6 29.25C2 26.1 0.8 24.975 0 24.3V33.75C0 34.9924 0.895625 36 2 36H18C19.1044 36 20 34.9924 20 33.75V24.3C19.2 24.975 18 26.1 14 29.25C13.2 29.925 11.6 31.5 10 31.5ZM18 18H2C0.895625 18 0 19.0076 0 20.25V21.375C1.6 22.725 1.4 22.725 7.2 27.45C7.8 27.9 9 29.25 10 29.25C11 29.25 12.2 27.9 12.8 27.675C18.6 22.95 18.4 22.95 20 21.6V20.25C20 19.0076 19.1044 18 18 18ZM34 11.25H14C12.8956 11.25 12 12.2576 12 13.5V15.75H18C20.0756 15.75 21.7869 17.5373 21.9819 19.8155L22 19.8V29.25H34C35.1044 29.25 36 28.2424 36 27V13.5C36 12.2576 35.1044 11.25 34 11.25ZM32 20.25H28V15.75H32V20.25ZM10 13.5C10 11.0187 11.7944 9 14 9H28V2.25C28 1.00758 27.1044 0 26 0H6C4.89563 0 4 1.00758 4 2.25V15.75H10V13.5Z" fill="#56CEA8"/>
</svg>
