<svg width="600" height="444" viewBox="0 0 600 444" fill="none" xmlns="http://www.w3.org/2000/svg">
<g clip-path="url(#clip0)">
<g opacity="0.1">
<path opacity="0.1" d="M480.427 314.547C480.427 314.547 437.594 308.986 469.538 378.31C469.538 378.31 498.649 365.835 499.809 337.698C500.044 332.222 498.263 326.85 494.803 322.599C491.343 318.348 486.443 315.515 481.034 314.635L480.427 314.547Z" fill="#057BE8"/>
<path opacity="0.1" d="M481.055 314.444C481.055 314.444 490.752 353.098 469.571 378.316" stroke="#535461" stroke-miterlimit="10"/>
<path opacity="0.1" d="M468.991 381.887C468.991 381.887 484.413 343.878 513.213 329.779C525.34 323.942 535.244 314.327 541.438 302.379C544.333 296.688 546.7 290.744 548.51 284.621" stroke="#535461" stroke-width="2" stroke-miterlimit="10"/>
<path opacity="0.1" d="M566.606 275.636C563.604 279.409 548.067 284.933 548.067 284.933C548.067 284.933 549.937 268.526 552.94 264.78C553.624 263.802 554.502 262.975 555.519 262.349C556.535 261.723 557.67 261.311 558.851 261.14C560.033 260.968 561.237 261.041 562.389 261.352C563.542 261.664 564.619 262.208 565.553 262.951C566.488 263.694 567.26 264.62 567.823 265.673C568.386 266.726 568.728 267.883 568.827 269.073C568.926 270.262 568.781 271.46 568.4 272.591C568.019 273.723 567.41 274.765 566.612 275.652L566.606 275.636Z" fill="#057BE8"/>
<path opacity="0.1" d="M561.274 305.524C556.702 307.06 540.667 303.238 540.667 303.238C540.667 303.238 551.14 290.506 555.712 288.969C556.82 288.515 558.009 288.293 559.205 288.317C560.402 288.341 561.581 288.61 562.669 289.108C563.758 289.606 564.733 290.321 565.533 291.211C566.334 292.1 566.944 293.145 567.325 294.279C567.707 295.414 567.851 296.614 567.75 297.807C567.648 298.999 567.303 300.158 566.736 301.212C566.169 302.266 565.392 303.193 564.452 303.934C563.513 304.676 562.431 305.217 561.274 305.524Z" fill="#057BE8"/>
<path opacity="0.1" d="M532.365 340.859C527.646 339.88 515.729 328.482 515.729 328.482C515.729 328.482 531.195 322.778 535.92 323.757C538.058 324.353 539.89 325.739 541.045 327.635C542.199 329.531 542.59 331.795 542.138 333.968C541.686 336.141 540.425 338.061 538.611 339.339C536.796 340.618 534.564 341.159 532.365 340.853V340.859Z" fill="#057BE8"/>
<path opacity="0.1" d="M504.474 362.669C499.655 362.499 485.983 353.284 485.983 353.284C485.983 353.284 500.268 345.037 505.086 345.212C507.295 345.437 509.336 346.493 510.795 348.166C512.255 349.84 513.023 352.005 512.945 354.224C512.867 356.443 511.949 358.55 510.376 360.117C508.803 361.684 506.693 362.594 504.474 362.663V362.669Z" fill="#057BE8"/>
<path opacity="0.1" d="M525.737 292.535C526.355 297.32 536.795 310.074 536.795 310.074C536.795 310.074 543.67 295.089 543.057 290.304C542.982 289.109 542.663 287.942 542.118 286.876C541.574 285.809 540.817 284.866 539.894 284.104C538.97 283.342 537.9 282.777 536.75 282.445C535.6 282.113 534.393 282.021 533.206 282.174C532.019 282.327 530.875 282.722 529.847 283.335C528.818 283.947 527.926 284.764 527.226 285.736C526.526 286.707 526.032 287.811 525.776 288.981C525.52 290.15 525.507 291.36 525.737 292.535Z" fill="#057BE8"/>
<path opacity="0.1" d="M493.437 318.48C495.455 322.855 509.237 331.906 509.237 331.906C509.237 331.906 511.315 315.548 509.297 311.173C508.867 310.057 508.213 309.04 507.374 308.186C506.536 307.333 505.531 306.66 504.423 306.21C503.314 305.76 502.125 305.542 500.929 305.57C499.732 305.597 498.555 305.87 497.468 306.371C496.381 306.872 495.409 307.591 494.611 308.482C493.813 309.374 493.206 310.42 492.829 311.555C492.451 312.69 492.31 313.891 492.415 315.083C492.519 316.275 492.867 317.433 493.437 318.485V318.48Z" fill="#057BE8"/>
<path opacity="0.1" d="M465.502 347.979C466.749 352.639 478.808 363.883 478.808 363.883C478.808 363.883 483.62 348.116 482.368 343.456C482.135 342.281 481.663 341.167 480.982 340.181C480.301 339.196 479.424 338.361 478.407 337.728C477.39 337.095 476.254 336.678 475.069 336.502C473.884 336.326 472.675 336.395 471.518 336.706C470.361 337.016 469.28 337.561 468.342 338.306C467.404 339.051 466.629 339.981 466.065 341.038C465.501 342.094 465.16 343.256 465.063 344.45C464.966 345.644 465.115 346.845 465.502 347.979Z" fill="#057BE8"/>
<path opacity="0.25" d="M566.606 275.636C563.604 279.409 548.067 284.933 548.067 284.933C548.067 284.933 549.937 268.526 552.94 264.78C553.624 263.802 554.502 262.975 555.519 262.349C556.535 261.723 557.67 261.311 558.851 261.14C560.033 260.968 561.237 261.041 562.389 261.352C563.542 261.664 564.619 262.208 565.553 262.951C566.488 263.694 567.26 264.62 567.823 265.673C568.386 266.726 568.728 267.883 568.827 269.073C568.926 270.262 568.781 271.46 568.4 272.591C568.019 273.723 567.41 274.765 566.612 275.652L566.606 275.636Z" fill="black"/>
<path opacity="0.25" d="M561.274 305.524C556.702 307.06 540.667 303.238 540.667 303.238C540.667 303.238 551.14 290.506 555.712 288.969C556.82 288.515 558.009 288.293 559.205 288.317C560.402 288.341 561.581 288.61 562.669 289.108C563.758 289.606 564.733 290.321 565.533 291.211C566.334 292.1 566.944 293.145 567.325 294.279C567.707 295.414 567.851 296.614 567.75 297.807C567.648 298.999 567.303 300.158 566.736 301.212C566.169 302.266 565.392 303.193 564.452 303.934C563.513 304.676 562.431 305.217 561.274 305.524Z" fill="black"/>
<path opacity="0.25" d="M532.365 340.859C527.646 339.88 515.729 328.482 515.729 328.482C515.729 328.482 531.195 322.778 535.92 323.757C538.058 324.353 539.89 325.739 541.045 327.635C542.199 329.531 542.59 331.795 542.138 333.968C541.686 336.141 540.425 338.061 538.611 339.339C536.796 340.618 534.564 341.159 532.365 340.853V340.859Z" fill="black"/>
<path opacity="0.25" d="M504.474 362.669C499.655 362.499 485.983 353.284 485.983 353.284C485.983 353.284 500.268 345.037 505.086 345.212C507.295 345.437 509.336 346.493 510.795 348.166C512.255 349.84 513.023 352.005 512.945 354.224C512.867 356.443 511.949 358.55 510.376 360.117C508.803 361.684 506.693 362.594 504.474 362.663V362.669Z" fill="black"/>
<path opacity="0.25" d="M525.737 292.535C526.355 297.32 536.795 310.074 536.795 310.074C536.795 310.074 543.67 295.089 543.057 290.304C542.982 289.109 542.663 287.942 542.118 286.876C541.574 285.809 540.817 284.866 539.894 284.104C538.97 283.342 537.9 282.777 536.75 282.445C535.6 282.113 534.393 282.021 533.206 282.174C532.019 282.327 530.875 282.722 529.847 283.335C528.818 283.947 527.926 284.764 527.226 285.736C526.526 286.707 526.032 287.811 525.776 288.981C525.52 290.15 525.507 291.36 525.737 292.535Z" fill="black"/>
<path opacity="0.25" d="M493.437 318.48C495.455 322.855 509.237 331.906 509.237 331.906C509.237 331.906 511.315 315.548 509.297 311.173C508.867 310.057 508.213 309.04 507.374 308.186C506.536 307.333 505.531 306.66 504.423 306.21C503.314 305.76 502.125 305.542 500.929 305.57C499.732 305.597 498.555 305.87 497.468 306.371C496.381 306.872 495.409 307.591 494.611 308.482C493.813 309.374 493.206 310.42 492.829 311.555C492.451 312.69 492.31 313.891 492.415 315.083C492.519 316.275 492.867 317.433 493.437 318.485V318.48Z" fill="black"/>
<path opacity="0.25" d="M465.502 347.979C466.749 352.639 478.808 363.883 478.808 363.883C478.808 363.883 483.62 348.116 482.368 343.456C482.135 342.281 481.663 341.167 480.982 340.181C480.301 339.196 479.424 338.361 478.407 337.728C477.39 337.095 476.254 336.678 475.069 336.502C473.884 336.326 472.675 336.395 471.518 336.706C470.361 337.016 469.28 337.561 468.342 338.306C467.404 339.051 466.629 339.981 466.065 341.038C465.501 342.094 465.16 343.256 465.063 344.45C464.966 345.644 465.115 346.845 465.502 347.979Z" fill="black"/>
<path opacity="0.1" d="M489.532 399.18C489.532 399.18 504.955 361.17 533.754 347.071C545.876 341.231 555.775 331.614 561.963 319.666C564.858 313.976 567.225 308.032 569.035 301.909" stroke="#535461" stroke-width="2" stroke-miterlimit="10"/>
<path opacity="0.1" d="M587.121 292.918C584.118 296.691 568.581 302.215 568.581 302.215C568.581 302.215 570.451 285.808 573.454 282.062C574.944 280.405 577.011 279.379 579.232 279.194C581.453 279.009 583.661 279.678 585.405 281.066C587.149 282.453 588.299 284.453 588.618 286.659C588.938 288.864 588.405 291.109 587.126 292.934L587.121 292.918Z" fill="#057BE8"/>
<path opacity="0.1" d="M581.799 322.806C577.227 324.342 561.192 320.52 561.192 320.52C561.192 320.52 571.665 307.788 576.237 306.251C578.386 305.681 580.67 305.95 582.628 307.003C584.585 308.057 586.068 309.815 586.776 311.922C587.484 314.029 587.363 316.326 586.439 318.348C585.515 320.369 583.856 321.963 581.799 322.806Z" fill="#057BE8"/>
<path opacity="0.1" d="M552.89 358.162C548.171 357.184 536.254 345.786 536.254 345.786C536.254 345.786 551.72 340.082 556.445 341.061C558.583 341.657 560.415 343.043 561.57 344.939C562.724 346.835 563.115 349.098 562.663 351.271C562.211 353.445 560.95 355.365 559.136 356.643C557.321 357.922 555.089 358.463 552.89 358.157V358.162Z" fill="#057BE8"/>
<path opacity="0.1" d="M524.993 379.945C520.175 379.776 506.503 370.561 506.503 370.561C506.503 370.561 520.788 362.324 525.606 362.494C527.815 362.719 529.856 363.775 531.315 365.448C532.774 367.122 533.543 369.287 533.465 371.506C533.387 373.725 532.469 375.832 530.895 377.399C529.322 378.966 527.213 379.876 524.993 379.945Z" fill="#057BE8"/>
<path opacity="0.1" d="M546.256 309.839C546.874 314.624 557.315 327.378 557.315 327.378C557.315 327.378 564.189 312.393 563.577 307.607C563.502 306.413 563.182 305.246 562.638 304.179C562.094 303.113 561.337 302.169 560.413 301.407C559.49 300.645 558.42 300.081 557.269 299.749C556.119 299.417 554.913 299.325 553.726 299.478C552.538 299.631 551.395 300.026 550.366 300.638C549.337 301.251 548.445 302.068 547.745 303.039C547.045 304.011 546.552 305.115 546.296 306.285C546.04 307.454 546.026 308.664 546.256 309.839Z" fill="#057BE8"/>
<path opacity="0.1" d="M513.962 335.74C515.98 340.115 529.762 349.166 529.762 349.166C529.762 349.166 531.84 332.808 529.822 328.433C528.763 326.478 527 325 524.891 324.298C522.781 323.596 520.483 323.723 518.464 324.654C516.445 325.585 514.856 327.249 514.02 329.309C513.184 331.369 513.163 333.67 513.962 335.745V335.74Z" fill="#057BE8"/>
<path opacity="0.1" d="M486.027 365.272C487.274 369.932 499.333 381.176 499.333 381.176C499.333 381.176 504.146 365.409 502.893 360.749C502.177 358.648 500.689 356.897 498.73 355.851C496.771 354.806 494.488 354.544 492.344 355.119C490.199 355.694 488.354 357.063 487.181 358.948C486.008 360.834 485.595 363.094 486.027 365.272Z" fill="#057BE8"/>
</g>
<path opacity="0.1" d="M6.48071 235.149C15.9748 275.729 36.0733 310.807 67.837 327.81C133.847 363.145 282.718 344.922 393.826 323.981C449.964 313.439 500.922 284.313 538.496 241.291L6.48071 235.149Z" fill="#057BE8"/>
<path opacity="0.1" d="M589.117 44.14H528.154C526.757 44.14 525.416 43.5849 524.428 42.5967C523.44 41.6085 522.885 40.2682 522.885 38.8707C522.885 37.4731 523.44 36.1329 524.428 35.1447C525.416 34.1565 526.757 33.6013 528.154 33.6013H538.693C537.295 33.6013 535.955 33.0462 534.967 32.058C533.979 31.0698 533.424 29.7295 533.424 28.332C533.424 26.9345 533.979 25.5942 534.967 24.606C535.955 23.6178 537.295 23.0626 538.693 23.0626H531.168C529.77 23.0626 528.43 22.5075 527.442 21.5193C526.453 20.5311 525.898 19.1908 525.898 17.7933C525.898 16.3958 526.453 15.0555 527.442 14.0673C528.43 13.0791 529.77 12.5239 531.168 12.5239H562.986C555.926 9.24255 547.673 6.9073 538.168 5.68226C451.408 -5.46349 420.432 1.90867 409.505 9.51053C396.024 18.8625 380.984 25.7424 364.911 29.0566C311.375 40.0875 211.266 53.3771 120.531 24.7908C75.4334 10.5715 41.9142 34.5912 21.8267 74.7115H599.699C598.945 63.0517 596.686 52.2888 592.54 42.8603C591.59 43.684 590.375 44.1382 589.117 44.14Z" fill="#057BE8"/>
<path opacity="0.1" d="M1.30708 150.451C-1.03335 174.053 -0.237076 197.86 3.67514 221.252L538.912 240.826C553.811 223.687 566.321 204.609 576.101 184.113L1.30708 150.451ZM213 200.957H202.461C203.859 200.957 205.199 201.512 206.187 202.5C207.175 203.489 207.73 204.829 207.73 206.226C207.73 207.624 207.175 208.964 206.187 209.952C205.199 210.941 203.859 211.496 202.461 211.496H141.498C140.101 211.496 138.761 210.941 137.772 209.952C136.784 208.964 136.229 207.624 136.229 206.226C136.229 204.829 136.784 203.489 137.772 202.5C138.761 201.512 140.101 200.957 141.498 200.957H152.037C150.64 200.957 149.299 200.402 148.311 199.414C147.323 198.426 146.768 197.085 146.768 195.688C146.768 194.29 147.323 192.95 148.311 191.962C149.299 190.974 150.64 190.418 152.037 190.418H144.512C143.114 190.418 141.774 189.863 140.786 188.875C139.798 187.887 139.243 186.547 139.243 185.149C139.243 183.752 139.798 182.411 140.786 181.423C141.774 180.435 143.114 179.88 144.512 179.88H205.474C206.872 179.88 208.212 180.435 209.2 181.423C210.189 182.411 210.744 183.752 210.744 185.149C210.744 186.547 210.189 187.887 209.2 188.875C208.212 189.863 206.872 190.418 205.474 190.418H213C214.397 190.418 215.737 190.974 216.726 191.962C217.714 192.95 218.269 194.29 218.269 195.688C218.269 197.085 217.714 198.426 216.726 199.414C215.737 200.402 214.397 200.957 213 200.957Z" fill="#057BE8"/>
<path opacity="0.1" d="M599.727 75.078L15.3733 89.2973C8.26908 107.569 3.58218 128.225 1.39459 149.636H589.489C593.328 137.059 596.168 124.198 597.982 111.173C599.732 98.589 600.432 86.4151 599.727 75.078ZM120.027 121.657H109.489C110.886 121.657 112.226 122.212 113.215 123.2C114.203 124.189 114.758 125.529 114.758 126.926C114.758 128.324 114.203 129.664 113.215 130.652C112.226 131.641 110.886 132.196 109.489 132.196H48.5261C47.1286 132.196 45.7883 131.641 44.8001 130.652C43.8119 129.664 43.2568 128.324 43.2568 126.926C43.2568 125.529 43.8119 124.189 44.8001 123.2C45.7883 122.212 47.1286 121.657 48.5261 121.657H59.0648C57.6673 121.657 56.327 121.102 55.3388 120.114C54.3506 119.126 53.7955 117.785 53.7955 116.388C53.7955 114.99 54.3506 113.65 55.3388 112.662C56.327 111.674 57.6673 111.118 59.0648 111.118H51.5395C50.142 111.118 48.8017 110.563 47.8135 109.575C46.8253 108.587 46.2702 107.247 46.2702 105.849C46.2702 104.452 46.8253 103.111 47.8135 102.123C48.8017 101.135 50.142 100.58 51.5395 100.58H112.502C113.9 100.58 115.24 101.135 116.228 102.123C117.216 103.111 117.771 104.452 117.771 105.849C117.771 107.247 117.216 108.587 116.228 109.575C115.24 110.563 113.9 111.118 112.502 111.118H120.027C121.425 111.118 122.765 111.674 123.753 112.662C124.742 113.65 125.297 114.99 125.297 116.388C125.297 117.785 124.742 119.126 123.753 120.114C122.765 121.102 121.425 121.657 120.027 121.657Z" fill="#057BE8"/>
<path d="M513.361 443.697C513.361 443.697 488.991 310.036 442.521 288.346C403.145 269.954 360.563 257.555 348.455 254.192C346.647 251.28 344.557 248.552 342.215 246.049C325.666 228.772 315.723 229.095 314.115 229.308C313.352 225.882 312.804 222.412 312.475 218.917C312.425 218.37 312.376 217.862 312.332 217.32L312.475 217.249C312.376 216.216 312.289 215.149 312.212 214.05C318.968 210.444 325.188 205.914 330.692 200.591C330.763 200.826 330.823 201.061 330.9 201.302C342.826 191.221 354.506 180.866 365.939 170.238C369.221 167.17 372.666 163.839 373.782 159.513C374.139 158.025 374.277 156.492 374.192 154.963C374.34 151.682 373.563 148.329 373.432 145.004C373.432 144.457 373.492 143.949 373.563 143.429C374.329 137.987 378.113 133.519 381.22 128.953C388.98 117.412 393.031 103.777 392.83 89.8715C392.915 83.2085 391.993 76.5709 390.096 70.1832C387.673 62.0782 382.631 53.563 374.236 51.7911C370.987 51.1075 367.613 51.5341 364.299 51.3208C350.577 50.4457 340.306 39.289 329.363 31.1129C316.007 21.1825 300.212 15.052 283.653 13.3716C278.485 12.8247 273.147 12.7864 268.231 14.4271C257.189 18.1023 250.484 29.4504 239.847 34.1154C231.982 37.5827 222.893 37.0194 214.69 39.6227C202.477 43.5056 192.114 56.0295 191.84 68.898C191.84 69.3738 191.84 69.8496 191.84 70.3254C191.84 70.4075 191.84 70.4895 191.84 70.5661C191.704 77.0687 194.028 83.6916 194.214 90.3473C194.214 90.9489 194.223 91.5523 194.241 92.1575C194.181 99.3438 193.322 106.552 190.703 113.306C189.292 116.943 187.476 121.154 187.771 124.791C187.607 127.017 188.039 129.106 189.587 130.807L192.229 128.477C191.343 133.272 190.898 138.138 190.9 143.013C190.9 167.591 202.078 189.598 219.71 204.408C219.812 206.045 219.911 207.799 220.005 209.669C220.421 217.774 220.749 227.941 220.656 239.021L194.865 262.729L128.559 292.808C128.559 292.808 67.9191 305.617 80.979 390.807L87.2136 443.703H142.576L142.45 443.981H224.621L224.67 443.703H420.175L420.137 443.981H427.793V443.703L513.361 443.697ZM314.602 230.665C316.278 234.131 317.597 237.759 318.54 241.493C316.605 237.9 315.175 234.058 314.29 230.074L314.372 230.222L314.602 230.665ZM220.634 241.602C220.634 242.645 220.616 243.697 220.58 244.758L220.448 244.944C220.44 243.818 220.502 242.693 220.634 241.575V241.602Z" fill="url(#paint0_linear)"/>
<path d="M442.521 288.346C488.991 310.036 513.361 443.697 513.361 443.697L427.793 443.703V443.981H420.137L420.175 443.703H224.67L224.621 443.981H142.45L142.576 443.703H87.2136L80.979 390.807C67.9191 305.617 128.559 292.808 128.559 292.808L194.865 262.729C194.865 262.729 223 240.5 224 237.5L252 229.308L302.051 231.024C303.659 230.811 325.666 228.772 342.215 246.049C344.557 248.552 346.647 251.28 348.455 254.192C360.563 257.555 403.145 269.954 442.521 288.346Z" fill="#575A89"/>
<path d="M336.232 255.018L325.294 359.475L266.776 378.07C266.776 378.07 190.757 363.85 210.446 322.833C224.452 293.656 224.063 241.515 222.674 213.842C222.127 202.609 221.384 195.406 221.384 195.406C221.384 195.406 320.919 108.45 312.715 186.656C311.129 201.799 311.036 213.64 311.917 222.893C315.608 261.416 336.232 255.018 336.232 255.018Z" fill="#FDE5C2"/>
<path opacity="0.03" d="M336.232 255.018L325.294 359.475L266.776 378.07C266.776 378.07 190.757 363.85 210.446 322.833C224.452 293.656 224.063 241.515 222.674 213.842C222.127 202.609 221.384 195.406 221.384 195.406C221.384 195.406 320.919 108.45 312.715 186.656C311.129 201.799 311.036 213.64 311.917 222.893C315.608 261.416 336.232 255.018 336.232 255.018Z" fill="#FDE5C2"/>
<path opacity="0.1" d="M312.715 185.015C311.129 200.159 311.036 211.999 311.917 221.252C297.865 228.924 281.821 232.165 265.894 230.549C249.966 228.934 234.9 222.538 222.674 212.201C222.127 200.968 221.384 193.765 221.384 193.765C221.384 193.765 320.919 106.809 312.715 185.015Z" fill="black"/>
<path d="M273.886 227.678C317.682 227.678 353.186 192.175 353.186 148.378C353.186 104.582 317.682 69.0785 273.886 69.0785C230.089 69.0785 194.586 104.582 194.586 148.378C194.586 192.175 230.089 227.678 273.886 227.678Z" fill="#FDE5C2"/>
<path opacity="0.03" d="M273.886 227.678C317.682 227.678 353.186 192.175 353.186 148.378C353.186 104.582 317.682 69.0785 273.886 69.0785C230.089 69.0785 194.586 104.582 194.586 148.378C194.586 192.175 230.089 227.678 273.886 227.678Z" fill="#FDE5C2"/>
<path opacity="0.1" d="M143.177 360.569C143.177 360.569 168.882 413.071 170.249 443.971L143.177 360.569Z" fill="black"/>
<path opacity="0.1" d="M423.188 390.654L415.805 443.976H423.188V390.654Z" fill="black"/>
<path opacity="0.1" d="M148.92 443.971L189.664 351.272C189.664 351.272 201.149 329.396 203.883 307.52C206.618 285.644 221.384 251.19 221.384 251.19C221.384 251.19 258.026 204.703 274.98 211.266C291.933 217.829 260.213 242.439 260.213 242.439C260.213 242.439 306.7 260.487 274.98 314.083C243.26 367.678 242.713 357.834 242.713 357.834L227.126 443.971H148.92Z" fill="black"/>
<path d="M147.826 443.971L188.57 351.272C188.57 351.272 200.055 329.396 202.789 307.52C204.528 293.612 211.129 274.619 215.707 262.625C218.695 254.784 223.091 247.556 228.679 241.296C240.525 228.039 262.04 206.661 273.886 211.255C290.839 217.818 259.119 242.428 259.119 242.428C259.119 242.428 305.606 260.476 273.886 314.072C242.166 367.668 241.619 357.823 241.619 357.823L226.032 443.96L147.826 443.971Z" fill="#FDE5C2"/>
<path opacity="0.15" d="M298.223 105.447C299.129 105.447 299.863 104.713 299.863 103.806C299.863 102.9 299.129 102.166 298.223 102.166C297.316 102.166 296.582 102.9 296.582 103.806C296.582 104.713 297.316 105.447 298.223 105.447Z" fill="white"/>
<path opacity="0.15" d="M290.566 108.728C291.472 108.728 292.207 107.994 292.207 107.088C292.207 106.182 291.472 105.447 290.566 105.447C289.66 105.447 288.925 106.182 288.925 107.088C288.925 107.994 289.66 108.728 290.566 108.728Z" fill="white"/>
<path opacity="0.1" d="M217.55 48.4441C225.463 45.8846 234.247 46.437 241.838 43.0353C252.103 38.4304 258.573 27.2847 269.226 23.6752C273.973 22.0673 279.125 22.1274 284.107 22.6415C300.128 24.3089 315.386 30.3373 328.22 40.0711C338.78 48.105 348.69 59.0594 361.931 59.918C365.13 60.1258 368.384 59.7047 371.518 60.3774C379.634 62.1165 384.495 70.4785 386.831 78.425C389.532 87.8424 390.166 97.7326 388.687 107.418C387.209 117.103 383.654 126.354 378.266 134.537C375.269 139.021 371.616 143.413 370.878 148.756C370.156 153.995 372.387 159.426 371.086 164.556C369.992 168.805 366.71 172.076 363.517 175.089C352.487 185.52 341.216 195.683 329.702 205.578C323.719 186.568 332.497 166.098 331.129 146.218C330.582 138.474 327.848 130.019 321.017 126.366C314.624 122.953 306.453 124.725 299.984 121.444C292.765 117.807 289.8 109.193 284.342 103.232C275.045 93.0599 258.906 91.7473 245.906 96.3413C232.907 100.935 222.281 110.386 211.999 119.601L193.311 136.363C189.664 132.25 192.431 125.939 194.405 120.798C197.348 113.093 197.993 104.785 197.796 96.6038C197.637 90.041 195.373 83.5603 195.504 77.1726C195.767 64.5721 205.764 52.256 217.55 48.4441Z" fill="black"/>
<path d="M217.55 46.8034C225.463 44.2439 234.247 44.7963 241.838 41.3946C252.103 36.7897 258.573 25.644 269.226 22.0345C273.973 20.4266 279.125 20.4867 284.107 21.0008C300.128 22.6682 315.386 28.6966 328.22 38.4304C338.78 46.4643 348.69 57.4187 361.931 58.2773C365.13 58.4851 368.384 58.064 371.518 58.7367C379.634 60.4758 384.495 68.8378 386.831 76.7843C389.532 86.2017 390.166 96.0919 388.687 105.777C387.209 115.462 383.654 124.713 378.266 132.896C375.269 137.38 371.616 141.772 370.878 147.115C370.156 152.354 372.387 157.785 371.086 162.915C369.992 167.164 366.71 170.435 363.517 173.448C352.487 183.879 341.216 194.042 329.702 203.938C323.719 184.928 332.497 164.457 331.129 144.578C330.582 136.833 327.848 128.378 321.017 124.725C314.624 121.313 306.453 123.085 299.984 119.803C292.765 116.166 289.8 107.553 284.342 101.591C275.045 91.4192 258.906 90.1066 245.906 94.7006C232.907 99.2945 222.281 108.745 211.999 117.96L193.311 134.722C189.664 130.61 192.431 124.299 194.405 119.158C197.348 111.452 197.993 103.145 197.796 94.9631C197.637 88.4003 195.373 81.9196 195.504 75.5319C195.767 62.9314 205.764 50.6153 217.55 46.8034Z" fill="#2F2E41"/>
</g>
<defs>
<linearGradient id="paint0_linear" x1="296.243" y1="443.971" x2="296.243" y2="13.0052" gradientUnits="userSpaceOnUse">
<stop stop-color="#808080" stop-opacity="0.44"/>
<stop offset="0.54" stop-color="#808080" stop-opacity="0.12"/>
<stop offset="1" stop-color="#808080" stop-opacity="0.1"/>
</linearGradient>
<clipPath id="clip0">
<rect width="600" height="443.976" fill="white"/>
</clipPath>
</defs>
</svg>
