<svg width="192" height="205" viewBox="0 0 192 205" fill="none" xmlns="http://www.w3.org/2000/svg">
<path d="M63.1286 146H57V199.157C57 199.157 96.5571 212.304 135 199.157V146H63.1286Z" fill="#3F3D56"/>
<path d="M95.5 152C116.763 152 134 149.538 134 146.5C134 143.462 116.763 141 95.5 141C74.237 141 57 143.462 57 146.5C57 149.538 74.237 152 95.5 152Z" fill="#3F3D56"/>
<path opacity="0.1" d="M95.5 152C116.763 152 134 149.538 134 146.5C134 143.462 116.763 141 95.5 141C74.237 141 57 143.462 57 146.5C57 149.538 74.237 152 95.5 152Z" fill="black"/>
<path d="M140.101 83.8686C130.5 119.767 97.617 142 97.617 142C97.617 142 80.2988 106.03 89.8992 70.1314C99.4996 34.2329 132.383 12 132.383 12C132.383 12 149.701 47.9701 140.101 83.8686Z" fill="#3F3D56"/>
<path d="M51.8992 83.8686C61.4996 119.767 94.383 142 94.383 142C94.383 142 111.701 106.03 102.101 70.1314C92.5005 34.2329 59.617 12 59.617 12C59.617 12 42.2988 47.9701 51.8992 83.8686Z" fill="#057BE8"/>
<path d="M66.2524 76.1401C92.762 102.097 96 142 96 142C96 142 56.2573 139.817 29.7476 113.86C3.23796 87.9025 0 48 0 48C0 48 39.7427 50.1827 66.2524 76.1401Z" fill="#3F3D56"/>
<path d="M125.748 76.1401C99.238 102.097 96 142 96 142C96 142 135.743 139.817 162.252 113.86C188.762 87.9025 192 48 192 48C192 48 152.257 50.1827 125.748 76.1401Z" fill="#3F3D56"/>
<path d="M96 24C103.18 24 109 18.6274 109 12C109 5.37258 103.18 0 96 0C88.8203 0 83 5.37258 83 12C83 18.6274 88.8203 24 96 24Z" fill="#057BE8"/>
<path d="M23.2502 99.1145C24.0948 102.152 27.0294 104 27.0294 104C27.0294 104 28.5945 100.923 27.7498 97.8855C26.9052 94.848 23.9706 93 23.9706 93C23.9706 93 22.4055 96.0769 23.2502 99.1145Z" fill="#057BE8"/>
<path d="M39.2893 116.835C38.3906 119.872 39.8726 123 39.8726 123C39.8726 123 42.8119 121.203 43.7107 118.165C44.6094 115.128 43.1274 112 43.1274 112C43.1274 112 40.1881 113.797 39.2893 116.835Z" fill="#057BE8"/>
</svg>
