<svg width="1027" height="924" viewBox="0 0 1027 924" fill="none" xmlns="http://www.w3.org/2000/svg">
<path d="M31.6494 413.895C16.4929 377.69 12.2179 335.447 19.6547 295.371C40.7289 182.01 100.552 -16.9526 258.88 11.2191C478.56 50.3465 542.417 60.1284 632.553 23.4356C722.688 -13.2573 878.536 -13.2138 927.358 69.8559C956.952 120.211 1056.92 345.922 993.078 424.176C929.238 502.431 1023.98 657.148 1026.87 739.37C1029.76 821.591 938.626 832.167 824.084 834.667C709.541 837.166 43.7944 808.701 43.7944 808.701C43.7944 808.701 -41.5549 617.162 26.0446 548.743C67.8757 506.431 49.1486 455.717 31.6494 413.895Z" fill="#F1758E" fill-opacity="0.65"/>
<path d="M98.2559 719.109C83.6051 718.446 28.7185 728.196 25.5027 731.934C24.6674 732.945 12.6643 779.387 65.4794 839.415C149.977 935.451 377.366 938.734 451.063 902.204C557.98 849.197 675.137 948.592 917.987 910.551C995.594 898.4 1047.46 743.716 1012.17 723.663C991.05 711.708 965.757 743.434 944.516 729.511C920.067 713.458 870.527 703.426 839.855 715.74C839.262 715.949 838.755 716.448 838.439 717.134C838.123 717.819 838.024 718.637 838.163 719.416C838.301 720.194 838.666 720.873 839.181 721.308C839.696 721.743 840.321 721.902 840.924 721.75L824.77 728.456C806.819 745.846 810.862 722.74 768.755 719.761L644.607 715.773C600.22 717.512 429.43 727.283 362.607 723.805H325.854C301.33 719.816 237.715 717.925 235.426 717.827L98.2559 719.109Z" fill="#F1758E" fill-opacity="0.65"/>
<g clip-path="url(#clip0)">
<path d="M244.11 180.414H183.509C177.683 180.419 172.097 182.736 167.977 186.856C163.858 190.975 161.541 196.561 161.536 202.388V268.088C160.761 268.042 159.986 267.973 159.223 267.88C144.866 266.37 131.216 260.879 119.813 252.026C108.411 243.173 99.7074 231.311 94.6854 217.777C89.6634 204.242 88.5222 189.574 91.3905 175.426C94.2588 161.278 101.023 148.212 110.919 137.702C120.816 127.192 133.452 119.656 147.402 115.943C161.352 112.231 176.063 112.489 189.874 116.689C203.686 120.889 216.049 128.864 225.571 139.715C235.092 150.566 241.393 163.861 243.763 178.101C243.89 178.864 244.006 179.639 244.11 180.414Z" fill="#F2F2F2"/>
<path d="M959.521 178.101H183.509C177.07 178.108 170.897 180.669 166.344 185.222C161.791 189.775 159.23 195.949 159.223 202.388V611.789C159.23 618.228 161.791 624.401 166.344 628.954C170.897 633.507 177.07 636.068 183.509 636.075H959.521C965.96 636.068 972.133 633.507 976.686 628.954C981.239 624.401 983.8 618.228 983.807 611.789V202.388C983.8 195.949 981.239 189.775 976.686 185.222C972.133 180.669 965.96 178.108 959.521 178.101ZM981.494 611.789C981.489 617.615 979.172 623.201 975.053 627.321C970.933 631.44 965.347 633.757 959.521 633.762H183.509C177.683 633.757 172.097 631.44 167.977 627.321C163.858 623.201 161.541 617.615 161.536 611.789V202.388C161.541 196.561 163.858 190.975 167.977 186.856C172.097 182.736 177.683 180.419 183.509 180.414H959.521C965.347 180.419 970.933 182.736 975.053 186.856C979.172 190.975 981.489 196.561 981.494 202.388V611.789Z" fill="#3F3D56"/>
<path d="M921.356 244.449H221.674C221.367 244.449 221.073 244.327 220.856 244.11C220.639 243.893 220.517 243.599 220.517 243.293C220.517 242.986 220.639 242.692 220.856 242.475C221.073 242.258 221.367 242.136 221.674 242.136H921.356C921.663 242.136 921.957 242.258 922.174 242.475C922.391 242.692 922.513 242.986 922.513 243.293C922.513 243.599 922.391 243.893 922.174 244.11C921.957 244.327 921.663 244.449 921.356 244.449Z" fill="#3F3D56"/>
<path d="M419.435 586.346C419.129 586.346 418.834 586.224 418.618 586.007C418.401 585.79 418.279 585.496 418.279 585.189V204.701C418.279 204.394 418.401 204.1 418.618 203.883C418.834 203.666 419.129 203.544 419.435 203.544C419.742 203.544 420.036 203.666 420.253 203.883C420.47 204.1 420.592 204.394 420.592 204.701V585.189C420.592 585.496 420.47 585.79 420.253 586.007C420.036 586.224 419.742 586.346 419.435 586.346Z" fill="#3F3D56"/>
<path d="M594.067 586.346C593.76 586.346 593.466 586.224 593.249 586.007C593.032 585.79 592.91 585.496 592.91 585.189V204.701C592.91 204.394 593.032 204.1 593.249 203.883C593.466 203.666 593.76 203.544 594.067 203.544C594.374 203.544 594.668 203.666 594.885 203.883C595.102 204.1 595.223 204.394 595.223 204.701V585.189C595.223 585.496 595.102 585.79 594.885 586.007C594.668 586.224 594.374 586.346 594.067 586.346Z" fill="#3F3D56"/>
<path d="M768.698 586.346C768.392 586.346 768.098 586.224 767.881 586.007C767.664 585.79 767.542 585.496 767.542 585.189V204.701C767.542 204.394 767.664 204.1 767.881 203.883C768.098 203.666 768.392 203.544 768.698 203.544C769.005 203.544 769.299 203.666 769.516 203.883C769.733 204.1 769.855 204.394 769.855 204.701V585.189C769.855 585.496 769.733 585.79 769.516 586.007C769.299 586.224 769.005 586.346 768.698 586.346Z" fill="#3F3D56"/>
<path d="M307.157 363.82H264.899C263.519 363.819 262.196 363.27 261.22 362.294C260.245 361.319 259.696 359.996 259.694 358.616V308.748C259.696 307.369 260.245 306.046 261.22 305.07C262.196 304.094 263.519 303.546 264.899 303.544H307.157C308.537 303.546 309.86 304.094 310.835 305.07C311.811 306.046 312.36 307.369 312.361 308.748V358.616C312.36 359.996 311.811 361.319 310.835 362.294C309.86 363.27 308.537 363.819 307.157 363.82Z" fill="#057BE8"/>
<path d="M367.295 506.07H325.037C323.657 506.068 322.334 505.52 321.358 504.544C320.383 503.568 319.834 502.246 319.832 500.866V450.998C319.834 449.618 320.383 448.295 321.358 447.32C322.334 446.344 323.657 445.795 325.037 445.794H367.295C368.675 445.795 369.998 446.344 370.973 447.32C371.949 448.295 372.498 449.618 372.499 450.998V500.866C372.498 502.246 371.949 503.568 370.973 504.544C369.998 505.52 368.675 506.068 367.295 506.07Z" fill="#057BE8"/>
<path d="M503.762 393.889H461.504C460.124 393.888 458.801 393.339 457.826 392.363C456.85 391.388 456.301 390.065 456.3 388.685V338.817C456.301 337.438 456.85 336.115 457.826 335.139C458.801 334.163 460.124 333.615 461.504 333.613H503.762C505.142 333.615 506.465 334.163 507.441 335.139C508.416 336.115 508.965 337.438 508.967 338.817V388.685C508.965 390.065 508.416 391.388 507.441 392.363C506.465 393.339 505.142 393.888 503.762 393.889Z" fill="#057BE8"/>
<path d="M680.707 339.534H638.448C637.069 339.532 635.746 338.984 634.77 338.008C633.794 337.032 633.246 335.709 633.244 334.33V284.462C633.246 283.082 633.794 281.759 634.77 280.784C635.746 279.808 637.069 279.259 638.448 279.258H680.707C682.087 279.259 683.41 279.808 684.385 280.784C685.361 281.759 685.91 283.082 685.911 284.462V334.33C685.91 335.71 685.361 337.032 684.385 338.008C683.41 338.984 682.087 339.532 680.707 339.534Z" fill="#057BE8"/>
<path d="M843.773 339.534H801.515C800.135 339.532 798.812 338.984 797.837 338.008C796.861 337.032 796.312 335.709 796.311 334.33V284.462C796.312 283.082 796.861 281.759 797.837 280.784C798.812 279.808 800.135 279.259 801.515 279.258H843.773C845.153 279.259 846.476 279.808 847.452 280.784C848.427 281.759 848.976 283.082 848.978 284.462V334.33C848.976 335.71 848.427 337.032 847.452 338.008C846.476 338.984 845.153 339.532 843.773 339.534Z" fill="#057BE8"/>
<path d="M918.946 353.412H876.688C875.308 353.41 873.985 352.862 873.009 351.886C872.034 350.91 871.485 349.587 871.483 348.208V298.34C871.485 296.96 872.034 295.637 873.009 294.662C873.985 293.686 875.308 293.137 876.688 293.136H918.946C920.326 293.137 921.649 293.686 922.624 294.662C923.6 295.637 924.149 296.96 924.15 298.34V348.208C924.149 349.588 923.6 350.91 922.624 351.886C921.649 352.862 920.326 353.41 918.946 353.412Z" fill="#E6E6E6"/>
<path d="M885.407 442.462H843.149C841.769 442.461 840.446 441.912 839.471 440.936C838.495 439.961 837.946 438.638 837.945 437.258V387.39C837.946 386.011 838.495 384.688 839.471 383.712C840.446 382.736 841.769 382.188 843.149 382.186H885.407C886.787 382.188 888.11 382.736 889.086 383.712C890.061 384.688 890.61 386.011 890.612 387.39V437.258C890.61 438.638 890.061 439.961 889.086 440.936C888.11 441.912 886.787 442.461 885.407 442.462Z" fill="#E6E6E6"/>
<path d="M742.001 423.958H699.743C698.363 423.957 697.04 423.408 696.065 422.432C695.089 421.457 694.54 420.134 694.539 418.754V368.886C694.54 367.507 695.089 366.184 696.065 365.208C697.04 364.232 698.363 363.684 699.743 363.682H742.001C743.381 363.684 744.704 364.232 745.68 365.208C746.655 366.184 747.204 367.507 747.206 368.886V418.754C747.204 420.134 746.655 421.457 745.68 422.432C744.704 423.408 743.381 423.957 742.001 423.958Z" fill="#FF6584"/>
<path d="M659.89 442.462H617.631C616.252 442.461 614.929 441.912 613.953 440.936C612.978 439.961 612.429 438.638 612.427 437.258V387.39C612.429 386.011 612.978 384.688 613.953 383.712C614.929 382.736 616.252 382.188 617.631 382.186H659.89C661.27 382.188 662.593 382.736 663.568 383.712C664.544 384.688 665.093 386.011 665.094 387.39V437.258C665.093 438.638 664.544 439.961 663.568 440.936C662.593 441.912 661.27 442.461 659.89 442.462Z" fill="#E6E6E6"/>
<path d="M482.945 521.104H440.687C439.307 521.103 437.984 520.554 437.009 519.579C436.033 518.603 435.484 517.28 435.483 515.9V466.032C435.484 464.653 436.033 463.33 437.009 462.354C437.984 461.378 439.307 460.83 440.687 460.828H482.945C484.325 460.83 485.648 461.378 486.624 462.354C487.599 463.33 488.148 464.653 488.15 466.032V515.9C488.148 517.28 487.599 518.603 486.624 519.579C485.648 520.554 484.325 521.103 482.945 521.104Z" fill="#E6E6E6"/>
<path d="M268.993 455.184H226.734C225.354 455.182 224.031 454.634 223.056 453.658C222.08 452.682 221.531 451.36 221.53 449.98V400.112C221.531 398.732 222.08 397.409 223.056 396.434C224.031 395.458 225.354 394.909 226.734 394.908H268.993C270.372 394.909 271.695 395.458 272.671 396.434C273.647 397.409 274.195 398.732 274.197 400.112V449.98C274.195 451.36 273.647 452.682 272.671 453.658C271.695 454.634 270.372 455.182 268.993 455.184Z" fill="#FF6584"/>
<path d="M388.112 363.82H345.854C344.474 363.819 343.151 363.27 342.175 362.294C341.2 361.319 340.651 359.996 340.649 358.616V308.748C340.651 307.369 341.2 306.046 342.175 305.07C343.151 304.094 344.474 303.546 345.854 303.544H388.112C389.492 303.546 390.815 304.094 391.79 305.07C392.766 306.046 393.315 307.369 393.316 308.748V358.616C393.315 359.996 392.766 361.319 391.79 362.294C390.815 363.27 389.492 363.819 388.112 363.82Z" fill="#E6E6E6"/>
<path d="M353.515 225.518H287.594C286.367 225.518 285.191 225.03 284.323 224.163C283.456 223.295 282.968 222.118 282.968 220.892C282.968 219.665 283.456 218.488 284.323 217.621C285.191 216.753 286.367 216.266 287.594 216.266H353.515C354.742 216.266 355.918 216.753 356.786 217.621C357.653 218.488 358.141 219.665 358.141 220.892C358.141 222.118 357.653 223.295 356.786 224.163C355.918 225.03 354.742 225.518 353.515 225.518Z" fill="#CCCCCC"/>
<path d="M539.711 225.518H473.791C472.564 225.518 471.387 225.03 470.52 224.163C469.652 223.295 469.165 222.118 469.165 220.892C469.165 219.665 469.652 218.488 470.52 217.621C471.387 216.753 472.564 216.266 473.791 216.266H539.711C540.938 216.266 542.115 216.753 542.982 217.621C543.85 218.488 544.337 219.665 544.337 220.892C544.337 222.118 543.85 223.295 542.982 224.163C542.115 225.03 540.938 225.518 539.711 225.518Z" fill="#CCCCCC"/>
<path d="M714.343 225.518H648.422C647.195 225.518 646.019 225.03 645.151 224.163C644.284 223.295 643.796 222.118 643.796 220.892C643.796 219.665 644.284 218.488 645.151 217.621C646.019 216.753 647.195 216.266 648.422 216.266H714.343C715.57 216.266 716.746 216.753 717.614 217.621C718.482 218.488 718.969 219.665 718.969 220.892C718.969 222.118 718.482 223.295 717.614 224.163C716.746 225.03 715.57 225.518 714.343 225.518Z" fill="#CCCCCC"/>
<path d="M877.409 225.518H811.489C810.262 225.518 809.085 225.03 808.218 224.163C807.35 223.295 806.863 222.118 806.863 220.892C806.863 219.665 807.35 218.488 808.218 217.621C809.085 216.753 810.262 216.266 811.489 216.266H877.409C878.636 216.266 879.813 216.753 880.68 217.621C881.548 218.488 882.035 219.665 882.035 220.892C882.035 222.118 881.548 223.295 880.68 224.163C879.813 225.03 878.636 225.518 877.409 225.518Z" fill="#CCCCCC"/>
<path d="M205.868 564.247C204.176 564.081 202.541 563.546 201.077 562.68C199.614 561.814 198.359 560.638 197.4 559.234C196.44 557.83 195.801 556.234 195.525 554.556C195.25 552.878 195.346 551.16 195.806 549.524L166.162 521.928L181.835 517.952L210.986 541.595C213.684 542.551 215.938 544.463 217.321 546.969C218.703 549.476 219.119 552.402 218.488 555.194C217.857 557.986 216.224 560.45 213.898 562.118C211.572 563.787 208.715 564.544 205.868 564.247Z" fill="#FFB8B8"/>
<path d="M246.802 768.209H260.981L267.725 713.52H246.799L246.802 768.209Z" fill="#FFB8B8"/>
<path d="M288.325 781.373L243.764 781.375L243.763 764.158L271.107 764.157C275.674 764.157 280.053 765.97 283.282 769.199C286.511 772.428 288.325 776.807 288.325 781.373L288.325 781.373Z" fill="#2F2E41"/>
<path d="M149.588 757.972L163.29 761.619L183.877 710.506L163.655 705.124L149.588 757.972Z" fill="#FFB8B8"/>
<path d="M186.327 781.377L143.266 769.915L147.694 753.278L174.118 760.311C178.531 761.486 182.296 764.365 184.586 768.316C186.875 772.266 187.502 776.965 186.327 781.377Z" fill="#2F2E41"/>
<path d="M264.793 757.854H243.158C241.792 757.859 240.473 757.352 239.461 756.433C238.45 755.515 237.819 754.25 237.693 752.89L224.559 616.502C224.463 615.501 224.022 614.565 223.312 613.854C222.601 613.143 221.666 612.701 220.666 612.603C219.666 612.505 218.663 612.758 217.828 613.319C216.994 613.879 216.38 614.712 216.092 615.675L177.958 743.12C177.555 744.475 176.644 745.622 175.416 746.321C174.188 747.021 172.737 747.219 171.366 746.874L151.24 741.842C150.537 741.666 149.877 741.354 149.295 740.922C148.714 740.49 148.224 739.947 147.854 739.325C147.483 738.703 147.239 738.014 147.136 737.297C147.033 736.58 147.073 735.85 147.253 735.149C147.582 733.865 180.11 606.745 180.394 605.438C187.764 551.12 196.582 536.564 201.319 528.745C201.711 528.098 202.071 527.503 202.395 526.941C202.801 526.237 205.301 519.256 206.887 514.723C207.093 513.985 207.449 513.299 207.934 512.706C208.419 512.113 209.021 511.628 209.703 511.279C229.607 501.1 252.895 508.146 259.559 510.549C260.663 510.938 261.612 511.674 262.263 512.648C282.252 542.8 272.442 717.917 270.273 752.716C270.183 754.108 269.566 755.413 268.548 756.368C267.531 757.322 266.188 757.853 264.793 757.854Z" fill="#2F2E41"/>
<path d="M208.961 412.391C224.649 412.391 237.366 399.674 237.366 383.986C237.366 368.299 224.649 355.581 208.961 355.581C193.274 355.581 180.556 368.299 180.556 383.986C180.556 399.674 193.274 412.391 208.961 412.391Z" fill="#FFB8B8"/>
<path d="M205.952 520.238L205.747 520.04C205.365 519.67 167.519 482.593 172.417 448.309C174.511 433.645 186.376 424.275 206.727 421.211C214.204 420.101 221.83 421.726 228.204 425.789C234.578 429.852 239.272 436.078 241.422 443.325L261.545 512.118L205.952 520.238Z" fill="#CCCCCC"/>
<path d="M186.581 546.609L159.614 519.812C157.77 517.969 156.431 515.683 155.726 513.173C155.021 510.663 154.974 508.014 155.589 505.481L168.645 452.376C169.036 450.784 169.749 449.29 170.741 447.986C171.733 446.681 172.982 445.594 174.411 444.792C175.839 443.99 177.418 443.489 179.048 443.322C180.678 443.154 182.325 443.323 183.887 443.817C186.865 444.777 189.352 446.858 190.822 449.62C192.292 452.382 192.629 455.607 191.762 458.613L178.017 505.332L200.243 529.198L186.581 546.609Z" fill="#CCCCCC"/>
<path d="M331.227 455.155C330.514 456.698 329.471 458.067 328.172 459.164C326.873 460.26 325.349 461.059 323.708 461.503C322.067 461.947 320.348 462.026 318.673 461.735C316.998 461.443 315.408 460.787 314.014 459.814L278.012 478.474L279.604 462.623L311.52 442.871C313.309 440.638 315.856 439.138 318.678 438.657C321.5 438.175 324.4 438.746 326.829 440.26C329.258 441.774 331.048 444.127 331.858 446.872C332.669 449.617 332.444 452.564 331.227 455.155H331.227Z" fill="#FFB8B8"/>
<path d="M310.082 466.954L274.987 482.12C272.651 483.121 270.097 483.505 267.569 483.234C265.042 482.963 262.627 482.046 260.557 480.572L215.929 448.596C214.597 447.641 213.475 446.424 212.633 445.018C211.79 443.613 211.245 442.049 211.031 440.425C210.817 438.8 210.939 437.149 211.389 435.573C211.839 433.998 212.607 432.531 213.647 431.265C215.644 428.856 218.501 427.32 221.611 426.982C224.721 426.643 227.841 427.529 230.31 429.451L268.577 459.569L298.993 447.801L310.082 466.954Z" fill="#CCCCCC"/>
<path d="M213.67 393.088C217.174 388.698 223.721 388.462 228.535 385.565C234.84 381.772 237.446 373.294 235.415 366.222C233.383 359.15 227.391 353.638 220.521 351.002C213.651 348.366 206.007 348.333 198.76 349.608C187.97 351.505 177.346 356.541 170.765 365.3C164.184 374.059 162.509 386.887 168.474 396.077C171.215 400.301 175.446 403.788 176.541 408.703C177.977 415.156 173.451 421.379 168.602 425.872C163.078 430.991 156.74 435.279 151.9 441.049C147.06 446.819 143.833 454.703 146.041 461.903C147.892 467.936 153.276 472.381 159.181 474.606C165.085 476.832 171.516 477.154 177.825 477.277C183.951 477.397 190.458 477.248 195.619 473.945C201.144 470.409 204.094 463.7 204.312 457.144C204.529 450.588 202.339 444.165 199.403 438.3C197.653 434.803 195.618 431.416 194.455 427.683C193.292 423.95 193.091 419.714 194.953 416.276C196.91 412.663 200.871 410.483 204.904 409.691C205.113 409.65 205.335 409.613 205.567 409.58C206.714 409.432 207.819 409.052 208.816 408.463C209.812 407.875 210.679 407.091 211.363 406.158C212.048 405.226 212.536 404.164 212.799 403.037C213.062 401.91 213.093 400.742 212.891 399.602C212.432 397.042 212.471 394.59 213.67 393.088Z" fill="#2F2E41"/>
<path d="M592.393 769.42H578.214L571.47 714.731L592.395 714.732L592.393 769.42Z" fill="#A0616A"/>
<path d="M568.087 765.368H595.431V782.585H550.87C550.87 780.324 551.315 778.085 552.181 775.996C553.046 773.908 554.314 772.01 555.913 770.411C557.511 768.812 559.409 767.544 561.498 766.679C563.587 765.814 565.826 765.368 568.087 765.368Z" fill="#2F2E41"/>
<path d="M695.27 753.359L682.373 759.249L653.514 712.308L672.549 703.614L695.27 753.359Z" fill="#A0616A"/>
<path d="M671.478 759.773L696.35 748.412L703.503 764.073L662.97 782.586C662.031 780.529 661.506 778.308 661.425 776.049C661.344 773.789 661.709 771.536 662.499 769.417C663.289 767.299 664.489 765.357 666.029 763.702C667.57 762.047 669.421 760.712 671.478 759.773Z" fill="#2F2E41"/>
<path d="M653.98 585.024C655.338 584.001 656.456 582.694 657.254 581.193C658.053 579.692 658.512 578.034 658.6 576.336C658.689 574.638 658.404 572.941 657.765 571.366C657.127 569.79 656.151 568.373 654.906 567.215L671.573 529.398L650.399 532.986L637.818 568.348C636.012 570.569 635.083 573.375 635.207 576.234C635.331 579.094 636.5 581.809 638.492 583.864C640.484 585.92 643.161 587.173 646.016 587.387C648.87 587.601 651.704 586.76 653.98 585.024Z" fill="#A0616A"/>
<path d="M591.489 755H577.944C576.631 754.995 575.367 754.496 574.405 753.601C573.443 752.707 572.853 751.483 572.754 750.173L565.367 552.922C565.312 552.166 565.423 551.407 565.692 550.698C565.961 549.99 566.381 549.348 566.924 548.819C567.466 548.29 568.118 547.886 568.833 547.635C569.548 547.383 570.309 547.291 571.063 547.365L649.399 555.684C650.668 555.808 651.848 556.394 652.714 557.331C653.58 558.268 654.072 559.49 654.097 560.765L655.738 647.775C655.747 648.247 655.839 648.714 656.009 649.155L688.142 732.484C688.391 733.128 688.508 733.815 688.489 734.504C688.469 735.194 688.313 735.873 688.028 736.502C687.744 737.13 687.337 737.696 686.832 738.166C686.327 738.636 685.733 739.001 685.086 739.239L671.36 744.296C670.168 744.735 668.856 744.723 667.672 744.262C666.488 743.801 665.514 742.923 664.933 741.794L625.458 665.038C625.243 664.621 625.086 664.176 624.991 663.716L618.247 631.226C618.052 630.284 617.527 629.442 616.767 628.852C616.008 628.262 615.062 627.962 614.101 628.005C613.14 628.049 612.226 628.433 611.522 629.089C610.819 629.746 610.373 630.631 610.263 631.587L596.66 750.387C596.515 751.657 595.908 752.829 594.954 753.679C594 754.53 592.767 755 591.489 755Z" fill="#2F2E41"/>
<path d="M598.234 398.691C613.921 398.691 626.639 385.973 626.639 370.286C626.639 354.598 613.921 341.881 598.234 341.881C582.546 341.881 569.829 354.598 569.829 370.286C569.829 385.973 582.546 398.691 598.234 398.691Z" fill="#A0616A"/>
<path d="M617.714 570.958C598.451 570.745 579.648 565.05 563.505 554.537L563.229 554.347L563.257 554.012L574.123 427.472C574.497 423.179 576.413 419.167 579.517 416.177C582.621 413.188 586.702 411.423 591.006 411.21C605.088 410.563 624.002 411.379 634.127 418.92C649.429 430.316 656.804 447.478 654.361 466.004C649.295 504.421 655.034 556.245 655.705 562.027L655.753 562.444L655.372 562.619C643.576 568.107 630.724 570.953 617.714 570.958Z" fill="#057BE8"/>
<path d="M655.574 562.242C654.773 562.24 653.981 562.073 653.249 561.75C652.516 561.427 651.858 560.956 651.317 560.366L645.104 553.587C644.432 552.85 643.962 551.953 643.737 550.982C643.512 550.011 643.541 548.998 643.821 548.042L657.989 500.089L636.432 454.819C635.425 452.7 635.179 450.299 635.734 448.02C636.223 446.019 637.307 444.213 638.843 442.841C640.379 441.469 642.296 440.595 644.339 440.334C646.382 440.073 648.456 440.437 650.288 441.379C652.12 442.321 653.623 443.796 654.6 445.61L683.853 493.075C685.041 495 685.739 497.188 685.884 499.446C686.029 501.704 685.618 503.963 684.686 506.025L660.851 558.837C660.458 559.71 659.854 560.471 659.094 561.053C658.333 561.634 657.44 562.017 656.495 562.168C656.19 562.217 655.882 562.241 655.574 562.242Z" fill="#057BE8"/>
<path d="M455.358 470.641C456.722 471.655 458.292 472.359 459.957 472.701C461.623 473.043 463.343 473.016 464.997 472.622C466.651 472.227 468.198 471.475 469.529 470.418C470.861 469.361 471.944 468.024 472.704 466.503L513.688 471.819L504.269 452.518L466.794 450.43C464.154 449.324 461.2 449.224 458.491 450.151C455.783 451.077 453.508 452.965 452.099 455.456C450.689 457.947 450.242 460.869 450.843 463.668C451.444 466.466 453.05 468.947 455.358 470.641V470.641Z" fill="#A0616A"/>
<path d="M545.694 481.182C544.98 481.181 544.267 481.132 543.561 481.034L479.085 472.092C478.031 471.947 477.03 471.542 476.172 470.914C475.313 470.286 474.625 469.454 474.169 468.493C474.021 468.184 473.898 467.863 473.801 467.534H473.801C473.551 466.681 473.482 465.784 473.596 464.902C473.71 464.02 474.007 463.171 474.466 462.409L479.801 453.563C480.375 452.618 481.182 451.836 482.146 451.292C483.109 450.748 484.195 450.46 485.301 450.457H485.31L541.511 450.521L583.485 412.915C585.438 411.17 587.932 410.149 590.548 410.025C592.845 409.918 595.121 410.511 597.074 411.724C599.028 412.937 600.568 414.713 601.491 416.819C602.415 418.925 602.678 421.262 602.247 423.521C601.815 425.779 600.709 427.854 599.075 429.472L557.192 476.053C555.742 477.667 553.97 478.958 551.989 479.841C550.008 480.725 547.863 481.181 545.694 481.182Z" fill="#057BE8"/>
<path d="M601.463 395.555C604.059 389.548 606.255 381.547 601.277 377.3C598.389 374.836 594.229 374.831 590.445 374.525C579.786 373.661 568.812 368.756 563.602 359.417C558.392 350.077 561.302 336.189 571.131 331.975C577.757 329.135 585.353 331.07 592.289 333.037L613.113 338.942C619.3 340.696 625.796 342.631 630.251 347.27C637.355 354.669 636.824 367.175 631.181 375.741C625.539 384.306 617.041 393.24 607.314 396.492L601.463 395.555Z" fill="#2F2E41"/>
<path d="M888.753 782.962H34.9156C34.7344 782.962 34.5549 782.927 34.3874 782.858C34.2199 782.789 34.0676 782.688 33.9393 782.56C33.811 782.432 33.7092 782.28 33.6398 782.113C33.5703 781.945 33.5345 781.766 33.5345 781.585C33.5345 781.404 33.5703 781.224 33.6398 781.057C33.7092 780.89 33.811 780.738 33.9393 780.61C34.0676 780.482 34.2199 780.38 34.3874 780.311C34.5549 780.242 34.7344 780.207 34.9156 780.208H888.753C888.934 780.207 889.114 780.242 889.281 780.311C889.449 780.38 889.601 780.482 889.729 780.61C889.857 780.738 889.959 780.89 890.029 781.057C890.098 781.224 890.134 781.404 890.134 781.585C890.134 781.766 890.098 781.945 890.029 782.113C889.959 782.28 889.857 782.432 889.729 782.56C889.601 782.688 889.449 782.789 889.281 782.858C889.114 782.927 888.934 782.962 888.753 782.962Z" fill="#3F3D56"/>
</g>
<defs>
<clipPath id="clip0">
<rect width="950.269" height="669.625" fill="white" transform="translate(33.5385 113.337)"/>
</clipPath>
</defs>
</svg>
