<svg width="126" height="122" viewBox="0 0 126 122" fill="none" xmlns="http://www.w3.org/2000/svg">
<path d="M77.2513 80.4512H4.38776C3.22447 80.4499 2.10919 79.9886 1.28661 79.1685C0.464038 78.3485 0.00133724 77.2366 0 76.0769V23.8499C0.00131477 22.6902 0.464017 21.5783 1.2866 20.7582C2.10918 19.9382 3.22446 19.4769 4.38776 19.4756H77.2513C78.4146 19.4769 79.5299 19.9382 80.3525 20.7583C81.175 21.5783 81.6378 22.6902 81.6391 23.8499V76.0769C81.6377 77.2366 81.175 78.3484 80.3524 79.1685C79.5299 79.9885 78.4146 80.4499 77.2513 80.4512Z" fill="#E6E6E6"/>
<path d="M5.73482 76.9641H75.9046C76.4688 76.9641 77.0099 76.7407 77.4089 76.3429C77.8079 75.9452 78.032 75.4057 78.032 74.8433V25.0835C78.032 24.521 77.8079 23.9815 77.4089 23.5838C77.0099 23.186 76.4688 22.9626 75.9046 22.9626H5.73482C5.1706 22.9626 4.62949 23.186 4.23052 23.5838C3.83156 23.9815 3.60742 24.521 3.60742 25.0835V74.8433C3.60742 75.4057 3.83156 75.9452 4.23052 76.3429C4.62949 76.7407 5.1706 76.9641 5.73482 76.9641Z" fill="white"/>
<path d="M67.5399 38.424H22.718C22.5078 38.424 22.2996 38.4652 22.1054 38.5454C21.9112 38.6256 21.7347 38.7432 21.586 38.8914C21.4374 39.0396 21.3195 39.2155 21.239 39.4091C21.1586 39.6027 21.1172 39.8102 21.1172 40.0198C21.1172 40.2294 21.1586 40.4369 21.239 40.6305C21.3195 40.8241 21.4374 41.0001 21.586 41.1483C21.7347 41.2965 21.9112 41.414 22.1054 41.4942C22.2996 41.5744 22.5078 41.6157 22.718 41.6157H67.5399C67.9644 41.6157 68.3716 41.4475 68.6718 41.1483C68.972 40.849 69.1406 40.4431 69.1406 40.0198C69.1406 39.5966 68.972 39.1907 68.6718 38.8914C68.3716 38.5921 67.9644 38.424 67.5399 38.424Z" fill="#E6E6E6"/>
<path d="M22.718 48.2448C22.5078 48.2448 22.2996 48.286 22.1054 48.3662C21.9112 48.4464 21.7347 48.564 21.586 48.7122C21.4374 48.8604 21.3195 49.0363 21.239 49.2299C21.1586 49.4235 21.1172 49.6311 21.1172 49.8406C21.1172 50.0502 21.1586 50.2577 21.239 50.4513C21.3195 50.645 21.4374 50.8209 21.586 50.9691C21.7347 51.1173 21.9112 51.2348 22.1054 51.315C22.2996 51.3952 22.5078 51.4365 22.718 51.4365H67.5399C67.9644 51.4365 68.3716 51.2684 68.6718 50.9691C68.972 50.6698 69.1406 50.2639 69.1406 49.8406C69.1406 49.4174 68.972 49.0115 68.6718 48.7122C68.3716 48.4129 67.9644 48.2448 67.5399 48.2448H22.718Z" fill="#E6E6E6"/>
<path d="M22.718 58.0656C22.2934 58.0656 21.8863 58.2337 21.586 58.533C21.2858 58.8323 21.1172 59.2382 21.1172 59.6614C21.1172 60.0847 21.2858 60.4906 21.586 60.7899C21.8863 61.0892 22.2934 61.2573 22.718 61.2573H67.5399C67.9644 61.2573 68.3716 61.0892 68.6718 60.7899C68.972 60.4906 69.1406 60.0847 69.1406 59.6614C69.1406 59.2382 68.972 58.8323 68.6718 58.533C68.3716 58.2337 67.9644 58.0656 67.5399 58.0656H22.718Z" fill="#E6E6E6"/>
<path d="M14.2222 42.1068C15.3103 42.1068 16.1924 41.2274 16.1924 40.1426C16.1924 39.0579 15.3103 38.1785 14.2222 38.1785C13.134 38.1785 12.252 39.0579 12.252 40.1426C12.252 41.2274 13.134 42.1068 14.2222 42.1068Z" fill="#56CEA8"/>
<path d="M14.2222 51.9276C15.3103 51.9276 16.1924 51.0482 16.1924 49.9634C16.1924 48.8787 15.3103 47.9993 14.2222 47.9993C13.134 47.9993 12.252 48.8787 12.252 49.9634C12.252 51.0482 13.134 51.9276 14.2222 51.9276Z" fill="#E6E6E6"/>
<path d="M14.2222 61.7484C15.3103 61.7484 16.1924 60.869 16.1924 59.7842C16.1924 58.6995 15.3103 57.8201 14.2222 57.8201C13.134 57.8201 12.252 58.6995 12.252 59.7842C12.252 60.869 13.134 61.7484 14.2222 61.7484Z" fill="#E6E6E6"/>
<path d="M49.6849 40.0197C49.6849 40.2293 49.6435 40.4368 49.5631 40.6304C49.4826 40.8241 49.3647 41 49.2161 41.1482C49.0674 41.2964 48.8909 41.4139 48.6967 41.4941C48.5025 41.5743 48.2944 41.6156 48.0842 41.6156H22.7756C22.3802 41.6214 21.996 41.4845 21.6938 41.2302C21.3916 40.976 21.1917 40.6214 21.131 40.2318C21.1011 40.0064 21.1198 39.7772 21.1859 39.5596C21.2519 39.3419 21.3638 39.1409 21.514 38.9697C21.6642 38.7986 21.8492 38.6614 22.0569 38.5673C22.2645 38.4731 22.4898 38.4242 22.7179 38.4238H48.0842C48.5087 38.4238 48.9159 38.592 49.2161 38.8913C49.5163 39.1905 49.6849 39.5965 49.6849 40.0197V40.0197Z" fill="#56CEA8"/>
<path d="M40.8191 12.767C44.3555 12.767 47.2222 9.90903 47.2222 6.38351C47.2222 2.858 44.3555 0 40.8191 0C37.2828 0 34.416 2.858 34.416 6.38351C34.416 9.90903 37.2828 12.767 40.8191 12.767Z" fill="#E6E6E6"/>
<path d="M43.9798 6.8948C44.263 5.15481 43.0777 3.51537 41.3324 3.23301C39.587 2.95065 37.9425 4.13228 37.6593 5.87228C37.3761 7.61227 38.5614 9.25173 40.3067 9.53409C42.0521 9.81645 43.6965 8.6348 43.9798 6.8948Z" fill="white"/>
<path d="M101.338 118.526L98.2984 118.526L96.8525 106.836L101.339 106.836L101.338 118.526Z" fill="#FFB8B8"/>
<path d="M96.1261 117.66H101.989V121.34H92.4346C92.4346 120.857 92.5301 120.379 92.7156 119.932C92.9011 119.486 93.173 119.08 93.5158 118.738C93.8586 118.396 94.2656 118.125 94.7134 117.94C95.1613 117.755 95.6414 117.66 96.1261 117.66Z" fill="#2F2E41"/>
<path d="M117.725 118.526L114.685 118.526L113.239 106.836L117.726 106.836L117.725 118.526Z" fill="#FFB8B8"/>
<path d="M112.513 117.66H118.376V121.34H108.821C108.821 120.857 108.917 120.379 109.102 119.932C109.288 119.486 109.56 119.08 109.903 118.738C110.245 118.396 110.652 118.125 111.1 117.94C111.548 117.755 112.028 117.66 112.513 117.66Z" fill="#2F2E41"/>
<path d="M108.821 35.4208C112.429 35.4208 115.353 32.5056 115.353 28.9094C115.353 25.3133 112.429 22.398 108.821 22.398C105.214 22.398 102.29 25.3133 102.29 28.9094C102.29 32.5056 105.214 35.4208 108.821 35.4208Z" fill="#FFB8B8"/>
<path d="M86.4886 71.3743C86.5342 71.0138 86.6586 70.6676 86.8529 70.3601C87.0473 70.0526 87.3069 69.7914 87.6134 69.5947C87.92 69.3981 88.2661 69.2709 88.6274 69.222C88.9886 69.1732 89.3562 69.2039 89.7042 69.312L93.3544 64.9497L96.5544 66.5146L91.3129 72.6027C91.092 73.1736 90.6688 73.6438 90.1233 73.9244C89.5779 74.2049 88.9481 74.2762 88.3535 74.1248C87.7588 73.9734 87.2405 73.6098 86.8968 73.1028C86.5531 72.5959 86.4079 71.9809 86.4886 71.3743Z" fill="#FFB8B8"/>
<path d="M117.902 75.7862C117.747 75.4575 117.666 75.0989 117.664 74.7354C117.663 74.372 117.741 74.0127 117.894 73.6828C118.047 73.3529 118.271 73.0604 118.549 72.8259C118.828 72.5915 119.154 72.4208 119.506 72.3259L120.239 66.6923L123.782 66.3013L122.635 74.2425C122.756 74.8424 122.651 75.4657 122.342 75.9942C122.033 76.5226 121.54 76.9196 120.956 77.1099C120.373 77.3002 119.74 77.2705 119.177 77.0266C118.614 76.7826 118.161 76.3413 117.902 75.7862L117.902 75.7862Z" fill="#FFB8B8"/>
<path d="M114.28 41.208C114.627 40.7634 115.086 40.418 115.61 40.2067C116.134 39.9954 116.705 39.9256 117.264 40.0044C117.824 40.0832 118.353 40.3078 118.798 40.6555C119.243 41.0032 119.587 41.4618 119.798 41.9849L125.151 55.3041C125.698 56.6652 125.873 58.1468 125.657 59.5972L123.913 71.3041C123.89 71.4551 123.835 71.5996 123.752 71.7275C123.668 71.8554 123.558 71.9638 123.428 72.0453C123.299 72.1267 123.153 72.1793 123.001 72.1995C122.849 72.2196 122.695 72.2069 122.548 72.162L120.251 71.4587C120.013 71.3859 119.808 71.2322 119.672 71.0244C119.536 70.8166 119.478 70.5679 119.507 70.3214C120.318 63.4293 119.246 56.4468 116.405 50.1117L113.881 44.4839C113.643 43.9532 113.555 43.368 113.625 42.7909C113.695 42.2138 113.921 41.6666 114.28 41.208Z" fill="#575A89"/>
<path d="M110.412 35.4205C111.395 35.4416 112.371 35.2552 113.277 34.8734C114.182 34.4916 114.996 33.923 115.666 33.2051C116.335 32.4872 116.845 31.6362 117.161 30.708C117.477 29.7798 117.592 28.7954 117.5 27.8196C117.407 26.8437 117.108 25.8985 116.623 25.046C116.137 24.1935 115.477 23.453 114.684 22.8732C113.891 22.2934 112.984 21.8875 112.023 21.682C111.062 21.4765 110.067 21.4762 109.106 21.681C107.67 20.8116 106 20.2266 104.326 20.3754C102.652 20.5242 100.997 21.5148 100.371 23.0694C99.7453 24.6241 100.418 26.6734 101.974 27.3052C102.972 27.7102 104.098 27.5138 105.163 27.3505C106.228 27.1871 107.389 27.0805 108.316 27.6282C109.243 28.1759 109.659 29.6445 108.829 30.3293C108.389 30.7066 108.075 31.2087 107.929 31.7685C107.782 32.3284 107.81 32.9194 108.009 33.4629C108.426 34.5383 109.565 35.4022 110.412 35.4205Z" fill="#2F2E41"/>
<path d="M118.515 71.1168L119.674 114.95C119.678 115.096 119.651 115.242 119.596 115.377C119.541 115.512 119.458 115.635 119.353 115.737C119.248 115.839 119.123 115.919 118.986 115.97C118.849 116.022 118.703 116.045 118.556 116.037L114.74 115.843C114.496 115.831 114.264 115.735 114.083 115.573C113.902 115.41 113.782 115.191 113.743 114.95L109.204 86.4805C109.184 86.3586 109.123 86.2474 109.03 86.1658C108.937 86.0843 108.819 86.0376 108.695 86.0337C108.571 86.0299 108.45 86.0692 108.352 86.1448C108.255 86.2204 108.186 86.3277 108.159 86.448L102.015 113.86C101.982 114.006 101.918 114.144 101.828 114.264C101.737 114.384 101.623 114.484 101.491 114.557C101.359 114.629 101.213 114.673 101.063 114.685C100.913 114.697 100.762 114.678 100.62 114.627L96.8323 114.397C96.6132 114.319 96.4257 114.172 96.2984 113.978C96.1711 113.784 96.1112 113.554 96.1277 113.322L99.4342 70.702L118.515 71.1168Z" fill="#2F2E41"/>
<path d="M120.374 50.2975C121.013 43.655 116.114 37.6469 109.438 37.1743C106.561 36.9707 102.095 36.8979 100.623 40.6569C96.1879 51.9808 103.952 51.7056 101.277 61.5166C98.6018 71.3276 96.2393 71.8899 99.9095 72.5983C103.58 73.3068 120.084 77.4888 119.407 70.5835C118.99 66.3389 119.737 56.9233 120.374 50.2975Z" fill="#575A89"/>
<path d="M101.408 39.5051C101.935 39.3016 102.507 39.2404 103.065 39.3277C103.624 39.4149 104.149 39.6474 104.589 40.0017C105.028 40.3561 105.366 40.8198 105.568 41.346C105.771 41.8722 105.83 42.4423 105.741 42.9987L103.656 55.9868C103.3 58.2077 102.358 60.2944 100.927 62.0331L94.1562 70.2579C94.0591 70.376 93.9375 70.4717 93.7998 70.5386C93.6621 70.6054 93.5115 70.6419 93.3584 70.6454C93.2052 70.6489 93.0532 70.6194 92.9125 70.5589C92.7719 70.4984 92.646 70.4083 92.5435 70.2948L90.9354 68.5144C90.7688 68.33 90.6724 68.0932 90.6629 67.8453C90.6534 67.5974 90.7313 67.354 90.8832 67.1575L91.3569 66.5447C95.2955 61.449 97.7803 55.3872 98.5487 48.9999L99.3775 42.1111C99.4469 41.5339 99.6725 40.9865 100.03 40.5274C100.388 40.0683 100.864 39.7149 101.408 39.5051Z" fill="#575A89"/>
</svg>
