<svg width="246" height="121" viewBox="0 0 246 121" fill="none" xmlns="http://www.w3.org/2000/svg">
<path d="M25.9222 22.5989C26.5916 22.5989 27.1344 22.0558 27.1344 21.3859C27.1344 20.716 26.5916 20.1729 25.9222 20.1729C25.2527 20.1729 24.71 20.716 24.71 21.3859C24.71 22.0558 25.2527 22.5989 25.9222 22.5989Z" fill="white"/>
<path d="M30.5237 22.5989C31.1932 22.5989 31.7359 22.0558 31.7359 21.3859C31.7359 20.716 31.1932 20.1729 30.5237 20.1729C29.8542 20.1729 29.3115 20.716 29.3115 21.3859C29.3115 22.0558 29.8542 22.5989 30.5237 22.5989Z" fill="white"/>
<path d="M35.1233 22.5989C35.7928 22.5989 36.3355 22.0558 36.3355 21.3859C36.3355 20.716 35.7928 20.1729 35.1233 20.1729C34.4539 20.1729 33.9111 20.716 33.9111 21.3859C33.9111 22.0558 34.4539 22.5989 35.1233 22.5989Z" fill="white"/>
<path d="M176.911 24.2357H22.9775V25.0919H176.911V24.2357Z" fill="white"/>
<path d="M211.433 90.8773C211.433 90.8773 210.542 87.8559 211.994 88.8416C213.445 89.8273 217.671 91.3075 216.148 93.6782C214.626 96.0488 205.514 109.152 204.041 106.556C203.223 105.114 206.073 92.8872 206.073 92.8872C206.073 92.8872 208.101 92.4183 208.392 92.8872C208.682 93.3561 211.433 90.8773 211.433 90.8773Z" fill="#2B2B2B"/>
<path d="M198.361 13.7633L198.089 18.6668L194.549 25.7511L206.257 25.2062L205.44 17.8493L205.985 14.8521L198.361 13.7633Z" fill="#FFB8B8"/>
<path d="M197 22.2091C197 22.2091 198.906 24.3889 203.807 21.9366L207.619 40.4639L208.163 57.0849L191.826 56.5399L192.098 39.6465L197 22.2091Z" fill="#D1D1D1"/>
<path d="M187.867 57.4821C187.867 57.4821 189.626 66.1297 192.915 64.0346C196.203 61.9395 192.206 55.8684 192.206 55.8684L187.867 57.4821Z" fill="#FFB8B8"/>
<path d="M204.079 103.953L203.807 108.585L208.163 109.947V103.68L204.079 103.953Z" fill="#FFB8B8"/>
<path d="M189.647 55.4523V82.6998L205.168 96.0514L208.979 89.5117L198.088 80.5203L200.811 73.7084L212.247 66.3513V55.7247L189.647 55.4523Z" fill="#2B2B2B"/>
<path d="M201.084 72.3454L202.718 86.2416L203.262 104.769H210.342C210.342 104.769 212.792 88.4203 210.069 84.3332L212.248 66.3523L210.069 59.2679L201.084 72.3454Z" fill="#2B2B2B"/>
<path d="M207.347 108.313C207.347 108.313 207.619 107.223 205.713 107.223C203.807 107.223 202.99 107.495 202.99 107.768C202.926 108.227 202.835 108.682 202.718 109.13C202.718 109.13 197.818 121.391 202.718 120.846C207.618 120.301 208.436 117.85 208.436 117.85L208.98 109.948C208.98 109.948 208.436 109.281 208.164 109.342C207.891 109.403 207.347 108.313 207.347 108.313Z" fill="#2B2B2B"/>
<path d="M202.718 16.4882C206.026 16.4882 208.708 13.8044 208.708 10.4937C208.708 7.18308 206.026 4.49927 202.718 4.49927C199.409 4.49927 196.728 7.18308 196.728 10.4937C196.728 13.8044 199.409 16.4882 202.718 16.4882Z" fill="#FFB8B8"/>
<path d="M203.807 23.845L201.901 21.6652L205.586 17.0498L207.075 18.6657L215.789 22.4804L213.339 46.4582C213.339 46.4582 213.067 53.5426 214.7 58.4472C214.7 58.4472 211.161 62.8068 205.715 61.7169L198.635 63.0793C198.635 63.0793 197.817 27.9321 203.807 23.845Z" fill="#575A89"/>
<path d="M197.817 22.4827L198.129 17.9414L196.728 19.7576L189.376 25.2071L190.193 55.4519L192.643 56.8146L196.727 24.3914L197.817 22.4827Z" fill="#575A89"/>
<path d="M191.282 24.9349L189.376 25.2074C189.376 25.2074 188.014 27.6591 188.014 27.9322C188.014 28.2052 187.47 42.3734 187.47 42.3734C187.47 42.3734 186.517 56.6784 188.15 59.4031L192.971 54.2133L191.282 49.4578V24.9349Z" fill="#575A89"/>
<path d="M245.999 76.1572C246 78.5511 245.447 80.9126 244.384 83.0569C243.32 85.2012 241.775 87.07 239.869 88.517C239.593 88.7272 239.31 88.9287 239.021 89.1213C238.946 89.1707 238.872 89.2181 238.798 89.2636C238.528 89.4369 238.254 89.598 237.976 89.7504C237.864 89.8122 237.753 89.872 237.642 89.9298C237.619 89.942 237.598 89.9523 237.576 89.9627C237.433 90.0368 237.291 90.1092 237.147 90.1772C236.517 90.4788 235.866 90.7365 235.2 90.9484C234.144 91.2846 233.056 91.5058 231.953 91.6081C231.47 91.6534 230.982 91.6761 230.49 91.6761C229.138 91.6774 227.793 91.5013 226.488 91.1523C225.818 90.9762 225.161 90.7537 224.522 90.4862C224.456 90.4583 224.388 90.4304 224.322 90.4026C224.009 90.2664 223.702 90.1201 223.401 89.9635L223.271 89.8955C222.944 89.7245 222.624 89.5416 222.311 89.3469C221.835 89.0503 221.376 88.7282 220.935 88.3819C220.71 88.2086 220.492 88.0271 220.279 87.8375C220.168 87.7427 220.059 87.6424 219.952 87.5447C219.535 87.1576 219.139 86.7484 218.767 86.3188C218.618 86.1477 218.474 85.9744 218.334 85.797C216.797 83.8558 215.746 81.5747 215.27 79.1442C214.793 76.7137 214.905 74.2044 215.595 71.826C216.286 69.4475 217.536 67.269 219.239 65.4725C220.943 63.6759 223.052 62.3135 225.389 61.499C227.727 60.6846 230.225 60.4417 232.675 60.7908C235.126 61.1399 237.457 62.0707 239.475 63.5056C241.492 64.9404 243.137 66.8376 244.272 69.0386C245.407 71.2395 246 73.6804 246 76.1572H245.999Z" fill="#E6E6E6"/>
<path d="M235.33 83.1105C236.614 83.1105 237.655 82.0691 237.655 80.7845C237.655 79.4998 236.614 78.4584 235.33 78.4584C234.047 78.4584 233.006 79.4998 233.006 80.7845C233.006 82.0691 234.047 83.1105 235.33 83.1105Z" fill="#2B2B2B"/>
<path d="M235.978 78.5225C236.38 78.5225 236.776 78.6271 237.125 78.8258C237.475 79.0246 237.768 79.3108 237.974 79.6564C238.18 80.0021 238.293 80.3954 238.302 80.7979C238.311 81.2004 238.215 81.5983 238.024 81.9527C238.226 81.7004 238.372 81.4089 238.455 81.0967C238.538 80.7844 238.554 80.4584 238.504 80.1394C238.454 79.8203 238.338 79.5153 238.163 79.2436C237.989 78.9719 237.76 78.7395 237.491 78.5614C237.221 78.3832 236.918 78.2631 236.6 78.2087C236.282 78.1544 235.956 78.1669 235.643 78.2455C235.33 78.3242 235.036 78.4672 234.782 78.6655C234.527 78.8638 234.316 79.1131 234.163 79.3974C234.38 79.1243 234.656 78.9039 234.971 78.7524C235.285 78.601 235.629 78.5224 235.978 78.5225H235.978Z" fill="#2B2B2B"/>
<path d="M230.987 80.7796C234.758 80.7796 237.815 77.7203 237.815 73.9465C237.815 70.1727 234.758 67.1134 230.987 67.1134C227.215 67.1134 224.158 70.1727 224.158 73.9465C224.158 77.7203 227.215 80.7796 230.987 80.7796Z" fill="#2B2B2B"/>
<path d="M225.627 69.7069C226.804 68.3827 228.449 67.5678 230.214 67.4341C231.98 67.3004 233.728 67.8584 235.091 68.9903C235.035 68.9371 234.979 68.8836 234.922 68.8321C234.252 68.2319 233.471 67.7698 232.622 67.4725C231.774 67.1752 230.875 67.0485 229.978 67.0995C229.08 67.1506 228.202 67.3785 227.393 67.7701C226.583 68.1617 225.859 68.7094 225.262 69.3817C224.665 70.0539 224.206 70.8376 223.912 71.6877C223.618 72.5378 223.495 73.4376 223.55 74.3355C223.604 75.2333 223.835 76.1116 224.23 76.9199C224.624 77.7282 225.174 78.4506 225.848 79.0457C225.906 79.0972 225.966 79.146 226.025 79.1953C224.742 77.974 223.984 76.3018 223.909 74.5315C223.835 72.7612 224.451 71.0313 225.628 69.7069H225.627Z" fill="#2B2B2B"/>
<path d="M230.929 80.7216C233.358 80.7216 235.327 78.7513 235.327 76.3208C235.327 73.8902 233.358 71.9199 230.929 71.9199C228.5 71.9199 226.531 73.8902 226.531 76.3208C226.531 78.7513 228.5 80.7216 230.929 80.7216Z" fill="#A0616A"/>
<path d="M227.804 77.7107C227.804 77.7107 228.383 83.0382 227.457 83.6171C226.531 84.1961 232.781 85.0068 232.781 85.0068C232.781 85.0068 231.855 79.216 234.169 77.7104L227.804 77.7107Z" fill="#A0616A"/>
<path d="M238.798 87.787V89.4695C238.528 89.6428 238.254 89.8038 237.976 89.9562C237.864 90.0181 237.753 90.0779 237.642 90.1357V90.1685H237.576C237.434 90.2427 237.292 90.3148 237.147 90.3831C236.516 90.6847 235.866 90.9424 235.2 91.1542C234.144 91.4905 233.055 91.7117 231.952 91.814C231.47 91.8593 230.982 91.882 230.489 91.882C229.138 91.8833 227.793 91.7072 226.488 91.3582C225.818 91.1822 225.161 90.9596 224.522 90.692C224.456 90.6642 224.388 90.6363 224.322 90.6085C224.009 90.4723 223.702 90.326 223.401 90.1694L223.271 90.1014C222.944 89.9303 222.624 89.7475 222.311 89.5528C221.835 89.2562 221.376 88.934 220.935 88.5877C220.71 88.4144 220.492 88.233 220.279 88.0433C220.168 87.9483 220.059 87.8483 219.952 87.7505C219.535 87.3635 219.139 86.9543 218.767 86.5247C218.816 86.1749 218.897 85.8305 219.01 85.4958L219.012 85.4938C219.043 85.4063 219.081 85.3208 219.123 85.2381C219.622 84.3039 220.522 84.0729 221.643 84.0236C222.274 83.9958 222.973 84.0256 223.712 84.0175C224.102 84.0155 224.504 84.001 224.909 83.964C227.456 83.733 226.993 82.2277 227.109 81.4173C227.222 80.6316 227.929 81.3122 227.976 81.3574L227.978 81.3593C229.42 82.0349 231.015 82.3153 232.6 82.1717H232.602C232.873 82.137 233.146 82.1164 233.42 82.1099C234.137 82.1015 233.98 82.3077 233.735 82.4768C233.614 82.5559 233.488 82.6268 233.358 82.6891C233.358 82.6891 233.243 83.3839 233.127 84.4273C233.016 85.4253 234.926 85.8933 235.085 85.9284C235.088 85.9308 235.091 85.9322 235.095 85.9326C235.793 85.7512 236.528 85.7698 237.216 85.9861C237.608 86.1307 237.958 86.3711 238.235 86.6854C238.511 86.9997 238.705 87.3781 238.798 87.7862V87.787Z" fill="#56CEA8"/>
<path d="M224.55 90.1685C224.543 90.3563 224.533 90.5307 224.522 90.6923C224.456 90.6644 224.388 90.6365 224.322 90.6087C224.009 90.4725 223.702 90.3262 223.401 90.1696L223.271 90.1016C222.943 89.9305 222.623 89.7477 222.311 89.553C222.32 89.3887 222.338 89.2249 222.364 89.0624C222.614 87.3488 222.364 85.5994 221.643 84.0249C221.588 83.9116 221.555 83.8497 221.555 83.8497C221.555 83.8497 222.365 83.1549 223.521 83.8497C223.593 83.8949 223.658 83.9521 223.712 84.0188C224.479 84.9268 224.63 88.2015 224.55 90.1685Z" fill="#2B2B2B"/>
<path d="M237.158 90.1685C237.156 90.2387 237.152 90.3109 237.147 90.383C236.517 90.6846 235.866 90.9423 235.2 91.1542L235.161 90.1685L235.013 86.2549C235.007 86.1418 235.031 86.0292 235.085 85.9293C235.138 85.8255 235.219 85.7385 235.318 85.6779C235.417 85.6172 235.532 85.5852 235.648 85.5855H237.062C237.132 85.5855 237.181 85.7278 237.214 85.9855C237.304 86.7024 237.261 88.3046 237.158 90.1685Z" fill="#2B2B2B"/>
<path d="M227.167 70.8197V75.2216H228.185L229.481 73.832L229.308 75.2216H233.81L233.531 73.832L234.088 75.2216H234.806V70.8197H227.167Z" fill="#2B2B2B"/>
<path d="M226.472 76.0312C226.664 76.0312 226.819 75.7461 226.819 75.3943C226.819 75.0426 226.664 74.7574 226.472 74.7574C226.28 74.7574 226.125 75.0426 226.125 75.3943C226.125 75.7461 226.28 76.0312 226.472 76.0312Z" fill="#A0616A"/>
<path d="M235.384 76.0312C235.576 76.0312 235.731 75.7461 235.731 75.3943C235.731 75.0426 235.576 74.7574 235.384 74.7574C235.193 74.7574 235.037 75.0426 235.037 75.3943C235.037 75.7461 235.193 76.0312 235.384 76.0312Z" fill="#A0616A"/>
<path d="M239.869 88.7231C239.593 88.9335 239.31 89.135 239.021 89.3274C238.946 89.377 238.872 89.4244 238.798 89.4697C238.528 89.643 238.254 89.8041 237.976 89.9565C237.864 90.0183 237.753 90.0781 237.642 90.1359V86.8595C237.642 86.8595 238.089 87.2161 238.798 87.8101C239.109 88.0717 239.472 88.381 239.869 88.7231Z" fill="#56CEA8"/>
<path opacity="0.3" d="M202.575 85.0222L202.951 94.1426L201.818 93.1675L202.575 85.0222Z" fill="#2B2B2B"/>
<path opacity="0.3" d="M211.627 88.6609L211.23 88.8579L210.804 101.076L211.788 99.8084L211.627 88.6609Z" fill="#2B2B2B"/>
<path d="M219.6 58.7219C219.6 58.7219 218.238 67.4422 222.05 66.6237C225.861 65.8052 224.228 58.7219 224.228 58.7219H219.6Z" fill="#FFB8B8"/>
<path d="M213.337 22.4827H215.787C215.787 22.4827 217.421 23.3001 217.693 25.7524C217.965 28.2047 221.777 39.1037 221.777 39.1037C221.777 39.1037 226.134 57.0871 225.861 59.5394H219.054L219.599 54.6359L212.247 35.0177L213.337 22.4827Z" fill="#575A89"/>
<path d="M197.622 4.73526L196.48 4.2778C196.48 4.2778 198.868 1.64721 202.19 1.87594L201.255 0.846495C201.255 0.846495 203.538 -0.0684425 205.616 2.33341C206.707 3.59605 207.97 5.08018 208.757 6.75181H209.98L209.47 7.87653L211.257 9.00126L209.423 8.79928C209.532 9.41554 209.549 10.0447 209.473 10.6659C209.394 11.2869 209.077 11.853 208.59 12.2448C208.59 12.2448 207.173 9.31135 207.173 8.85388V9.99755C207.173 9.99755 206.032 8.9681 206.032 8.2819L205.409 9.08262L205.098 7.82443L201.255 9.08262L201.878 8.05317L199.491 8.39641L200.425 7.13823C200.425 7.13823 197.726 8.62514 197.622 9.88305C197.506 10.7552 197.201 11.5915 196.728 12.3334C196.728 12.3334 194.611 6.45091 197.622 4.73526Z" fill="#2B2B2B"/>
<path d="M176.956 5.79401H0V115.478H176.956V5.79401Z" fill="#E6E6E6"/>
<path d="M176.967 5.79401H0V13.3175H176.967V5.79401Z" fill="#56CEA8"/>
<path d="M87.0158 18.5332H3.65625V61.6754H87.0158V18.5332Z" fill="white"/>
<path d="M83.3599 27.7961H42.6855V31.8234H83.3599V27.7961Z" fill="#E6E6E6"/>
<path d="M71.3746 37.5449H42.4111V41.9323H71.3746V37.5449Z" fill="#E6E6E6"/>
<path d="M79.3646 47.7821H42.4111V52.1695H79.3646V47.7821Z" fill="#E6E6E6"/>
<path d="M38.9361 40.2055C38.9409 43.1356 38.0886 46.0031 36.4841 48.4542C36.1479 48.971 35.7795 49.4661 35.3811 49.9366C34.4466 51.0443 33.3582 52.0121 32.149 52.8104C31.8203 53.0285 31.4823 53.2328 31.135 53.4233C29.3278 54.4236 27.3331 55.0383 25.2767 55.2287C24.8092 55.2744 24.334 55.2961 23.8546 55.2961C22.5407 55.2974 21.2323 55.1262 19.9629 54.7868C19.2434 54.5977 18.5395 54.3532 17.8576 54.0555C17.509 53.9049 17.1683 53.7411 16.8355 53.564C16.0352 53.1434 15.2748 52.6506 14.564 52.0916C14.2332 51.834 13.9144 51.5625 13.6074 51.277C11.7699 49.5739 10.3853 47.4397 9.57844 45.0671C8.77159 42.6945 8.56794 40.1581 8.98587 37.687C9.4038 35.2159 10.4302 32.8879 11.9723 30.9131C13.5144 28.9383 15.5237 27.3789 17.8188 26.3758C20.114 25.3726 22.6226 24.9572 25.1183 25.1672C27.614 25.3771 30.0182 26.2057 32.1138 27.5782C34.2093 28.9507 35.9303 30.8239 37.1214 33.0286C38.3124 35.2333 38.936 37.7001 38.9358 40.2063L38.9361 40.2055Z" fill="#E6E6E6"/>
<path d="M20.2002 41.5688C20.2002 41.5688 21.573 45.3857 20.5064 47.522C19.4399 49.6584 22.1844 52.1015 22.1844 52.1015C22.1844 52.1015 29.3541 48.4378 28.4387 46.606C27.5232 44.7741 25.9981 42.3319 26.303 40.8054L20.2002 41.5688Z" fill="#FFB8B8"/>
<path d="M22.8697 43.0188C25.5656 43.0188 27.751 40.8318 27.751 38.1341C27.751 35.4363 25.5656 33.2493 22.8697 33.2493C20.1738 33.2493 17.9883 35.4363 17.9883 38.1341C17.9883 40.8318 20.1738 43.0188 22.8697 43.0188Z" fill="#FFB8B8"/>
<path d="M19.9628 54.7861C19.2432 54.597 18.5393 54.3524 17.8574 54.0548L17.9883 50.3466L19.3608 47.2925C19.6694 47.5344 19.9996 47.7473 20.3473 47.9285C20.4308 47.9742 20.5143 48.0177 20.6067 48.0614C21.8941 48.6838 23.9972 49.2316 26.0358 47.7048C26.7848 47.1213 27.4205 46.4052 27.9114 45.5922L31.7178 47.7505L31.9177 50.0891L32.1494 52.8103C31.8207 53.0283 31.4827 53.2326 31.1354 53.4232C29.3282 54.4234 27.3335 55.0381 25.2771 55.2286C24.8096 55.2742 24.3344 55.296 23.855 55.296C22.5409 55.2971 21.2323 55.1257 19.9628 54.7861Z" fill="#575A89"/>
<path d="M20.8996 45.0076V45.0134L20.7075 47.0071L20.6065 48.0614L20.4581 49.6291L19.963 54.786C19.2435 54.5969 18.5396 54.3524 17.8577 54.0547C17.5091 53.9041 17.1685 53.7402 16.8357 53.5632C16.0353 53.1426 15.2749 52.6498 14.5641 52.0908L14.0215 49.5834L14.063 49.5555L20.8996 45.0076Z" fill="#575A89"/>
<path d="M31.1347 53.4226C29.3275 54.4228 27.3328 55.0375 25.2764 55.228C25.3877 53.373 25.5498 51.5813 25.7338 49.986C25.8287 49.1675 25.9287 48.4024 26.0348 47.7048C26.3655 45.4634 26.7219 43.9411 26.9775 43.7352L28.6649 44.8496L35.5294 47.2913L35.3808 49.9353C34.4463 51.043 33.3579 52.0108 32.1487 52.8091C31.82 53.0279 31.482 53.2324 31.1347 53.4226Z" fill="#575A89"/>
<path d="M14.564 52.0908C14.2333 51.8331 13.9144 51.5616 13.6074 51.2761L13.8688 49.5836L14.0637 49.5557L14.9371 49.4309L16.8364 53.5632C16.036 53.1426 15.2757 52.6497 14.5649 52.0908H14.564Z" fill="#575A89"/>
<path d="M36.4853 48.4539C36.1491 48.9708 35.7807 49.4659 35.3822 49.9364C34.4478 51.0441 33.3593 52.0119 32.1502 52.8102C31.8214 53.0283 31.4835 53.2326 31.1362 53.4231L30.9561 52.6364L31.9185 50.0896L33.0909 46.9879L35.5309 47.2944C35.8691 47.6639 36.1877 48.0509 36.4853 48.4539Z" fill="#575A89"/>
<path d="M27.5238 33.7163C26.7858 32.517 25.6307 31.6331 24.2806 31.2348L23.2889 32.0288L23.6745 31.1028C23.3502 31.0536 23.022 31.0349 22.6942 31.047L21.8019 32.1952L22.1714 31.0863C21.397 31.1826 20.651 31.4384 19.9804 31.8376C19.3098 32.2368 18.7291 32.7707 18.275 33.4057C17.1394 35.0445 16.9475 37.3234 18.0648 38.975C18.371 38.0319 18.7436 37.1471 19.0504 36.204C19.2914 36.2369 19.5357 36.2381 19.777 36.2076L20.1501 35.3364L20.2542 36.1706C21.4105 36.0697 23.1257 35.8485 24.2219 35.6457L24.1152 35.0049L24.7531 35.5368C25.0888 35.4593 25.2884 35.3891 25.2717 35.3356C26.0869 36.6509 26.8949 37.4909 27.7101 38.8062C28.0188 36.9518 28.5651 35.4089 27.5238 33.7163Z" fill="#2B2B2B"/>
<path d="M27.2543 38.6424C27.4368 38.6424 27.5848 38.3463 27.5848 37.981C27.5848 37.6157 27.4368 37.3196 27.2543 37.3196C27.0718 37.3196 26.9238 37.6157 26.9238 37.981C26.9238 38.3463 27.0718 38.6424 27.2543 38.6424Z" fill="#FFB8B8"/>
<path d="M86.7853 68.4066H3.42578V111.549H86.7853V68.4066Z" fill="white"/>
<path d="M83.1294 77.6696H42.4551V81.6968H83.1294V77.6696Z" fill="#E6E6E6"/>
<path d="M71.1442 87.4183H42.1807V91.8057H71.1442V87.4183Z" fill="#E6E6E6"/>
<path d="M79.1341 97.6555H42.1807V102.043H79.1341V97.6555Z" fill="#E6E6E6"/>
<path d="M38.7066 90.0789C38.7114 93.009 37.8591 95.8765 36.2546 98.3276C35.9184 98.8444 35.55 99.3396 35.1516 99.81C34.2171 100.918 33.1287 101.886 31.9195 102.684C31.5908 102.902 31.2528 103.106 30.9055 103.297C29.0983 104.297 27.1036 104.912 25.0472 105.102C24.5797 105.148 24.1045 105.17 23.6251 105.17C22.3112 105.171 21.0028 105 19.7334 104.66C19.0139 104.471 18.31 104.227 17.6281 103.929C17.2795 103.778 16.9388 103.614 16.606 103.437C15.8057 103.017 15.0453 102.524 14.3345 101.965C14.0037 101.707 13.6849 101.436 13.3779 101.15C11.5404 99.4473 10.1558 97.3131 9.34895 94.9405C8.5421 92.5679 8.33845 90.0315 8.75638 87.5604C9.17431 85.0893 10.2007 82.7613 11.7428 80.7865C13.2849 78.8117 15.2942 77.2523 17.5894 76.2492C19.8845 75.246 22.3931 74.8307 24.8888 75.0406C27.3845 75.2505 29.7887 76.0791 31.8843 77.4516C33.9798 78.8241 35.7008 80.6973 36.8919 82.902C38.0829 85.1067 38.7065 87.5735 38.7063 90.0797L38.7066 90.0789Z" fill="#E6E6E6"/>
<path d="M19.9697 91.4422C19.9697 91.4422 21.3426 95.2591 20.276 97.3954C19.2094 99.5318 21.954 101.975 21.954 101.975C21.954 101.975 29.1236 98.3112 28.2082 96.4794C27.2928 94.6476 25.7676 92.2053 26.0725 90.6788L19.9697 91.4422Z" fill="#FFB8B8"/>
<path d="M22.6402 92.8922C25.3361 92.8922 27.5216 90.7053 27.5216 88.0075C27.5216 85.3097 25.3361 83.1227 22.6402 83.1227C19.9443 83.1227 17.7588 85.3097 17.7588 88.0075C17.7588 90.7053 19.9443 92.8922 22.6402 92.8922Z" fill="#FFB8B8"/>
<path d="M19.7333 104.66C19.0137 104.47 18.3099 104.226 17.6279 103.928L17.7588 100.22L19.1313 97.1659C19.4399 97.4078 19.7701 97.6207 20.1178 97.802C20.2013 97.8476 20.2848 97.8911 20.3772 97.9348C21.6646 98.5573 23.7677 99.105 25.8063 97.5782C26.5553 96.9947 27.1911 96.2786 27.6819 95.4656L31.4884 97.6239L31.6883 99.9625L31.9199 102.684C31.5912 102.902 31.2532 103.106 30.9059 103.297C29.0987 104.297 27.104 104.912 25.0476 105.102C24.5801 105.148 24.1049 105.169 23.6255 105.169C22.3114 105.171 21.0028 104.999 19.7333 104.66Z" fill="#575A89"/>
<path d="M20.6701 94.881V94.8868L20.478 96.8805L20.377 97.9348L20.2286 99.5025L19.7336 104.659C19.014 104.47 18.3101 104.226 17.6282 103.928C17.2796 103.777 16.939 103.614 16.6062 103.437C15.8058 103.016 15.0454 102.523 14.3346 101.964L13.792 99.4568L13.8335 99.4289L20.6701 94.881Z" fill="#575A89"/>
<path d="M30.9042 103.296C29.097 104.296 27.1023 104.911 25.0459 105.101C25.1573 103.246 25.3193 101.455 25.5033 99.8594C25.5983 99.0409 25.6982 98.2758 25.8043 97.5782C26.135 95.3368 26.4914 93.8145 26.747 93.6086L28.4344 94.7231L35.299 97.1648L35.1503 99.8087C34.2158 100.916 33.1274 101.884 31.9182 102.683C31.5895 102.901 31.2515 103.106 30.9042 103.296Z" fill="#575A89"/>
<path d="M14.3346 101.964C14.0038 101.707 13.6849 101.435 13.3779 101.15L13.6394 99.457L13.8342 99.4291L14.7076 99.3043L16.6069 103.437C15.8066 103.016 15.0462 102.523 14.3354 101.964H14.3346Z" fill="#575A89"/>
<path d="M36.2548 98.3273C35.9186 98.8442 35.5502 99.3393 35.1518 99.8098C34.2173 100.918 33.1289 101.885 31.9197 102.684C31.591 102.902 31.253 103.106 30.9057 103.297L30.7256 102.51L31.6881 99.963L32.8604 96.8613L35.3004 97.1678C35.6387 97.5373 35.9572 97.9244 36.2548 98.3273Z" fill="#575A89"/>
<path d="M27.0238 88.5158C27.2064 88.5158 27.3543 88.2197 27.3543 87.8544C27.3543 87.4891 27.2064 87.193 27.0238 87.193C26.8413 87.193 26.6934 87.4891 26.6934 87.8544C26.6934 88.2197 26.8413 88.5158 27.0238 88.5158Z" fill="#FFB8B8"/>
<path d="M18.5596 83.4166L17.6839 83.0436C17.6839 83.0436 19.5155 80.8986 22.0638 81.0851L21.3471 80.2457C21.3471 80.2457 23.0984 79.4997 24.6918 81.4581C25.529 82.4877 26.4977 83.6978 27.1017 85.0609H28.0399L27.6485 85.978L29.0189 86.8951L27.6124 86.7304C27.6963 87.2329 27.7092 87.7459 27.6506 88.2525C27.5902 88.7588 27.3473 89.2204 26.9731 89.5399C26.9731 89.5399 25.8867 87.1479 25.8867 86.7749V87.7075C25.8867 87.7075 25.0111 86.8681 25.0111 86.3085L24.5333 86.9614L24.2943 85.9355L21.3471 86.9614L21.8248 86.122L19.9933 86.4019L20.71 85.376C20.71 85.376 18.6395 86.5884 18.5598 87.6141C18.4707 88.3253 18.2367 89.0072 17.874 89.6121C17.874 89.6121 16.25 84.8155 18.5596 83.4166Z" fill="#2B2B2B"/>
<path d="M173.145 68.4066H89.7852V112.28H173.145V68.4066Z" fill="white"/>
<path d="M125.083 90.0855C125.088 93.0176 124.235 95.887 122.629 98.3398C122.293 98.857 121.924 99.3525 121.526 99.8233C120.59 100.932 119.501 101.9 118.291 102.699C117.962 102.917 117.624 103.122 117.276 103.312C115.468 104.313 113.472 104.928 111.414 105.119C110.946 105.164 110.471 105.186 109.991 105.186C108.676 105.188 107.367 105.016 106.097 104.677C105.377 104.487 104.672 104.243 103.99 103.945C103.641 103.794 103.3 103.63 102.967 103.453C102.166 103.032 101.405 102.539 100.694 101.979C100.363 101.722 100.044 101.45 99.7368 101.164C97.8988 99.46 96.5139 97.3244 95.707 94.9505C94.9002 92.5766 94.6968 90.0389 95.1152 87.5666C95.5336 85.0943 96.5606 82.7652 98.1036 80.7895C99.6466 78.8138 101.657 77.2537 103.953 76.2501C106.25 75.2464 108.759 74.8308 111.256 75.0407C113.753 75.2506 116.159 76.0794 118.256 77.4524C120.352 78.8253 122.074 80.6992 123.266 82.9048C124.458 85.1104 125.083 87.578 125.083 90.0855Z" fill="#56CEA8"/>
<path d="M110.916 83.0359H109.066V97.1311H110.916V83.0359Z" fill="white"/>
<path d="M117.034 91.0093V89.158H102.949V91.0093H117.034Z" fill="white"/>
<path d="M169.489 77.9125H128.54V81.9397H169.489V77.9125Z" fill="#E6E6E6"/>
<path d="M162.908 88.1497H128.54V91.8058H162.908V88.1497Z" fill="#E6E6E6"/>
<path d="M157.626 98.0485H128.54V102.076H157.626V98.0485Z" fill="#E6E6E6"/>
<path d="M173.375 18.5332H90.0156V62.4067H173.375V18.5332Z" fill="white"/>
<path d="M125.315 40.2121C125.319 43.1442 124.466 46.0136 122.861 48.4664C122.524 48.9836 122.156 49.4791 121.757 49.9499C120.822 51.0584 119.733 52.0269 118.523 52.8257C118.194 53.0439 117.855 53.2482 117.508 53.4386C115.699 54.4396 113.703 55.0548 111.645 55.2454C111.178 55.2911 110.702 55.3128 110.222 55.3128C108.908 55.3141 107.598 55.1428 106.328 54.8032C105.608 54.6139 104.904 54.3692 104.221 54.0713C103.873 53.9205 103.532 53.7566 103.199 53.5796C102.398 53.1587 101.637 52.6654 100.925 52.1061C100.595 51.8482 100.275 51.5765 99.9683 51.2909C98.1303 49.5865 96.7454 47.451 95.9385 45.0771C95.1316 42.7032 94.9282 40.1655 95.3466 37.6932C95.765 35.2209 96.7921 32.8918 98.3351 30.9161C99.8781 28.9404 101.888 27.3803 104.185 26.3767C106.481 25.373 108.991 24.9574 111.488 25.1673C113.985 25.3772 116.39 26.206 118.487 27.5789C120.584 28.9519 122.306 30.8257 123.498 33.0314C124.69 35.237 125.314 37.7046 125.315 40.2121Z" fill="#56CEA8"/>
<path d="M169.719 28.0391H128.771V32.0663H169.719V28.0391Z" fill="#E6E6E6"/>
<path d="M163.138 38.2762H128.771V41.9324H163.138V38.2762Z" fill="#E6E6E6"/>
<path d="M157.857 48.175H128.771V52.2023H157.857V48.175Z" fill="#E6E6E6"/>
<path d="M111.145 33.1577H109.295V47.2529H111.145V33.1577Z" fill="white"/>
<path d="M117.263 41.131V39.2797H103.177V41.131H117.263Z" fill="white"/>
<path d="M11.7046 10.781C12.3915 10.781 12.9483 10.2239 12.9483 9.53652C12.9483 8.84919 12.3915 8.29199 11.7046 8.29199C11.0177 8.29199 10.4609 8.84919 10.4609 9.53652C10.4609 10.2239 11.0177 10.781 11.7046 10.781Z" fill="white"/>
<path d="M16.4253 10.781C17.1122 10.781 17.669 10.2239 17.669 9.53652C17.669 8.84919 17.1122 8.29199 16.4253 8.29199C15.7384 8.29199 15.1816 8.84919 15.1816 9.53652C15.1816 10.2239 15.7384 10.781 16.4253 10.781Z" fill="white"/>
<path d="M6.9712 10.781C7.65806 10.781 8.21486 10.2239 8.21486 9.53652C8.21486 8.84919 7.65806 8.29199 6.9712 8.29199C6.28435 8.29199 5.72754 8.84919 5.72754 9.53652C5.72754 10.2239 6.28435 10.781 6.9712 10.781Z" fill="white"/>
</svg>
