<svg width="567" height="398" viewBox="0 0 567 398" fill="none" xmlns="http://www.w3.org/2000/svg">
<g clip-path="url(#clip0)">
<path d="M378.588 383.892C378.588 383.892 383.196 368.367 365.668 359.528L378.588 383.892Z" fill="#E6E6E6"/>
<path d="M379.163 383.974C379.163 383.974 380.991 368.653 401.406 367.692L379.163 383.974Z" fill="#E6E6E6"/>
<path d="M538.328 388.402C535.086 401.754 364.87 400.633 365.127 388.402C368.369 375.051 538.586 376.172 538.328 388.402Z" fill="#E6E6E6"/>
<path d="M58.7738 38.1116C60.2917 38.1116 61.5222 36.8799 61.5222 35.3605C61.5222 33.8412 60.2917 32.6095 58.7738 32.6095C57.2559 32.6095 56.0254 33.8412 56.0254 35.3605C56.0254 36.8799 57.2559 38.1116 58.7738 38.1116Z" fill="white"/>
<path d="M69.2045 38.1116C70.7224 38.1116 71.9529 36.8799 71.9529 35.3605C71.9529 33.8412 70.7224 32.6095 69.2045 32.6095C67.6866 32.6095 66.4561 33.8412 66.4561 35.3605C66.4561 36.8799 67.6866 38.1116 69.2045 38.1116Z" fill="white"/>
<path d="M79.6361 38.1116C81.154 38.1116 82.3845 36.8799 82.3845 35.3605C82.3845 33.8412 81.154 32.6095 79.6361 32.6095C78.1182 32.6095 76.8877 33.8412 76.8877 35.3605C76.8877 36.8799 78.1182 38.1116 79.6361 38.1116Z" fill="white"/>
<path d="M401.107 41.8237H52.0957V43.7654H401.107V41.8237Z" fill="white"/>
<path d="M502.006 320.443C502.006 320.443 499.986 313.591 503.277 315.826C506.569 318.062 516.149 321.419 512.697 326.795C509.246 332.171 488.587 361.889 485.247 356C483.392 352.731 489.855 325.001 489.855 325.001C489.855 325.001 494.452 323.938 495.11 325.001C495.769 326.065 502.006 320.443 502.006 320.443Z" fill="#2F2E41"/>
<path d="M472.367 145.557L471.749 156.678L463.724 172.744L490.27 171.509L488.418 154.824L489.652 148.027L472.367 145.557Z" fill="#FFB8B8"/>
<path d="M469.28 164.711C469.28 164.711 473.602 169.655 484.714 164.093L493.357 206.111L494.592 243.805L457.551 242.569L458.168 204.257L469.28 164.711Z" fill="#D1D1D1"/>
<path d="M448.574 244.706C448.574 244.706 452.562 264.318 460.019 259.567C467.475 254.815 458.411 241.047 458.411 241.047L448.574 244.706Z" fill="#FFB8B8"/>
<path d="M485.331 350.097L484.714 360.602L494.592 363.691V349.479L485.331 350.097Z" fill="#FFB8B8"/>
<path d="M452.612 240.103V301.897L487.801 332.177L496.444 317.346L471.75 296.954L477.923 281.506L503.852 264.821V240.721L452.612 240.103Z" fill="#2F2E41"/>
<path d="M478.54 278.415L482.244 309.93L483.479 351.947H499.53C499.53 351.947 505.085 314.871 498.913 305.602L503.851 264.823L498.913 248.757L478.54 278.415Z" fill="#2F2E41"/>
<path d="M492.74 359.984C492.74 359.984 493.358 357.512 489.036 357.512C484.715 357.512 482.863 358.13 482.863 358.748C482.718 359.789 482.512 360.821 482.245 361.838C482.245 361.838 471.136 389.645 482.245 388.409C493.355 387.173 495.21 381.613 495.21 381.613L496.444 363.693C496.444 363.693 495.21 362.18 494.592 362.319C493.975 362.458 492.74 359.984 492.74 359.984Z" fill="#2F2E41"/>
<path d="M482.245 151.737C489.746 151.737 495.827 145.65 495.827 138.142C495.827 130.634 489.746 124.547 482.245 124.547C474.744 124.547 468.663 130.634 468.663 138.142C468.663 145.65 474.744 151.737 482.245 151.737Z" fill="#FFB8B8"/>
<path d="M484.715 168.421L480.393 163.478L488.748 153.011L492.123 156.675L511.881 165.327L506.326 219.706C506.326 219.706 505.708 235.772 509.412 246.895C509.412 246.895 501.387 256.782 489.04 254.31L472.989 257.4C472.989 257.4 471.133 177.69 484.715 168.421Z" fill="#575A89"/>
<path d="M471.132 165.332L471.842 155.032L468.664 159.151L451.995 171.51L453.847 240.102L459.402 243.192L468.663 169.66L471.132 165.332Z" fill="#575A89"/>
<path d="M456.316 170.893L451.995 171.511C451.995 171.511 448.908 177.071 448.908 177.69C448.908 178.31 447.673 210.441 447.673 210.441C447.673 210.441 445.513 242.884 449.217 249.063L460.146 237.293L456.316 226.508V170.893Z" fill="#575A89"/>
<path opacity="0.3" d="M481.92 307.164L482.771 327.848L480.204 325.637L481.92 307.164Z" fill="black"/>
<path opacity="0.3" d="M502.444 315.416L501.543 315.863L500.577 343.572L502.809 340.698L502.444 315.416Z" fill="black"/>
<path d="M520.52 247.518C520.52 247.518 517.434 267.295 526.075 265.438C534.717 263.582 531.014 247.518 531.014 247.518H520.52Z" fill="#FFB8B8"/>
<path d="M506.321 165.332H511.876C511.876 165.332 515.58 167.185 516.198 172.747C516.815 178.308 525.458 203.026 525.458 203.026C525.458 203.026 535.335 243.81 534.718 249.372H519.284L520.519 238.251L503.851 193.759L506.321 165.332Z" fill="#575A89"/>
<path d="M470.692 125.082L468.104 124.045C468.104 124.045 473.518 118.079 481.049 118.598L478.931 116.263C478.931 116.263 484.107 114.188 488.817 119.635C491.291 122.499 494.155 125.865 495.94 129.656H498.713L497.556 132.206L501.606 134.757L497.449 134.299C497.697 135.697 497.735 137.124 497.562 138.532C497.384 139.941 496.666 141.225 495.56 142.113V142.113C495.56 142.113 492.349 135.46 492.349 134.423V137.017C492.349 137.017 489.761 134.682 489.761 133.126L488.348 134.942L487.642 132.088L478.931 134.942L480.343 132.607L474.93 133.385L477.048 130.532C477.048 130.532 470.928 133.904 470.693 136.757C470.43 138.735 469.738 140.632 468.666 142.314C468.666 142.314 463.866 128.973 470.692 125.082Z" fill="#2F2E41"/>
<path d="M401.405 0.227417H0.170898V257.442H401.405V0.227417Z" fill="#E6E6E6"/>
<path d="M401.234 0H0V17.0623H401.234V0Z" fill="#3DDC84"/>
<path d="M390.264 30.8245H11.9756V128.877H390.264V30.8245Z" fill="white"/>
<path d="M390.503 144.99H12.2148V243.043H390.503V144.99Z" fill="white"/>
<path d="M344.449 52.5157H139.719V61.6491H344.449V52.5157Z" fill="#E6E6E6"/>
<path d="M212.714 75.3488H139.719V84.4821H212.714V75.3488Z" fill="#E6E6E6"/>
<path d="M285.14 98.1816H139.719V107.315H285.14V98.1816Z" fill="#E6E6E6"/>
<path d="M125.984 79.8961C125.995 86.5413 124.062 93.0444 120.425 98.6032C119.662 99.7753 118.827 100.898 117.924 101.965C115.805 104.477 113.337 106.672 110.595 108.483C109.85 108.977 109.084 109.441 108.297 109.873C104.199 112.141 99.6765 113.535 95.014 113.967C93.9542 114.071 92.8766 114.12 91.7896 114.12C88.8107 114.123 85.8442 113.735 82.9662 112.965C81.3348 112.536 79.7389 111.981 78.1928 111.306C77.4025 110.965 76.63 110.593 75.8755 110.192C74.0608 109.238 72.3369 108.12 70.7252 106.853C69.9753 106.268 69.2523 105.652 68.5563 105.005C64.3903 101.143 61.251 96.3026 59.4216 90.9217C57.5922 85.5409 57.1305 79.7887 58.0781 74.1845C59.0256 68.5804 61.3527 63.3006 64.8491 58.822C68.3455 54.3434 72.9012 50.807 78.105 48.5319C83.3087 46.2568 88.9965 45.3148 94.655 45.7909C100.313 46.267 105.764 48.1462 110.516 51.2589C115.267 54.3716 119.169 58.6197 121.869 63.6197C124.57 68.6197 125.984 74.2142 125.983 79.898L125.984 79.8961Z" fill="#E6E6E6"/>
<path d="M83.5029 82.9877C83.5029 82.9877 86.6156 91.644 84.1973 96.489C81.779 101.334 88.0018 106.875 88.0018 106.875C88.0018 106.875 104.257 98.5659 102.182 94.4115C100.106 90.2571 96.6485 84.7183 97.3397 81.2565L83.5029 82.9877Z" fill="#FFB8B8"/>
<path d="M89.5558 86.2765C95.6682 86.2765 100.623 81.3167 100.623 75.1984C100.623 69.0801 95.6682 64.1202 89.5558 64.1202C83.4434 64.1202 78.4883 69.0801 78.4883 75.1984C78.4883 81.3167 83.4434 86.2765 89.5558 86.2765Z" fill="#FFB8B8"/>
<path d="M82.9658 112.963C81.3344 112.534 79.7385 111.979 78.1924 111.304L78.4891 102.895L81.6011 95.9683C82.3007 96.5169 83.0494 96.9998 83.8375 97.4108C84.0269 97.5144 84.2163 97.613 84.4259 97.7122C87.3447 99.1237 92.1131 100.366 96.735 96.9034C98.4333 95.5801 99.8747 93.9561 100.988 92.1122L109.618 97.0071L110.071 102.311L110.596 108.482C109.851 108.977 109.085 109.44 108.297 109.872C104.2 112.14 99.6774 113.535 95.0149 113.966C93.955 114.07 92.8775 114.119 91.7905 114.119C88.8111 114.122 85.8442 113.733 82.9658 112.963Z" fill="#575A89"/>
<path d="M85.0898 90.7866V90.7999L84.6543 95.3214L84.4251 97.7123L84.0887 101.268L82.9663 112.963C81.3349 112.534 79.739 111.98 78.1929 111.304C77.4026 110.963 76.6302 110.591 75.8757 110.19C74.061 109.236 72.337 108.118 70.7254 106.851L69.4951 101.164L69.5892 101.101L85.0898 90.7866Z" fill="#575A89"/>
<path d="M108.296 109.871C104.199 112.139 99.6762 113.533 95.0137 113.965C95.2662 109.758 95.6336 105.695 96.0508 102.077C96.2661 100.221 96.4927 98.4857 96.7332 96.9035C97.4831 91.8203 98.291 88.3679 98.8705 87.901L102.696 90.4284L118.26 95.9659L117.923 101.962C115.805 104.474 113.337 106.669 110.595 108.48C109.85 108.976 109.084 109.44 108.296 109.871Z" fill="#575A89"/>
<path d="M70.7256 106.851C69.9757 106.266 69.2527 105.65 68.5566 105.003L69.1494 101.165L69.5912 101.101L71.5714 100.818L75.8777 110.19C74.063 109.236 72.3391 108.118 70.7275 106.851H70.7256Z" fill="#575A89"/>
<path d="M120.425 98.6026C119.663 99.7748 118.827 100.898 117.924 101.965C115.805 104.477 113.338 106.672 110.596 108.482C109.851 108.977 109.084 109.44 108.297 109.872L107.889 108.088L110.071 102.312L112.729 95.2778L118.261 95.9728C119.028 96.8109 119.75 97.6887 120.425 98.6026V98.6026Z" fill="#575A89"/>
<path d="M100.11 65.1792C98.4371 62.4593 95.818 60.4548 92.7571 59.5514L90.5086 61.3522L91.3829 59.2519C90.6476 59.1404 89.9035 59.0981 89.1603 59.1255L87.1372 61.7294L87.9748 59.2146C86.2192 59.4331 84.5278 60.0132 83.0073 60.9185C81.4869 61.8239 80.1703 63.0347 79.1406 64.4747C76.5658 68.1913 76.1309 73.3597 78.6641 77.1053C79.3584 74.9665 80.203 72.9598 80.8986 70.821C81.4451 70.8956 81.999 70.8984 82.5462 70.8292L83.392 68.8534L83.6281 70.7452C86.2496 70.5164 90.1387 70.0148 92.6239 69.5548L92.3821 68.1015L93.8283 69.3077C94.5896 69.1321 95.0421 68.9728 95.0043 68.8515C96.8525 71.8345 98.6844 73.7395 100.533 76.7224C101.233 72.5169 102.471 69.0177 100.11 65.1792Z" fill="#2F2E41"/>
<path d="M99.4973 76.3508C99.9111 76.3508 100.247 75.6793 100.247 74.8508C100.247 74.0224 99.9111 73.3508 99.4973 73.3508C99.0835 73.3508 98.748 74.0224 98.748 74.8508C98.748 75.6793 99.0835 76.3508 99.4973 76.3508Z" fill="#FFB8B8"/>
<path d="M124.321 193.514C124.332 200.164 122.398 206.671 118.758 212.234C117.995 213.407 117.159 214.531 116.255 215.599C114.135 218.112 111.665 220.309 108.922 222.121C108.176 222.615 107.409 223.079 106.621 223.511C102.52 225.781 97.9947 227.176 93.3288 227.608C92.2684 227.712 91.1902 227.761 90.1026 227.761C87.1215 227.764 84.1529 227.375 81.2728 226.605C79.6403 226.176 78.0434 225.621 76.4962 224.945C75.7055 224.603 74.9327 224.232 74.1777 223.83C72.3617 222.876 70.6365 221.757 69.0237 220.488C68.2733 219.904 67.5499 219.288 66.8535 218.64C62.6862 214.774 59.5462 209.931 57.7168 204.548C55.8874 199.164 55.4262 193.409 56.3749 187.802C57.3235 182.195 59.6521 176.913 63.1506 172.432C66.649 167.951 71.207 164.413 76.4133 162.137C81.6196 159.861 87.3103 158.918 92.9716 159.394C98.6329 159.87 104.087 161.75 108.841 164.864C113.595 167.977 117.499 172.227 120.202 177.229C122.904 182.231 124.32 187.828 124.321 193.514Z" fill="#3DDC84"/>
<path d="M92.2024 177.527H88.0078V209.493H92.2024V177.527Z" fill="white"/>
<path d="M106.072 195.61V191.411H74.1367V195.61H106.072Z" fill="white"/>
<path d="M339.316 166.681H134.586V175.814H339.316V166.681Z" fill="#E6E6E6"/>
<path d="M207.582 189.514H134.586V198.647H207.582V189.514Z" fill="#E6E6E6"/>
<path d="M280.007 212.347H134.586V221.48H280.007V212.347Z" fill="#E6E6E6"/>
<path d="M567 297.706C567.002 303.135 565.748 308.491 563.337 313.354C560.926 318.217 557.422 322.455 553.102 325.737C552.475 326.214 551.834 326.67 551.177 327.107C551.009 327.219 550.84 327.327 550.672 327.43C550.06 327.823 549.439 328.188 548.808 328.534C548.555 328.674 548.303 328.81 548.05 328.941C547.999 328.969 547.952 328.992 547.901 329.015C547.578 329.183 547.256 329.348 546.929 329.502C545.5 330.186 544.025 330.77 542.515 331.251C540.121 332.013 537.653 332.515 535.152 332.747C534.058 332.85 532.952 332.901 531.835 332.901C528.771 332.904 525.721 332.505 522.762 331.713C521.243 331.314 519.753 330.809 518.305 330.203C518.155 330.139 518.001 330.076 517.851 330.013C517.141 329.704 516.445 329.372 515.763 329.017L515.469 328.863C514.726 328.475 514.001 328.06 513.292 327.619C512.213 326.946 511.171 326.216 510.171 325.43C509.662 325.037 509.167 324.626 508.685 324.196C508.433 323.981 508.185 323.753 507.942 323.532C506.997 322.654 506.101 321.726 505.256 320.751C504.919 320.363 504.592 319.97 504.275 319.568C500.789 315.166 498.407 309.992 497.327 304.48C496.246 298.968 496.5 293.277 498.066 287.883C499.631 282.489 502.464 277.549 506.327 273.474C510.19 269.4 514.971 266.31 520.271 264.463C525.571 262.616 531.235 262.065 536.791 262.857C542.346 263.648 547.632 265.76 552.206 269.014C556.781 272.268 560.51 276.57 563.084 281.562C565.658 286.553 567 292.089 567 297.706H567Z" fill="#E6E6E6"/>
<path d="M542.808 313.476C545.719 313.476 548.078 311.114 548.078 308.2C548.078 305.287 545.719 302.925 542.808 302.925C539.898 302.925 537.538 305.287 537.538 308.2C537.538 311.114 539.898 313.476 542.808 313.476Z" fill="#2F2E41"/>
<path d="M544.278 303.071C545.19 303.071 546.086 303.308 546.879 303.758C547.673 304.209 548.336 304.858 548.803 305.642C549.271 306.426 549.527 307.318 549.547 308.231C549.567 309.144 549.35 310.046 548.917 310.85C549.374 310.278 549.707 309.616 549.894 308.908C550.081 308.2 550.119 307.461 550.006 306.737C549.892 306.014 549.629 305.322 549.233 304.706C548.837 304.09 548.318 303.563 547.707 303.159C547.097 302.755 546.409 302.482 545.688 302.359C544.967 302.236 544.228 302.264 543.518 302.442C542.808 302.621 542.143 302.945 541.566 303.395C540.988 303.845 540.51 304.41 540.163 305.055C540.656 304.435 541.282 303.935 541.994 303.592C542.707 303.248 543.487 303.07 544.278 303.071H544.278Z" fill="#2F2E41"/>
<path d="M532.96 308.189C541.511 308.189 548.442 301.251 548.442 292.692C548.442 284.134 541.511 277.196 532.96 277.196C524.41 277.196 517.479 284.134 517.479 292.692C517.479 301.251 524.41 308.189 532.96 308.189Z" fill="#2F2E41"/>
<path d="M520.81 283.078C523.477 280.075 527.206 278.227 531.209 277.923C535.212 277.62 539.177 278.886 542.265 281.453C542.139 281.332 542.013 281.211 541.882 281.094C540.364 279.733 538.593 278.685 536.669 278.01C534.746 277.336 532.708 277.049 530.673 277.165C528.638 277.28 526.647 277.797 524.812 278.685C522.977 279.573 521.335 280.816 519.981 282.34C518.627 283.865 517.587 285.642 516.921 287.57C516.255 289.498 515.975 291.539 516.099 293.575C516.222 295.611 516.746 297.603 517.64 299.436C518.535 301.269 519.782 302.908 521.31 304.257C521.441 304.374 521.577 304.485 521.711 304.596C518.802 301.827 517.083 298.034 516.915 294.019C516.746 290.004 518.143 286.081 520.81 283.078H520.81Z" fill="#2F2E41"/>
<path d="M532.828 308.058C538.335 308.058 542.799 303.589 542.799 298.077C542.799 292.565 538.335 288.096 532.828 288.096C527.322 288.096 522.857 292.565 522.857 298.077C522.857 303.589 527.322 308.058 532.828 308.058Z" fill="#A0616A"/>
<path d="M525.743 301.229C525.743 301.229 527.055 313.311 524.956 314.624C522.857 315.937 537.027 317.776 537.027 317.776C537.027 317.776 534.927 304.643 540.175 301.229L525.743 301.229Z" fill="#A0616A"/>
<path d="M550.672 324.081V327.897C550.059 328.29 549.438 328.655 548.808 329.001C548.555 329.141 548.303 329.277 548.05 329.408V329.482H547.901C547.578 329.65 547.256 329.814 546.929 329.969C545.499 330.653 544.024 331.237 542.514 331.718C540.12 332.48 537.652 332.982 535.151 333.214C534.057 333.317 532.951 333.368 531.834 333.368C528.771 333.371 525.72 332.972 522.761 332.18C521.242 331.781 519.753 331.276 518.304 330.669C518.154 330.606 518 330.543 517.851 330.48C517.141 330.171 516.445 329.839 515.762 329.484L515.468 329.33C514.726 328.942 514 328.527 513.291 328.086C512.212 327.413 511.17 326.683 510.17 325.897C509.661 325.504 509.166 325.093 508.684 324.663C508.432 324.447 508.184 324.22 507.941 323.998C506.997 323.121 506.1 322.193 505.255 321.218C505.366 320.425 505.551 319.644 505.806 318.885L505.811 318.881C505.883 318.682 505.967 318.488 506.064 318.3C507.194 316.182 509.235 315.658 511.777 315.546C513.207 315.483 514.791 315.551 516.468 315.532C517.352 315.528 518.262 315.495 519.183 315.411C524.957 314.887 523.906 311.473 524.169 309.635C524.426 307.854 526.029 309.397 526.136 309.499L526.141 309.504C529.409 311.036 533.025 311.672 536.619 311.346H536.624C537.239 311.268 537.858 311.221 538.478 311.206C540.104 311.187 539.749 311.655 539.193 312.038C538.919 312.218 538.633 312.378 538.338 312.52C538.338 312.52 538.077 314.096 537.815 316.462C537.562 318.725 541.893 319.787 542.253 319.866C542.26 319.871 542.268 319.875 542.276 319.876C543.858 319.464 545.524 319.506 547.084 319.997C547.974 320.325 548.768 320.87 549.395 321.583C550.021 322.296 550.46 323.154 550.672 324.079V324.081Z" fill="#3DDC84"/>
<path d="M518.365 329.482C518.352 329.908 518.328 330.304 518.302 330.67C518.153 330.607 517.999 330.544 517.849 330.481C517.139 330.172 516.443 329.84 515.761 329.485L515.467 329.331C514.724 328.943 513.998 328.528 513.29 328.087C513.311 327.714 513.352 327.342 513.411 326.974C513.978 323.088 513.41 319.12 511.776 315.549C511.65 315.292 511.575 315.152 511.575 315.152C511.575 315.152 513.411 313.576 516.032 315.152C516.198 315.255 516.344 315.384 516.467 315.536C518.206 317.595 518.547 325.021 518.365 329.482Z" fill="#2F2E41"/>
<path d="M546.953 329.482C546.948 329.641 546.939 329.805 546.929 329.969C545.5 330.653 544.024 331.237 542.514 331.718L542.425 329.482L542.089 320.607C542.075 320.35 542.132 320.095 542.252 319.868C542.373 319.633 542.556 319.436 542.781 319.298C543.007 319.16 543.266 319.088 543.53 319.088H546.735C546.894 319.088 547.006 319.411 547.081 319.996C547.285 321.621 547.186 325.255 546.953 329.482Z" fill="#2F2E41"/>
<path d="M524.301 285.601V295.584H526.61L529.548 292.433L529.155 295.584H539.362L538.731 292.433L539.993 295.584H541.621V285.601H524.301Z" fill="#2F2E41"/>
<path d="M522.727 297.421C523.161 297.421 523.514 296.774 523.514 295.976C523.514 295.178 523.161 294.532 522.727 294.532C522.292 294.532 521.939 295.178 521.939 295.976C521.939 296.774 522.292 297.421 522.727 297.421Z" fill="#A0616A"/>
<path d="M542.932 297.421C543.366 297.421 543.719 296.774 543.719 295.976C543.719 295.178 543.366 294.532 542.932 294.532C542.497 294.532 542.145 295.178 542.145 295.976C542.145 296.774 542.497 297.421 542.932 297.421Z" fill="#A0616A"/>
<path d="M553.1 326.204C552.474 326.681 551.832 327.138 551.175 327.575C551.007 327.687 550.839 327.795 550.67 327.898C550.058 328.291 549.437 328.656 548.806 329.001C548.554 329.142 548.301 329.277 548.049 329.408V321.978C548.049 321.978 549.063 322.787 550.67 324.134C551.376 324.727 552.199 325.428 553.1 326.204Z" fill="#3DDC84"/>
<path d="M26.5365 11.3101C28.0938 11.3101 29.3563 10.0464 29.3563 8.48761C29.3563 6.92881 28.0938 5.66516 26.5365 5.66516C24.9792 5.66516 23.7168 6.92881 23.7168 8.48761C23.7168 10.0464 24.9792 11.3101 26.5365 11.3101Z" fill="white"/>
<path d="M37.2397 11.3101C38.797 11.3101 40.0594 10.0464 40.0594 8.48761C40.0594 6.92881 38.797 5.66516 37.2397 5.66516C35.6824 5.66516 34.4199 6.92881 34.4199 8.48761C34.4199 10.0464 35.6824 11.3101 37.2397 11.3101Z" fill="white"/>
<path d="M15.8061 11.3101C17.3634 11.3101 18.6258 10.0464 18.6258 8.48761C18.6258 6.92881 17.3634 5.66516 15.8061 5.66516C14.2488 5.66516 12.9863 6.92881 12.9863 8.48761C12.9863 10.0464 14.2488 11.3101 15.8061 11.3101Z" fill="white"/>
</g>
<defs>
<clipPath id="clip0">
<rect width="567" height="398" fill="white"/>
</clipPath>
</defs>
</svg>
