<svg width="587" height="411" viewBox="0 0 587 411" fill="none" xmlns="http://www.w3.org/2000/svg">
<path d="M249.434 15.8176C225.609 6.74062 200.431 -0.841566 174.729 0.111623C136.939 1.50891 100.663 22.8094 82.8974 54.086C67.8246 80.5857 65.9648 111.646 59.4718 141.054C51.4812 177.28 36.1488 211.72 19.7784 245.39C10.9877 263.479 1.71046 281.958 0.266972 301.785C-1.73337 329.314 12.3069 356.745 34.3269 375.056C56.3469 393.367 85.5898 403.029 114.941 405.136C130.56 406.257 146.881 405.217 160.754 398.404C175.432 391.195 186.131 378.17 200.869 371.065C214.525 364.479 230.501 363.558 245.834 364.414C265.852 365.531 285.614 369.469 304.536 376.112C325.966 383.651 345.894 394.575 367.249 402.222C388.604 409.869 412.522 414.137 434.374 407.757C454.918 401.762 471.137 387.204 485.761 372.462C509.674 348.4 531.591 322.429 551.297 294.804C564.494 276.277 576.777 256.731 582.611 235.138C593.769 193.853 578.415 147.276 544.361 119.082C516.145 95.723 478.279 85.5846 441.213 79.4322C407.413 73.8213 368.33 73.4747 337.217 58.8519C307.547 44.8899 280.548 27.6783 249.434 15.8176Z" fill="#F6A5B6"/>
<path d="M327.354 345.975V365.65H332.939L331.857 344.529L327.354 345.975Z" fill="#AAABB0"/>
<path d="M243.463 342.005V361.681H249.053L247.972 340.559L243.463 342.005Z" fill="#AAABB0"/>
<path d="M341.048 313.123C341.048 311.128 339.435 309.51 337.445 309.51C335.455 309.51 333.841 311.128 333.841 313.123V340.922C333.841 342.917 335.455 344.535 337.445 344.535C339.435 344.535 341.048 342.917 341.048 340.922V313.123Z" fill="#AAABB0"/>
<path d="M248.599 305.356C248.599 303.361 246.986 301.744 244.996 301.744C243.006 301.744 241.392 303.361 241.392 305.356V340.917C241.392 342.912 243.006 344.529 244.996 344.529C246.986 344.529 248.599 342.912 248.599 340.917V305.356Z" fill="#AAABB0"/>
<path d="M350.244 99.9184C350.244 99.9184 357.451 96.8476 358.532 99.9184C359.613 102.989 360.154 129.527 360.154 129.527H353.304L350.244 99.9184Z" fill="#AAABB0"/>
<path d="M271.311 99.9184C271.311 99.9184 264.099 96.8476 263.018 99.9184C261.937 102.989 261.396 129.527 261.396 129.527H268.246L271.311 99.9184Z" fill="#AAABB0"/>
<path d="M272.387 73.5596L271.306 95.5857H276.172V73.0181L272.387 73.5596Z" fill="#AAABB0"/>
<path d="M268.246 129.527L269.689 97.752C269.689 97.752 269.149 90.7114 286.265 92.8778C303.382 95.0441 353.488 99.3767 353.488 99.3767V129.527H268.246Z" fill="#33323D"/>
<path d="M336.728 296.875L334.025 345.433C334.025 345.433 294.375 367.46 246.258 346.517L250.583 295.429L336.728 296.875Z" fill="#33323D"/>
<path d="M299.062 105.691L299.96 137.103H355.829L352.585 95.5856L299.062 105.691Z" fill="#444053"/>
<path d="M304.739 276.111H252.113V342.904H304.739V276.111Z" fill="#4C4981"/>
<path d="M285.368 303.374C285.368 303.374 292.937 297.417 294.196 299.22C295.456 301.024 289.698 308.79 287.352 307.886C285.006 306.981 285.368 303.374 285.368 303.374Z" fill="#FFB9B9"/>
<path d="M495.438 127.718H149.987V301.024H495.438V127.718Z" fill="#504F60"/>
<path d="M268.424 72.2977C268.424 72.2977 265.721 47.0221 268.424 43.9567C271.127 40.8914 316.541 11.8193 358.532 45.9389C358.532 45.9389 362.495 46.123 361.776 55.1458C361.352 60.8564 361.381 66.5917 361.862 72.2977C361.862 72.2977 271.49 78.7966 268.424 72.2977Z" fill="#33323D"/>
<path opacity="0.1" d="M268.424 72.2977C268.424 72.2977 265.721 47.0221 268.424 43.9567C271.127 40.8914 316.541 11.8193 358.532 45.9389C358.532 45.9389 362.495 46.123 361.776 55.1458C361.352 60.8564 361.381 66.5917 361.862 72.2977C361.862 72.2977 271.49 78.7966 268.424 72.2977Z" fill="black"/>
<path d="M268.424 75.5472C268.424 75.5472 265.721 50.2716 268.424 47.2062C271.127 44.1409 316.541 15.0688 358.532 49.1884C358.532 49.1884 362.495 49.3726 361.776 58.3953C361.352 64.1059 361.381 69.8412 361.862 75.5472C361.862 75.5472 271.49 82.0462 268.424 75.5472Z" fill="#33323D"/>
<path d="M363.398 63.9954C363.398 63.9954 366.28 74.827 365.382 76.6305C364.485 78.4339 364.647 83.4923 364.647 83.4923C364.647 83.4923 364.841 86.7418 363.398 87.0992C361.954 87.4567 360.695 87.6408 361.863 88.724C363.03 89.8071 361.863 91.4319 361.863 91.4319C361.863 91.4319 361.23 93.9611 361.863 95.5858C362.495 97.2105 358.165 97.8875 358.532 99.9184C358.9 101.949 360.111 107.679 358.532 107.863C356.954 108.048 359.073 115.083 357.651 115.083C356.229 115.083 355.218 127.718 355.218 127.718C355.218 127.718 345.216 119.237 338.55 121.582C338.55 121.582 339.091 114.541 341.253 112.012C343.416 109.483 342.762 102.989 342.762 102.989L353.488 70.6731L363.398 63.9954Z" fill="#4C4981"/>
<path d="M309.875 213.352C307.534 215.947 305.009 202.093 305.009 202.093C305.009 202.093 298.343 211.3 294.018 205.164C291.023 200.912 293.386 188.868 295.099 181.876C295.867 178.767 296.516 176.655 296.516 176.655L306.247 175.03C306.247 175.03 306.28 177.153 306.496 179.731C306.788 183.213 307.42 187.535 308.767 188.57C311.14 190.362 312.221 210.737 309.875 213.352Z" fill="#AE6E79"/>
<path opacity="0.1" d="M304.831 51.176C304.831 51.176 287.887 50.9973 283.746 60.02C279.605 69.0427 279.421 72.1189 277.799 73.5595C276.177 75.0001 295.456 82.5877 295.456 82.5877L296.359 113.637C296.359 113.637 300.143 109.797 306.269 111.535C312.394 113.274 320.147 111.535 320.147 111.535C320.147 111.535 319.785 110.88 324.834 111.535C329.884 112.191 345.919 103.709 345.919 103.709C345.919 103.709 346.184 90.1265 345.827 87.2345C345.47 84.3424 357.267 63.0908 357.267 63.0908C357.267 63.0908 366.458 54.2467 356.91 51.176C356.91 51.176 353.531 46.0743 344.838 46.123C336.144 46.1718 304.831 51.176 304.831 51.176Z" fill="black"/>
<path d="M304.831 50.6345C304.831 50.6345 287.887 50.4558 283.746 59.4785C279.605 68.5012 279.421 71.5774 277.799 73.018C276.177 74.4586 295.456 82.0462 295.456 82.0462L296.359 113.095C296.359 113.095 300.143 109.255 306.269 110.994C312.394 112.732 320.147 110.994 320.147 110.994C320.147 110.994 319.785 110.338 324.834 110.994C329.884 111.649 345.919 103.168 345.919 103.168C345.919 103.168 352.223 92.8778 351.866 89.9912C351.509 87.1046 364.479 65.2572 364.479 65.2572C364.479 65.2572 366.463 53.7052 356.91 50.6345C356.91 50.6345 353.531 45.5328 344.838 45.5815C336.145 45.6303 304.831 50.6345 304.831 50.6345Z" fill="#057BE8"/>
<path opacity="0.1" d="M306.539 179.715C302.825 178.556 296.997 181.112 295.143 181.881C295.91 178.773 296.559 176.66 296.559 176.66L306.29 175.036C306.29 175.036 306.307 177.159 306.539 179.715Z" fill="black"/>
<path d="M283.021 73.0181H277.799C277.799 73.0181 276.718 84.0338 277.799 87.2833C278.88 90.5328 279.421 90.0616 279.059 92.4662C278.696 94.8709 281.583 98.5536 281.583 98.5536C281.583 98.5536 281.94 107.631 283.746 111.01C285.552 114.389 281.762 129.543 281.762 129.543C282.795 132.159 284.325 134.55 286.265 136.583C289.331 139.649 290.953 151.022 290.05 155.355C289.147 159.687 292.575 161.312 292.575 161.312C292.575 161.312 294.018 181.535 294.559 181.535C295.099 181.535 305.55 176.119 308.794 180.809L306.269 162.216L306.453 126.293C306.453 126.293 303.025 121.777 304.831 117.807C306.637 113.837 303.387 104.446 303.387 104.446L298.7 83.5085L283.021 73.0181Z" fill="#4C4981"/>
<path d="M250.583 358.431C250.583 358.431 243.014 356.806 242.836 358.431C242.658 360.056 233.824 376.666 244.82 381.54C255.817 386.415 285.184 396.883 332.944 383.344C332.944 383.344 336.004 384.427 335.285 377.749C334.566 371.072 334.566 363.668 334.566 363.668C334.566 363.668 327.354 361.681 321.947 362.406C316.541 363.132 269.506 372.696 250.583 358.431Z" fill="#33323D"/>
<path opacity="0.1" d="M250.583 358.431C250.583 358.431 243.014 356.806 242.836 358.431C242.658 360.056 233.824 376.666 244.82 381.54C255.817 386.415 285.184 396.883 332.944 383.344C332.944 383.344 336.004 384.427 335.285 377.749C334.566 371.072 334.566 363.668 334.566 363.668C334.566 363.668 327.354 361.681 321.947 362.406C316.541 363.132 269.506 372.696 250.583 358.431Z" fill="black"/>
<path d="M250.583 356.265C250.583 356.265 243.014 354.64 242.836 356.265C242.658 357.89 233.824 374.5 244.82 379.374C255.817 384.248 285.184 394.717 332.944 381.178C332.944 381.178 336.004 382.261 335.285 375.583C334.566 368.905 334.566 361.502 334.566 361.502C334.566 361.502 327.354 359.514 321.947 360.24C316.541 360.966 269.506 370.53 250.583 356.265Z" fill="#33323D"/>
<path d="M294.721 79.5061C294.256 82.1545 293.202 84.6999 293.04 87.3807C292.877 90.0616 293.91 93.1107 296.381 94.1613C297.07 94.3677 297.738 94.6397 298.376 94.9737C299.327 95.6182 299.716 96.8313 299.916 97.9686C300.182 99.437 300.246 100.935 300.106 102.42C299.97 103.915 299.651 105.524 300.387 106.829C301.679 109.141 305.047 108.8 307.61 108.15L306.728 114.991C306.658 115.532 306.615 116.144 307.01 116.512C307.196 116.644 307.407 116.737 307.63 116.785C307.853 116.833 308.083 116.836 308.307 116.794C310.535 116.653 312.827 116.344 314.735 115.169C316.644 113.994 318.066 111.806 317.703 109.602C317.282 107.046 314.643 105.015 315 102.448C315.276 100.46 317.217 99.198 318.493 97.6708C320.801 94.8762 320.926 90.6302 319.114 87.4674C317.303 84.3045 313.805 82.344 310.205 81.9866C308.21 81.7862 306.134 82.0299 304.258 81.3367C303.605 81.0968 303.016 80.709 302.538 80.2036C302.06 79.6981 301.705 79.0887 301.5 78.423" fill="#444053"/>
<path d="M231.845 320.342L233.732 316.226C233.732 316.226 243.917 306.721 246.258 306.055C248.599 305.389 258.152 302.486 259.596 302.486C261.039 302.486 287.352 301.04 287.352 301.04L290.412 308.265L257.39 315.527L246.258 323.651L231.845 320.342Z" fill="#767D9F"/>
<path d="M311.183 209.496L309.459 222.792L308.794 227.91L301.046 228.993C301.046 228.993 300.208 227.195 299.024 224.433C295.429 216.05 288.66 198.762 292.585 195.778C297.802 191.803 299.073 204.985 299.073 204.985L305.02 202.093L311.183 209.496Z" fill="#FFB9B9"/>
<path d="M309.891 234.23H270.765V293.441H309.891V234.23Z" fill="white"/>
<path opacity="0.1" d="M309.891 234.23H270.765V293.441H309.891V234.23Z" fill="black"/>
<path d="M327.476 237.436L288.771 231.704L280.126 290.278L318.831 296.011L327.476 237.436Z" fill="white"/>
<path d="M312.337 240.241L292.415 237.29L287.965 267.437L307.887 270.388L312.337 240.241Z" fill="#057BE8"/>
<path d="M309.966 279.591L285.829 276.017L284.863 282.564L309 286.138L309.966 279.591Z" fill="#057BE8"/>
<path opacity="0.1" d="M320.147 84.8409C332.637 84.8409 342.762 74.6982 342.762 62.1866C342.762 49.6749 332.637 39.5322 320.147 39.5322C307.657 39.5322 297.532 49.6749 297.532 62.1866C297.532 74.6982 307.657 84.8409 320.147 84.8409Z" fill="black"/>
<path d="M320.147 84.2991C332.637 84.2991 342.762 74.1564 342.762 61.6447C342.762 49.1331 332.637 38.9904 320.147 38.9904C307.657 38.9904 297.532 49.1331 297.532 61.6447C297.532 74.1564 307.657 84.2991 320.147 84.2991Z" fill="#AE6E79"/>
<path d="M301.5 78.4338C301.347 77.8503 301.402 77.2312 301.657 76.6845C302.517 74.8919 304.966 74.7348 306.95 74.8269C311.616 75.0435 316.736 75.0706 320.385 72.119C321.899 70.9058 323.591 67.8567 325.791 68.4362C327.748 68.9507 328.565 71.6099 330.603 72.2002C332.079 72.628 333.609 71.9457 335.112 71.6586C337.274 71.2308 339.491 71.5882 341.686 71.6045C343.881 71.6207 346.265 71.2037 347.763 69.5952C349.785 67.4289 349.455 64.044 349.277 61.0761C349.055 57.2424 349.315 53.396 350.05 49.6271C350.785 45.8794 351.915 41.6875 349.85 38.4759C347.882 35.416 343.805 34.5766 341.021 32.2315C338.415 30.0652 337.037 26.5936 334.285 24.5844C330.819 22.0552 326.11 22.418 321.85 22.8567L312.605 23.8424C310.221 24.097 307.739 24.384 305.777 25.8084C302.236 28.3754 301.749 33.71 298.397 36.5208C296.905 37.7665 294.997 38.3839 293.294 39.3154C291.591 40.2469 289.947 41.72 289.752 43.648C289.59 45.2728 290.466 46.773 290.893 48.3381C291.904 52.075 290.326 55.9203 289.315 59.6843C288.304 63.4482 288.109 68.0192 291.045 70.5159C291.639 71.025 292.331 71.4149 292.91 71.9457C294.894 73.7599 295.164 76.8199 294.705 79.4628" fill="#444053"/>
<path d="M321.991 89.9425C322.289 89.9425 322.531 89.3363 322.531 88.5886C322.531 87.8408 322.289 87.2346 321.991 87.2346C321.692 87.2346 321.45 87.8408 321.45 88.5886C321.45 89.3363 321.692 89.9425 321.991 89.9425Z" fill="#444053"/>
<path d="M321.991 95.5856C322.289 95.5856 322.531 94.9794 322.531 94.2316C322.531 93.4839 322.289 92.8777 321.991 92.8777C321.692 92.8777 321.45 93.4839 321.45 94.2316C321.45 94.9794 321.692 95.5856 321.991 95.5856Z" fill="#444053"/>
<path d="M309.999 213.315C310.578 212.649 310.962 210.937 311.183 208.679L304.739 200.631C304.739 200.631 307.469 216.234 309.999 213.315Z" fill="#AE6E79"/>
<path opacity="0.1" d="M317.265 346.338C317.265 346.338 306.69 362.715 273.652 360.96C242.528 359.335 227.336 343.992 228.06 338.577C228.785 333.161 226.076 319.979 232.742 316.188C236.608 313.994 241.695 315.294 245.285 316.778C246.525 317.283 247.883 317.425 249.2 317.188C250.518 316.951 251.742 316.345 252.729 315.44C256.011 312.478 262.131 309.142 271.792 311.768C273.035 312.101 274.347 312.076 275.577 311.698C279.599 310.469 289.174 308.335 296.121 313.074C297.219 313.832 298.51 314.261 299.842 314.312C301.175 314.363 302.494 314.033 303.647 313.361L303.744 313.301C306.988 311.313 322.126 330.09 322.126 330.09C322.126 330.09 322.85 344.534 317.265 346.338Z" fill="black"/>
<path d="M317.265 346.879C317.265 346.879 306.69 363.257 273.652 361.502C242.528 359.877 227.336 344.534 228.06 339.119C228.785 333.703 226.076 320.521 232.742 316.73C236.608 314.536 241.695 315.836 245.285 317.32C246.525 317.824 247.883 317.967 249.2 317.73C250.518 317.493 251.742 316.887 252.729 315.982C256.011 313.02 262.131 309.684 271.792 312.31C273.035 312.642 274.347 312.618 275.577 312.24C279.599 311.01 289.174 308.877 296.121 313.615C297.219 314.374 298.51 314.803 299.842 314.854C301.175 314.905 302.494 314.575 303.647 313.903L303.744 313.843C306.988 311.855 322.126 330.632 322.126 330.632C322.126 330.632 322.85 345.076 317.265 346.879Z" fill="#767D9F"/>
<path opacity="0.1" d="M273.652 353.292C285.548 353.292 295.191 343.631 295.191 331.715C295.191 319.799 285.548 310.138 273.652 310.138C261.757 310.138 252.113 319.799 252.113 331.715C252.113 343.631 261.757 353.292 273.652 353.292Z" fill="black"/>
<path d="M273.652 353.833C285.548 353.833 295.191 344.173 295.191 332.257C295.191 320.34 285.548 310.68 273.652 310.68C261.757 310.68 252.113 320.34 252.113 332.257C252.113 344.173 261.757 353.833 273.652 353.833Z" fill="#FFB9B9"/>
<path d="M267.478 313.605C265.218 314.217 262.991 315.387 261.888 317.309C261.223 318.468 260.99 319.86 260.028 320.824C258.666 322.194 256.368 322.221 254.524 322.99C252.681 323.759 251.464 326.467 253.27 327.323C251.389 327.421 249.994 329.159 249.761 330.887C249.529 332.614 250.183 334.337 250.816 335.983C252.881 341.312 255.103 346.874 259.655 350.665C267.073 356.85 278.253 356.563 288.217 355.908C289.031 355.935 289.838 355.748 290.558 355.366C291.639 354.651 291.774 353.281 291.953 352.079C292.704 346.945 295.483 342.282 297.3 337.38C299.116 332.479 299.862 326.722 296.802 322.384C292.299 315.95 275.058 311.547 267.478 313.605Z" fill="#B96B6B"/>
<path opacity="0.1" d="M309.459 222.792L308.794 227.91L301.046 228.993C301.046 228.993 300.208 227.195 299.024 224.433L309.334 222.494L309.459 222.792Z" fill="black"/>
<path d="M317.622 335.869L322.131 330.632L321.228 301.749C321.672 299.666 321.974 297.554 322.131 295.429C322.31 292.358 319.877 285.502 319.877 285.502C320.254 284.129 320.767 282.798 321.407 281.527C322.488 279.36 319.882 274.486 319.882 274.486C319.882 274.486 316 261.851 317.622 255.531C319.244 249.211 317.228 245.604 317.228 245.604C317.228 245.604 315.644 238.563 315.822 235.676C316 232.79 312.216 230.076 312.216 230.076L309.334 223.036L297.803 225.202V249.573C297.803 249.573 298.522 272.861 297.803 277.378C297.083 281.895 299.241 286.222 299.241 286.222C299.241 286.222 297.981 292.9 299.062 295.429C300.143 297.958 302.306 304.094 302.306 304.094C301.905 306.287 302.029 308.544 302.668 310.68C303.75 313.843 302.668 315.646 302.668 315.646L317.622 335.869Z" fill="#767D9F"/>
<path d="M364.295 135.43H315.097V199.699H364.295V135.43Z" fill="white"/>
<path opacity="0.1" d="M364.295 135.43H315.097V199.699H364.295V135.43Z" fill="black"/>
<path d="M383.093 139.201L334.607 147.555L345.483 210.894L393.969 202.54L383.093 139.201Z" fill="white"/>
<path d="M357.749 188.771L346.358 190.734L348.913 205.615L360.305 203.652L357.749 188.771Z" fill="#057BE8"/>
<path d="M373.513 186.052L362.121 188.015L364.676 202.895L376.068 200.933L373.513 186.052Z" fill="#057BE8"/>
<path d="M384.652 164.25L344.703 171.122L347.265 186.07L387.214 179.198L384.652 164.25Z" fill="#057BE8"/>
<path d="M381.322 146.409L341.373 153.281L341.944 156.616L381.894 149.744L381.322 146.409Z" fill="#057BE8"/>
<path d="M382.632 152.544L342.683 159.416L343.254 162.751L383.204 155.879L382.632 152.544Z" fill="#057BE8"/>
<path d="M342.762 117.969C342.762 117.969 320.147 140.716 331.5 146.495C342.854 152.273 350.244 127.268 350.244 127.268L352.039 121.582L342.762 117.969Z" fill="#AE6E79"/>
<path opacity="0.1" d="M340.783 115.96L337.988 122.145C337.988 122.145 351.774 124.084 354.656 128.259L352.947 117.346L350.92 112.689L340.783 115.96Z" fill="black"/>
<path d="M341.324 115.419L338.529 121.604C338.529 121.604 352.315 123.542 355.196 127.718L353.488 116.805L351.461 112.148L341.324 115.419Z" fill="#4C4981"/>
<path d="M424.776 229.135L424.479 229.34L424.89 229.524L425.333 229.487L425.387 229.178L424.776 229.135Z" fill="#464A5F"/>
<path opacity="0.1" d="M424.776 229.135L424.479 229.34L424.89 229.524L425.333 229.487L425.387 229.178L424.776 229.135Z" fill="black"/>
<path d="M424.776 229.134L424.474 229.329L424.236 229.037L424.382 228.798L424.517 228.755L424.776 229.134Z" fill="#9C9CA1"/>
<path opacity="0.1" d="M424.776 229.134L424.474 229.329L424.236 229.037L424.382 228.798L424.517 228.755L424.776 229.134Z" fill="black"/>
<path d="M477.991 191.706L455.858 159.682C455.662 159.396 455.411 159.152 455.121 158.963C454.83 158.774 454.506 158.645 454.165 158.582C453.825 158.519 453.475 158.524 453.137 158.597C452.798 158.669 452.477 158.808 452.192 159.005L402.854 192.93C402.276 193.326 401.88 193.937 401.751 194.626C401.623 195.315 401.772 196.028 402.167 196.607L424.241 229.037L477.991 191.706Z" fill="#9C9CA1"/>
<path opacity="0.1" d="M477.991 191.706L455.858 159.682C455.662 159.396 455.411 159.152 455.121 158.963C454.83 158.774 454.506 158.645 454.165 158.582C453.825 158.519 453.475 158.524 453.137 158.597C452.798 158.669 452.477 158.808 452.192 159.005L402.854 192.93C402.276 193.326 401.88 193.937 401.751 194.626C401.623 195.315 401.772 196.028 402.167 196.607L424.241 229.037L477.991 191.706Z" fill="black"/>
<path d="M478.532 191.782L456.398 159.758C456.202 159.472 455.951 159.227 455.66 159.039C455.369 158.85 455.044 158.72 454.703 158.657C454.362 158.594 454.012 158.6 453.673 158.672C453.334 158.745 453.013 158.884 452.727 159.081L403.394 193.027C402.817 193.424 402.421 194.034 402.291 194.723C402.161 195.412 402.309 196.124 402.702 196.705L424.776 229.151L478.532 191.782Z" fill="#9C9CA1"/>
<path d="M497.032 198.113L478.651 192.198L424.89 229.53L443.563 235.65C443.981 235.786 444.425 235.822 444.86 235.756C445.294 235.691 445.708 235.524 446.067 235.27L497.184 199.114C497.28 199.061 497.357 198.979 497.405 198.88C497.453 198.781 497.47 198.67 497.454 198.561C497.437 198.452 497.388 198.351 497.313 198.271C497.238 198.191 497.14 198.136 497.032 198.113Z" fill="#464A5F"/>
<path opacity="0.1" d="M497.032 198.113L478.651 192.198L424.89 229.53L443.563 235.65C443.981 235.786 444.425 235.822 444.86 235.756C445.294 235.691 445.708 235.524 446.067 235.27L497.184 199.114C497.28 199.061 497.357 198.979 497.405 198.88C497.453 198.781 497.47 198.67 497.454 198.561C497.437 198.452 497.388 198.351 497.313 198.271C497.238 198.191 497.14 198.136 497.032 198.113Z" fill="black"/>
<path d="M496.919 197.739L478.537 191.819L424.777 229.151L443.45 235.26C443.867 235.398 444.311 235.437 444.746 235.372C445.181 235.307 445.594 235.14 445.953 234.886L497.071 198.73C497.163 198.675 497.236 198.593 497.282 198.496C497.328 198.399 497.343 198.29 497.327 198.184C497.311 198.077 497.263 197.978 497.191 197.899C497.118 197.82 497.024 197.764 496.919 197.739Z" fill="#464A5F"/>
</svg>
