<svg width="157" height="123" viewBox="0 0 157 123" fill="none" xmlns="http://www.w3.org/2000/svg">
<path d="M125.225 88.403L126.838 96.944L130.294 97.8673L129.373 87.7104L125.225 88.403Z" fill="#A0616A"/>
<path d="M144.582 88.403L146.195 96.944L149.652 97.8673L148.73 87.7104L144.582 88.403Z" fill="#A0616A"/>
<path d="M128.912 95.3282C128.912 95.3282 125.225 95.0973 125.225 96.2515C125.225 97.4057 123.381 101.33 123.381 101.33C123.381 101.33 121.998 105.947 125.685 105.485C129.373 105.023 131.677 100.868 131.677 100.868L130.755 96.4824L128.912 95.3282Z" fill="#2F2E41"/>
<path d="M147.379 95.7538C147.379 95.7538 144.919 94.17 145.095 95.2259C145.271 96.2817 145.446 99.0974 146.676 99.2734C147.906 99.4493 151.595 100.505 151.771 100.857C151.946 101.209 156.163 102.617 156.163 100.329C156.163 98.0415 153.528 96.2818 153.528 96.2818L150.541 93.994C150.541 93.994 148.609 93.8181 148.257 95.0499C147.906 96.2817 147.379 95.7538 147.379 95.7538Z" fill="#2F2E41"/>
<path d="M124.016 39.8043C124.016 39.8043 120.098 34.0334 118.715 35.8801C117.333 37.7268 122.172 41.1894 122.172 41.1894L124.016 39.8043Z" fill="#A0616A"/>
<path d="M125.398 45.3444C125.168 45.1136 121.02 41.1893 121.02 41.1893L124.015 39.1118L127.472 42.5743L125.398 45.3444Z" fill="#575A89"/>
<path d="M125.974 27.4544C125.974 27.4544 122.978 27.6852 123.209 30.2245C123.439 32.7637 125.398 41.1893 125.398 41.1893L126.55 43.4977C126.55 43.4977 130.814 30.2245 125.974 27.4544Z" fill="#575A89"/>
<path d="M126.205 19.3751L127.034 22.1451H137.427L137.727 19.1442L138.626 22.1451H139.962L140.262 19.1442L141.161 22.1451H142.566L141.245 18.9557C140.631 17.431 140.164 15.8508 139.851 14.2368C139.439 12.2327 138.349 10.4323 136.766 9.13956C135.182 7.8468 133.202 7.14078 131.159 7.14062C131.037 7.14062 130.915 7.1431 130.793 7.14804C124.968 7.38462 121.237 13.4953 123.473 18.889L124.822 22.1451H125.928L126.205 19.3751Z" fill="#2F2E41"/>
<path d="M126.089 43.4977C126.089 43.4977 118.945 49.4995 121.019 57.5788C123.093 65.6582 123.785 91.0504 123.785 91.0504L130.929 90.3579V58.5022L140.838 77.431L142.451 91.0504L150.517 89.6654L146.83 73.045L139.739 51.8591L138.994 45.747L126.089 43.4977Z" fill="#2F2E41"/>
<path d="M131.044 19.6059C133.717 19.6059 135.884 17.4356 135.884 14.7583C135.884 12.0811 133.717 9.91071 131.044 9.91071C128.372 9.91071 126.205 12.0811 126.205 14.7583C126.205 17.4356 128.372 19.6059 131.044 19.6059Z" fill="#A0616A"/>
<path d="M128.163 18.1055C128.163 18.1055 130.237 25.7232 129.085 26.6465C127.933 27.5699 137.151 23.6456 137.151 23.6456C137.151 23.6456 133.233 19.2597 133.694 17.413L128.163 18.1055Z" fill="#A0616A"/>
<path d="M136.69 22.0297C136.69 22.0297 133 25.2088 129.429 25.466C129.429 25.466 124.706 28.0315 124.937 28.2623C125.167 28.4932 125.859 31.7249 125.859 31.7249C125.859 31.7249 127.011 33.5072 127.011 37.265C127.011 37.7267 125.398 44.1902 125.398 44.1902L138.994 46.0369C138.994 46.0369 142.681 34.0333 142.912 29.8782C143.142 25.7231 144.525 21.3372 142.451 21.1063C140.377 20.8755 136.69 22.0297 136.69 22.0297Z" fill="#575A89"/>
<path d="M141.991 22.0297C141.991 22.0297 143.604 20.6447 144.526 23.8764C145.448 27.1082 149.135 37.2651 148.213 39.3426C147.291 41.4202 141.76 50.6537 141.76 50.6537L138.995 48.807L144.526 38.4193L141.3 31.0324L141.991 22.0297Z" fill="#575A89"/>
<path d="M140.147 48.5762C140.147 48.5762 133.003 52.9621 135.307 53.8855C137.612 54.8088 141.53 49.9612 141.53 49.9612L140.147 48.5762Z" fill="#A0616A"/>
<path d="M125.744 9.2182V14.0658H127.588L128.279 11.9883L128.452 14.0658H133.579L134.271 11.9883L134.444 14.0658H136.575V9.2182H125.744Z" fill="#2F2E41"/>
<path opacity="0.2" d="M125.744 32.0712C125.744 32.0712 125.283 36.6879 125.975 37.6113C126.666 38.5346 125.744 32.0712 125.744 32.0712Z" fill="black"/>
<path d="M79.933 77.5717L51.5833 105.969C47.2492 110.311 41.3712 112.749 35.2422 112.749C29.1132 112.749 23.2352 110.311 18.9011 105.969C18.5185 105.586 18.1498 105.192 17.7995 104.785C17.2224 104.125 16.6845 103.431 16.1887 102.708C14.3704 100.073 13.1266 97.0842 12.5384 93.9359C12.4071 93.2503 12.308 92.5578 12.2411 91.8583C12.1697 91.1127 12.1336 90.3602 12.1328 89.6007C12.1308 87.4769 12.4193 85.3627 12.9901 83.3173C13.186 82.6132 13.4157 81.9207 13.6791 81.2398C14.843 78.2348 16.6218 75.507 18.9011 73.232L31.2693 60.8429C31.9174 60.1936 32.7965 59.8288 33.7132 59.8288C34.6298 59.8288 35.5089 60.1936 36.1571 60.8429C36.8052 61.4921 37.1694 62.3727 37.1694 63.2909C37.1694 64.2091 36.8052 65.0897 36.1571 65.7389L23.7889 78.128C22.8543 79.0628 22.0364 80.1077 21.3531 81.2398C19.8354 83.763 19.0376 86.6549 19.0463 89.6007C19.0465 90.3559 19.0981 91.1102 19.2007 91.8583C19.2969 92.5597 19.4401 93.2538 19.6293 93.9359C20.3844 96.6705 21.8423 99.1589 23.8576 101.153C25.8729 103.146 28.375 104.576 31.1141 105.298C33.8533 106.02 36.7337 106.01 39.4678 105.269C42.2019 104.528 44.694 103.081 46.6955 101.073L53.8209 93.9359L66.4956 81.2398L75.0452 72.6756C77.7334 69.9755 79.388 66.4144 79.7195 62.6155C80.0511 58.8167 79.0385 55.022 76.8589 51.8956C76.3457 51.1419 76.15 50.2159 76.3145 49.3186C76.4789 48.4213 76.99 47.6252 77.7369 47.1032C78.4838 46.5812 79.4062 46.3755 80.3036 46.5307C81.2011 46.6858 82.0012 47.1894 82.5302 47.932C85.636 52.3933 87.0776 57.8061 86.6028 63.2241C86.1281 68.6422 83.7672 73.7207 79.933 77.5717Z" fill="#56CEA8"/>
<path d="M124.362 23.4794C124.362 23.6502 124.36 23.821 124.355 23.9919C124.296 27.0136 123.643 29.9942 122.435 32.7637C122.126 33.4738 121.78 34.1672 121.398 34.8413C120.363 36.6755 119.083 38.3599 117.594 39.8482L105.225 52.2373C104.577 52.885 103.698 53.2485 102.783 53.2478C101.867 53.2471 100.989 52.8824 100.341 52.2338C99.6935 51.5851 99.3294 50.7055 99.3287 49.7882C99.3281 48.8709 99.6909 47.9908 100.338 47.3412L112.706 34.9521C112.743 34.9151 112.779 34.8782 112.814 34.8413C115.668 31.9396 117.32 28.0636 117.439 23.9919C117.446 23.821 117.448 23.6502 117.448 23.4794C117.448 22.9531 117.424 22.4314 117.375 21.9143C117.014 18.169 115.363 14.6662 112.706 12.0067C112.459 11.7597 112.208 11.522 111.948 11.2957C108.991 8.69209 105.189 7.25605 101.252 7.25605C97.3158 7.25605 93.5139 8.69209 90.5573 11.2957C90.2969 11.522 90.0458 11.7597 89.7992 12.0067L61.4494 40.4045C58.4168 43.4499 56.7137 47.5757 56.7137 51.8772C56.7137 56.1786 58.4168 60.3045 61.4494 63.3498C62.0976 63.9991 62.4617 64.8797 62.4617 65.7979C62.4617 66.7161 62.0976 67.5967 61.4494 68.2459C60.8012 68.8952 59.9222 69.2599 59.0055 69.2599C58.0889 69.2599 57.2098 68.8952 56.5616 68.2459C52.2341 63.9013 49.8037 58.0145 49.8037 51.8772C49.8037 45.7398 52.2341 39.8531 56.5616 35.5084L84.9114 7.11062C87.3778 4.64517 90.3683 2.76966 93.6597 1.62412C96.9511 0.478567 100.458 0.0925822 103.92 0.494973C107.381 0.897364 110.706 2.07774 113.648 3.94796C116.59 5.81819 119.073 8.32996 120.91 11.2957C121.328 11.9673 121.71 12.6608 122.055 13.3733C123.351 16.0472 124.117 18.948 124.309 21.9143C124.343 22.4337 124.361 22.9554 124.362 23.4794Z" fill="#56CEA8"/>
<path d="M104.774 23.0684C104.774 23.3785 104.743 23.6878 104.681 23.9918C104.469 25.0345 103.903 25.9716 103.08 26.6446C102.257 27.3176 101.227 27.6852 100.165 27.6852C99.1022 27.6852 98.0723 27.3176 97.2493 26.6446C96.4263 25.9716 95.8606 25.0345 95.6478 23.9918C95.5091 23.3041 95.5272 22.5939 95.7008 21.9142C95.9804 20.8252 96.6471 19.8757 97.5759 19.2441C98.5047 18.6125 99.6317 18.3422 100.745 18.4839C101.859 18.6256 102.883 19.1695 103.624 20.0136C104.366 20.8577 104.775 21.9439 104.774 23.0684Z" fill="#56CEA8"/>
<path d="M36.7912 93.0125C36.7911 93.3226 36.7602 93.6319 36.699 93.9359C36.4863 94.9786 35.9206 95.9157 35.0975 96.5887C34.2745 97.2617 33.2447 97.6293 32.1822 97.6293C31.1198 97.6293 30.0899 97.2617 29.2669 96.5887C28.4438 95.9157 27.8781 94.9786 27.6654 93.9359C27.5266 93.2482 27.5448 92.538 27.7184 91.8583C27.998 90.7693 28.6647 89.8198 29.5935 89.1882C30.5223 88.5566 31.6492 88.2863 32.7629 88.428C33.8765 88.5696 34.9003 89.1136 35.6419 89.9577C36.3836 90.8018 36.7923 91.888 36.7912 93.0125Z" fill="#56CEA8"/>
<path d="M20.1051 39.5121C18.3432 36.53 14.8575 36.3911 14.8575 36.3911C14.8575 36.3911 11.4609 35.956 9.28196 40.4977C7.25104 44.7309 4.44811 48.8182 8.83071 49.8092L9.62234 47.3411L10.1126 49.9929C10.7366 50.0379 11.3626 50.0486 11.9878 50.025C16.6812 49.8732 21.1509 50.0694 21.007 48.3824C20.8157 46.1397 21.8004 42.3814 20.1051 39.5121Z" fill="#2F2E41"/>
<path d="M7.4082 105.362L7.63865 111.364H11.7867L11.5563 104.901L7.4082 105.362Z" fill="#FBBEBE"/>
<path d="M18.7008 62.8881L18.2814 64.2847L12.8475 82.3663L12.2483 84.3561L12.7092 105.593L6.94797 106.286C6.94797 106.286 6.77974 104.056 6.53316 100.764C6.0377 94.2452 5.22652 83.5551 4.7564 77.738C4.58356 75.5866 4.45912 74.1023 4.41304 73.7375C4.18259 71.8908 7.17842 62.6573 7.17842 62.6573L13.1701 62.1956L18.7008 62.8881Z" fill="#2F2E41"/>
<path d="M8.7916 110.672C8.7916 110.672 7.17846 108.825 6.94801 110.21C6.71756 111.595 3.95219 116.904 3.95219 116.904C3.95219 116.904 -4.1135 122.214 2.79995 122.675C2.79995 122.675 6.25667 122.214 7.40891 120.367C7.40891 120.367 9.25249 119.213 9.71339 119.213C10.1743 119.213 12.9397 118.289 12.4788 116.904C12.0179 115.519 12.2483 110.441 12.2483 110.441L8.7916 110.672Z" fill="#2F2E41"/>
<path d="M8.56055 99.8223L10.6346 103.747L13.8609 102.131L11.7868 97.5139L8.56055 99.8223Z" fill="#FBBEBE"/>
<path opacity="0.2" d="M6.94805 88.5112C6.94805 88.5112 5.2289 84.7485 4.75879 78.9314C8.09568 75.1964 12.1331 71.0829 12.1331 71.0829L16.9725 70.8521L18.4705 70.7366C18.8207 74.2454 15.8572 78.7652 12.8475 82.3663C11.0186 84.5428 9.04778 86.5956 6.94805 88.5112Z" fill="black"/>
<path d="M12.939 70.9675C12.939 70.9675 -1.80968 83.8944 0.264353 89.2037C2.33839 94.513 8.09959 100.977 8.09959 100.977L12.5506 98.3154L8.33004 88.5112C8.33004 88.5112 10.0994 86.9395 12.2532 84.6106C15.758 80.8208 20.2807 75.026 19.8525 70.7366L19.622 62.8881L15.7044 63.3498L12.939 70.9675Z" fill="#2F2E41"/>
<path d="M11.5566 102.823C11.5566 102.823 9.94345 102.823 10.1739 104.208C10.4043 105.593 10.8652 107.902 10.8652 107.902C10.8652 107.902 9.02166 118.751 13.4002 116.212C17.7787 113.673 16.6265 106.978 16.6265 106.978C16.6265 106.978 18.2396 102.823 16.1656 102.362C14.0915 101.9 13.4002 101.438 13.1697 101.669C12.9393 101.9 11.5566 102.823 11.5566 102.823Z" fill="#2F2E41"/>
<path d="M14.7828 46.2678C17.0738 46.2678 18.9309 44.4075 18.9309 42.1127C18.9309 39.8179 17.0738 37.9576 14.7828 37.9576C12.4919 37.9576 10.6348 39.8179 10.6348 42.1127C10.6348 44.4075 12.4919 46.2678 14.7828 46.2678Z" fill="#FBBEBE"/>
<path d="M13.1698 43.7285C13.1698 43.7285 15.0134 48.5761 14.3221 48.807C13.6307 49.0378 12.248 50.192 12.248 50.192L14.5525 52.2695L20.5442 49.0378C20.5442 49.0378 17.7788 45.3444 18.0092 43.7285H13.1698Z" fill="#FBBEBE"/>
<path d="M20.5438 48.1145C20.5438 48.1145 15.7217 50.4956 13.9847 48.9588C13.9847 48.9588 11.0954 48.807 10.6345 50.4229C10.1736 52.0388 11.0954 53.4238 9.94316 53.8855C8.79092 54.3471 7.98435 55.6168 8.67569 57.6943C9.36704 59.7719 9.25181 60.1181 8.33002 60.8106C7.40823 61.5031 6.48643 62.8882 6.48643 63.3499C6.48643 63.8115 5.56464 63.8115 6.02554 64.2732C6.48643 64.7349 5.56464 64.2732 6.48643 64.7349C7.40823 65.1966 9.94316 61.0415 11.7867 63.119C13.6303 65.1966 19.3915 68.6591 19.8524 66.5816C20.3133 64.504 21.696 59.4256 21.696 59.4256C21.696 59.4256 26.5354 50.4229 25.1528 49.4995C23.7701 48.5762 20.5438 48.1145 20.5438 48.1145Z" fill="#CFCCE0"/>
<path d="M19.8532 64.2731C19.8532 64.2731 17.3183 63.8115 16.627 65.4273C15.9356 67.0432 12.018 70.7366 14.5529 70.9675C17.0879 71.1983 18.9314 67.0432 18.9314 67.0432L21.4664 66.5815L19.8532 64.2731Z" fill="#FBBEBE"/>
<path d="M22.3884 49.4995L25.4022 49.6676C25.4022 49.6676 26.7669 51.1154 26.9974 52.5004C27.2278 53.8854 31.6063 64.2732 28.841 65.4274C26.0756 66.5816 20.0839 67.2741 20.0839 67.2741L19.3926 64.0423L23.3102 62.6573L20.5448 56.8863L22.3884 49.4995Z" fill="#CFCCE0"/>
<path opacity="0.2" d="M8.6767 88.6266L12.4673 98.1194L7.98535 88.6266L11.903 84.4716L8.6767 88.6266Z" fill="black"/>
<path opacity="0.2" d="M6.40527 99.0758L7.98545 101.092H6.83321L6.40527 99.0758Z" fill="black"/>
<path d="M15.284 38.9308C16.676 38.9308 17.8044 37.8005 17.8044 36.4062C17.8044 35.0118 16.676 33.8815 15.284 33.8815C13.8921 33.8815 12.7637 35.0118 12.7637 36.4062C12.7637 37.8005 13.8921 38.9308 15.284 38.9308Z" fill="#2F2E41"/>
<path d="M12.4979 35.7418C12.4979 35.1183 12.7283 34.5168 13.1447 34.0533C13.561 33.5898 14.1339 33.297 14.7529 33.2314C14.6648 33.222 14.5762 33.2173 14.4876 33.2172C14.1564 33.2168 13.8284 33.2819 13.5224 33.4087C13.2163 33.5354 12.9382 33.7213 12.7039 33.9558C12.4696 34.1902 12.2837 34.4686 12.1569 34.7751C12.0301 35.0816 11.9648 35.4101 11.9648 35.7418C11.9648 36.0735 12.0301 36.402 12.1569 36.7085C12.2837 37.015 12.4696 37.2934 12.7039 37.5278C12.9382 37.7623 13.2163 37.9482 13.5224 38.075C13.8284 38.2017 14.1564 38.2668 14.4876 38.2664C14.5762 38.2663 14.6648 38.2616 14.7529 38.2522C14.1339 38.1866 13.561 37.8938 13.1447 37.4303C12.7283 36.9668 12.4979 36.3653 12.4979 35.7418Z" fill="#2F2E41"/>
<path d="M19.3259 39.2246L15.8821 37.4178L11.1266 38.157L10.1426 42.5099L12.592 42.4155L13.2762 40.8163V42.3892L14.4063 42.3456L15.0622 39.7996L15.4722 42.5099L19.4898 42.4277L19.3259 39.2246Z" fill="#2F2E41"/>
</svg>
